<svg width="65" height="60" viewBox="0 0 65 60" fill="none" xmlns="http://www.w3.org/2000/svg">
<path d="M64.2834 39.2347C63.478 39.4893 62.8068 39.7037 62.1356 39.9047C60.5247 40.3737 58.9273 40.8427 57.3164 41.2849C55.6519 41.7539 53.9873 42.1961 52.3227 42.6651C49.7185 43.4155 47.1142 44.1614 44.51 44.9028C42.2548 45.546 40.013 46.1758 37.7578 46.819C36.2946 47.2344 34.8448 47.69 33.395 48.0652C32.9252 48.1858 32.4553 48.628 31.9452 48.1456C31.5022 48.3064 30.9518 48.36 30.6297 48.6548C30.0953 49.1423 29.4064 49.4269 28.6832 49.4588C27.4616 49.5526 26.3474 49.9814 25.2198 50.37C23.2465 51.0802 21.2866 51.8172 19.3133 52.5408H19.2999L16.4271 53.4386C15.8633 53.5056 15.3801 53.8406 14.8297 53.988C14.239 54.1488 13.6887 54.3632 13.0846 54.5642C12.4805 54.7652 11.863 54.926 11.2589 55.127C10.6549 55.328 10.0508 55.5558 9.4467 55.7702C8.86948 55.9846 8.3191 56.1722 7.72844 56.4C7.13779 56.6278 6.54714 56.869 5.94306 57.0968L4.15768 57.7936C3.58045 58.008 3.01664 58.2358 2.43942 58.4368C1.86219 58.6378 1.31181 58.9862 0.586914 59.0398C0.891486 58.5372 1.34715 58.1433 1.88903 57.9142C4.41273 56.8422 6.93643 55.7836 9.4467 54.6848C11.2455 53.8942 13.0309 53.0902 14.8163 52.246C15.4835 51.9113 16.0663 51.4303 16.5211 50.839C16.7493 50.9328 16.9775 51.04 17.34 51.2008C17.4071 50.906 17.4608 50.6246 17.5145 50.37C17.8966 50.1089 18.2641 49.8271 18.6152 49.5258C19.0985 49.0836 20.3469 48.8692 20.3469 48.8692L20.0516 48.226C20.3009 48.1095 20.5563 48.0066 20.8168 47.9178C23.1794 47.0736 25.542 46.2562 27.8912 45.4254C29.2201 44.9564 30.5491 44.5008 31.8647 43.9916C33.5427 43.3216 35.1669 42.5043 36.8718 41.9281C41.1809 40.5077 45.5436 39.1677 49.8661 37.8009C50.3897 37.6267 50.9132 37.4793 51.5576 37.2917C51.034 36.6753 50.6045 36.1393 50.1481 35.6435C48.9399 34.3705 47.6781 33.1511 46.5236 31.8379C45.651 30.8463 44.6308 29.9485 44.161 28.6621C44.0804 28.4343 43.8522 28.2601 43.6777 28.0591C43.5569 28.1931 43.4898 28.2601 43.3555 28.3941C42.8589 27.8447 42.3756 27.2953 41.7849 26.6253C41.6507 27.0139 41.5836 27.1881 41.4896 27.4427C41.342 27.2819 41.2211 27.1479 41.0735 26.9737C41.045 27.0477 41.0225 27.1239 41.0064 27.2015C41.0064 27.6973 41.0198 28.1931 41.0198 28.6889C41.0198 28.7961 40.9795 28.8899 40.9795 28.9971C40.9124 30.2433 40.8721 31.4895 40.805 32.7223C40.7781 33.2851 40.711 33.8345 40.6842 34.3839C40.6573 34.8395 40.6842 35.2951 40.6842 35.8043C40.1607 35.6971 39.6103 35.5229 39.1807 35.0405C38.8854 34.7189 38.4424 34.5447 38.1068 34.2499C36.8584 33.1913 35.6234 32.1059 34.3749 31.0339C32.952 29.8011 31.5022 28.5951 30.0927 27.3623C29.5557 26.8933 29.0725 26.3439 28.549 25.8615C28.1328 25.4729 27.8375 24.9369 27.2066 24.7895C27.0857 24.7627 27.0052 24.5617 26.9112 24.4411C26.7571 24.2556 26.5814 24.0892 26.3877 23.9453C26.366 23.928 26.3394 23.9178 26.3117 23.9162C26.2839 23.9146 26.2563 23.9217 26.2328 23.9364C26.2092 23.9511 26.1908 23.9727 26.18 23.9983C26.1693 24.0239 26.1668 24.0522 26.1729 24.0793V24.0927C26.1756 24.1187 26.1707 24.145 26.1587 24.1682C26.1466 24.1914 26.1281 24.2106 26.1052 24.2235C26.0824 24.2363 26.0563 24.2421 26.0302 24.2403C26.004 24.2385 25.979 24.2291 25.9581 24.2133C24.6694 23.0073 23.7432 21.6405 22.5753 20.4345C22.4008 20.6623 22.4813 20.8901 22.5216 21.1045C22.7767 22.7795 23.1257 24.4411 23.0988 26.1429C23.0985 26.7796 22.9515 27.4077 22.6693 27.9787C22.4948 28.3539 22.5082 28.8497 22.5082 29.2919C22.535 30.2299 22.6156 31.1813 22.6693 32.3069C22.4008 32.1327 22.2934 32.0657 22.1189 31.9451C21.6491 32.7893 21.6893 33.7541 21.5551 34.6653L21.4208 33.8613L21.2598 33.8345C21.1611 34.195 21.0893 34.5622 21.045 34.9333C20.9376 35.2013 20.8705 35.9249 20.6288 36.1527C20.6288 36.1527 20.508 35.8445 20.4678 35.7775C20.4678 35.7775 20.4141 35.6569 20.4006 35.6569C20.371 35.9458 20.3217 36.2323 20.253 36.5145C20.1858 36.7959 20.1187 37.0773 20.0785 37.3319L20.0516 37.4257C20.0516 37.4257 19.5683 38.6049 19.5147 38.6049C19.5147 38.6049 19.4744 38.1761 19.4475 38.0421C19.4341 37.8009 19.4475 37.5597 19.4475 37.3185C19.3938 35.3219 19.3804 33.3253 19.273 31.3555C19.1656 29.3857 18.9911 27.4025 18.7898 25.4193C18.5481 23.1949 18.2796 20.9571 17.9843 18.7327C17.8367 17.6607 17.6085 16.5887 17.3937 15.5301C17.3534 15.3291 17.2863 15.0611 17.1386 14.9807C16.1855 14.3911 15.8365 13.4129 15.4606 12.4482C14.4492 9.98569 13.0487 7.70103 11.3126 5.68118C10.3998 4.64938 9.63464 3.51038 8.78893 2.37139L8.66812 1.76839C8.65469 1.82199 8.65469 1.88899 8.64127 1.96939C7.86268 1.51379 7.45996 0.790192 6.94986 0.146995L7.05725 0.0397949C7.55393 0.441794 8.05062 0.816992 8.52045 1.21899L8.56073 1.25919L9.25877 1.84879C10.9368 3.18878 12.5611 4.51538 14.1854 5.82858C15.8096 7.14177 17.4071 8.46837 19.0851 9.71456C18.7495 9.33936 18.4273 8.96416 18.0917 8.58897C18.1398 8.54772 18.1846 8.50292 18.226 8.45497C18.3725 8.5316 18.5118 8.6213 18.6421 8.72297C19.8637 9.98256 21.0584 11.2556 22.2934 12.5018C23.77 14.0025 25.2601 15.4765 26.7501 16.9505C26.9233 17.12 27.1227 17.2602 27.3408 17.3659C28.6563 17.9957 29.5021 19.1213 30.4015 20.2067C32.3345 22.5249 34.0393 25.0441 36.2811 27.1077C36.4825 27.2953 36.6973 27.4695 36.8986 27.6571C36.9389 27.6303 36.9926 27.6035 37.0329 27.5767C36.9523 27.0675 36.8315 26.5583 36.7912 26.0357C36.6167 23.9739 36.2937 21.9274 35.8247 19.9119C35.7647 19.6251 35.6839 19.3429 35.5831 19.0677C35.1804 17.9555 34.7911 16.8165 34.3347 15.7177C34.043 15.0459 33.702 14.3965 33.3144 13.7747C33.1534 13.5068 33.046 13.279 33.2071 12.9038C33.744 13.3594 34.2541 13.7881 34.7374 14.2169C35.5428 14.9539 36.308 15.7311 37.1403 16.4279C37.6906 16.8835 38.3484 17.1917 38.9525 17.5803C39.4223 17.8751 39.9324 18.1297 40.2278 18.6791C40.107 18.7863 39.9727 18.8667 39.8653 18.9739C39.6103 19.2151 39.6237 19.4831 39.8519 19.7511C40.4157 20.3809 40.9392 21.0375 41.5299 21.6539C42.8589 23.0609 44.2013 24.4411 45.6242 25.7811C44.9127 24.0927 43.7583 22.6991 42.6307 21.2921C43.2079 21.6137 43.5972 22.1229 44.0402 22.5651C44.0804 22.6053 44.0939 22.6589 44.1341 22.6991C45.5436 24.2937 46.8995 25.9151 48.3627 27.4561C49.1547 28.3003 50.0809 29.0239 50.9938 29.7609C51.3965 30.0825 51.9334 30.2835 52.3764 30.5515C52.8194 30.8195 53.3295 31.0473 53.692 31.4091C54.2692 31.9853 54.8196 32.5615 55.4908 33.0573C56.3365 33.6871 57.0614 34.4911 57.84 35.2013C58.1621 35.4693 58.4977 35.7373 58.8333 35.9785C59.4374 36.4073 60.0549 36.8227 60.6724 37.2515C61.6242 37.9339 62.6567 38.4965 63.7465 38.9265C63.8807 38.9935 64.0015 39.0873 64.2834 39.2347Z" fill="#353841"/>
</svg>
