<svg width="347" height="100" viewBox="0 0 347 100" fill="none" xmlns="http://www.w3.org/2000/svg">
<path d="M173.649 20.353C171.543 20.9553 169.437 21.5576 167.347 22.16C165.695 22.6599 164.066 23.2201 162.415 23.726C162.14 23.7653 161.859 23.7653 161.585 23.726C161.796 23.6176 162 23.4972 162.219 23.4008C162.37 23.3468 162.527 23.3025 162.689 23.2683C164.583 22.7201 166.485 22.1901 168.372 21.6299C170.259 21.0697 172.075 20.4975 173.938 19.9434C175.293 19.5398 176.671 19.1664 178.033 18.7387C178.182 18.6965 178.275 18.552 178.393 18.4556C178.215 18.4267 178.034 18.4125 177.853 18.4134C177.696 18.4134 177.547 18.5098 177.391 18.5279C176.874 18.5821 176.381 18.9375 175.825 18.5881C175.755 18.5459 175.496 18.6905 175.316 18.7387C174.815 18.8833 174.455 19.4555 173.75 19.0338C173.711 19.0338 173.539 19.1362 173.422 19.1724C172.942 19.3891 172.409 19.5265 171.856 19.5759C171.683 19.5622 171.508 19.5748 171.342 19.6131C171.175 19.6513 171.02 19.7144 170.885 19.7988C170.627 19.9313 170.478 20.4011 170.102 19.9133C170.102 19.9133 169.766 19.9133 169.766 19.9494C169.766 20.4975 169.21 20.2144 168.905 20.2807L165.429 21.0758C164.591 21.2625 163.863 21.6781 162.9 21.6359C162.618 21.6359 162.266 21.9853 161.843 21.7203C161.843 21.7203 161.694 21.7564 161.686 21.7865C161.459 22.3889 160.77 22.178 160.254 22.2563C160.144 22.2563 159.956 22.2563 159.925 22.2985C159.588 22.7081 159.142 22.6599 158.602 22.5997C158.453 22.5997 158.203 22.5997 158.148 22.684C157.741 23.2863 156.801 22.9671 156.245 23.3526C155.894 23.5121 155.501 23.6108 155.095 23.6417C154.68 23.726 154.249 23.7622 153.842 23.8646C151.676 24.4147 149.513 24.9829 147.352 25.5692C145.786 25.9908 144.142 26.4064 142.553 26.8582C140.964 27.3099 139.343 27.834 137.731 28.2857C135.139 29.0146 132.524 29.6952 129.902 30.4301C126.974 31.2733 124.062 32.1407 121.142 33.0141C118.879 33.6947 116.632 34.3995 114.378 35.0921C113.422 35.3813 112.459 35.6945 111.504 35.9475C111.349 35.9715 111.19 35.9715 111.035 35.9475C111.059 35.8547 111.101 35.7654 111.16 35.6824C112.099 34.6404 113.007 33.5923 113.837 32.4901C114.91 31.0625 116.186 29.7193 117.329 28.3279C118.639 26.7739 119.944 25.2178 121.243 23.6598C121.705 23.1117 122.144 22.5635 122.582 22.0094C122.786 21.7504 122.958 21.4854 123.161 21.2263C123.662 20.5879 124.116 19.9133 124.727 19.3169C125.51 18.5038 126.418 17.7509 127.256 16.9618C127.827 16.4317 128.367 15.8896 128.908 15.3355C128.986 15.2572 128.962 15.1126 128.986 14.9922C128.864 14.9801 128.74 14.9801 128.618 14.9922C128.093 15.1186 127.569 15.2391 127.052 15.3957C126.35 15.5607 125.679 15.7956 125.056 16.0944C124.601 16.3279 124.128 16.5392 123.639 16.7269C122.512 17.2449 121.212 17.5521 120.163 18.1424C118.292 19.1965 116.562 20.4072 114.753 21.5335C113.83 22.1359 113 22.7382 111.99 23.2863C110.994 23.9089 110.053 24.581 109.171 25.2981C107.856 26.1896 106.502 27.0449 105.163 27.9183C103.112 29.2555 101.063 30.5967 99.0176 31.9419C97.6867 32.8153 96.4028 33.7489 95.0484 34.5802C93.2556 35.7005 91.4002 36.7666 89.5683 37.8689C88.4723 38.5315 87.4311 39.2362 86.3351 39.8868C85.0511 40.6517 83.7359 41.3685 82.4207 42.1214C80.4792 43.2659 78.5063 44.3983 76.6196 45.5728C74.7329 46.7474 72.4704 47.6208 71.1395 49.2772C71.0874 49.3452 71.0213 49.4062 70.9438 49.4579C69.7545 50.13 68.4539 50.677 67.0764 51.0842C64.4094 51.9596 61.7372 52.8531 59.0598 53.7646C56.3824 54.6761 53.7154 55.5997 51.0589 56.5354C49.681 57.0232 48.311 57.5352 46.941 58.0472C45.9859 58.4086 45.0386 58.7821 44.0913 59.1555L40.7328 60.4987C40.6232 60.5409 40.4353 60.6132 40.4275 60.6734C40.4275 61.1854 40.0517 61.0469 39.6446 60.9866C39.2375 60.9264 38.3763 61.33 38.4703 61.5227C38.8461 62.2756 37.8988 62.2576 37.4917 62.4804C36.9203 62.7297 36.3264 62.9471 35.7146 63.1309C35.558 63.1972 35.4875 63.3899 35.3858 63.5164C35.5815 63.5164 35.8555 63.5526 35.9651 63.4743C36.1749 63.33 36.4264 63.2264 36.6987 63.1719C36.971 63.1174 37.2563 63.1137 37.5308 63.1611C37.6459 63.184 37.7547 63.2228 37.8518 63.2755C37.7749 63.347 37.6853 63.4099 37.5856 63.4622C36.2626 63.9381 34.9004 64.3537 33.6243 64.8958C32.8414 65.2391 31.7063 65.2451 31.2757 66.0342C31.2757 66.0703 31.08 66.1005 31.0565 66.0764C30.6964 65.7933 30.438 66.0764 30.164 66.1788C29.6473 66.3474 29.1541 66.5643 28.6452 66.7811C28.1364 66.9979 27.6275 67.1485 27.0795 67.3232C26.5315 67.4979 25.8895 67.5882 25.5138 67.9255C25.138 68.2629 24.7309 68.1846 24.316 68.3412C24.1437 68.4134 24.0811 68.6182 23.9324 68.7447C23.7985 68.8462 23.6516 68.937 23.494 69.0158C23.1338 68.4857 22.8129 68.9555 22.5075 69.0579C22.03 69.2266 21.5916 69.4615 21.1297 69.6603L20.6834 69.8229C20.8368 69.8595 20.984 69.9101 21.1219 69.9735C21.2216 70.0461 21.3038 70.1318 21.3645 70.2265L20.2294 70.624C19.9945 70.1542 19.8301 70.5156 19.6422 70.624C19.5184 70.7369 19.3617 70.8257 19.1848 70.8833C19.008 70.9408 18.816 70.9655 18.6245 70.9553C18.4914 70.9553 17.6537 70.7505 18.1078 71.3528C18.1469 71.401 18.0608 71.5697 17.9825 71.5998C17.5701 71.8278 17.0967 71.9822 16.5969 72.0516C16.4091 72.0278 16.2165 72.0576 16.0551 72.1352C15.8937 72.2128 15.7746 72.3329 15.72 72.4732C15.6652 72.5575 15.5008 72.6117 15.3834 72.6659C14.4674 73.0635 13.5515 73.455 12.6434 73.8706C12.5651 73.8706 12.5651 74.0332 12.5259 74.1176C12.612 74.1176 12.7138 74.1537 12.7843 74.1176C13.3624 73.8563 14.0103 73.6997 14.6788 73.6598C15.0486 73.6567 15.4137 73.5952 15.7514 73.4791C16.589 73.202 17.4032 72.8768 18.2174 72.5816C19.0316 72.2865 19.8223 71.919 20.6521 71.6359C22.3744 71.0336 24.1359 70.5397 25.8582 69.9434C29.3185 68.7387 32.7632 67.4858 36.2234 66.2751C38.3294 65.5403 40.4431 64.8115 42.5804 64.1248C44.7176 63.4381 46.7139 62.878 48.7885 62.2576L56.3667 59.9747C58.4335 59.3724 60.5003 58.77 62.5514 58.0954C64.8217 57.3786 67.0529 56.5956 69.3311 55.8969C71.1708 55.3307 73.0732 54.8789 74.913 54.3127C77.5225 53.5096 80.1321 52.6744 82.7417 51.807C85.513 50.8794 88.2687 49.9036 91.0166 48.9218C92.1205 48.5303 93.1852 48.0605 94.2577 47.6328L94.6648 47.4762C94.7152 47.607 94.7364 47.7435 94.7274 47.8798C94.663 48.0516 94.5682 48.2157 94.4456 48.3677C93.9054 49.1868 93.3418 49.994 92.8172 50.8131C91.8621 52.331 90.9383 53.8248 89.9676 55.3668C89.1847 56.5715 88.3157 57.7762 87.5328 59.0471C86.75 60.318 85.9123 61.7275 85.0981 63.0707C84.7771 63.6068 84.4875 64.1549 84.1195 64.6669C83.7516 65.1789 83.4384 65.5945 83.8612 66.1366C83.4384 66.5341 83.5637 67.0823 83.2114 67.522C82.783 68.126 82.409 68.7519 82.0919 69.3952C82.0571 69.4685 82.0412 69.5462 82.0449 69.6241C82.0449 69.6663 82.0449 69.7567 82.1076 69.7567C82.1871 69.7549 82.2638 69.7338 82.3268 69.6964C82.3816 69.6964 82.4129 69.6241 82.4677 69.588C83.1409 69.082 83.1723 68.1544 84.2996 67.9496C84.2996 67.9496 84.3544 67.8232 84.2996 67.7629C84.1274 67.3292 84.2996 67.1606 84.9181 67.0582C85.1764 67.0582 85.4191 66.745 85.5913 66.5402C86.0924 65.9378 86.5386 65.3355 87.024 64.7332C87.7207 63.8658 88.4566 63.0165 89.1221 62.1371C90.0694 60.8782 90.9775 59.6073 91.8934 58.3363C92.8094 57.0654 93.7567 55.7101 94.7118 54.4091C95.3076 53.5309 95.9609 52.6765 96.669 51.8492C97.5849 50.8493 98.634 49.9217 99.6126 48.9519C100.098 48.4761 100.544 47.9701 101.022 47.4882C101.717 46.8532 102.37 46.1918 102.979 45.5066C103.529 44.7528 104.412 44.1758 105.468 43.8802C107.496 43.2779 109.485 42.6334 111.489 42.013C113.054 41.5372 114.558 41.0734 116.1 40.6035C116.992 40.3325 117.9 40.0795 118.793 39.8024C121.142 39.0676 123.49 38.3327 125.839 37.5858C128.913 36.6181 131.984 35.6403 135.053 34.6524C136.666 34.1344 138.271 33.5743 139.891 33.0683C142.295 32.3154 144.722 31.6167 147.109 30.8457C149.732 30.0024 152.323 29.1049 154.938 28.2195C157.068 27.5027 159.181 26.7618 161.318 26.0571C164.082 25.1415 166.869 24.2501 169.648 23.3586C169.938 23.2622 169.922 23.2622 169.883 22.9129C169.89 22.8717 169.909 22.8323 169.938 22.7977C169.968 22.7632 170.008 22.7346 170.055 22.7141C170.963 22.437 171.887 22.178 172.795 21.8889C173.116 21.7865 173.578 21.642 173.649 21.4492C173.766 21.1179 173.884 21.0216 174.314 21.0818C174.745 21.142 175.308 21.1782 175.473 20.6361C175.52 20.4855 175.833 20.353 175.856 20.7144L176.639 20.5638V20.4252C175.856 20.3831 176.357 20.2445 176.639 20.1482C176.921 20.0518 177.07 20.0217 177.289 19.9494C178.385 19.6 179.481 19.2567 180.561 18.8833C180.663 18.8471 180.671 18.6363 180.718 18.4978C178.346 19.082 175.99 19.7024 173.649 20.353ZM105.915 33.1225L102.212 37.6461C101.805 38.14 101.429 38.6399 100.975 39.1158C100.816 39.278 100.602 39.4031 100.356 39.4772C97.9085 40.2803 95.4503 41.0593 92.9816 41.8142C92.8877 41.8142 92.7389 41.8142 92.6215 41.7841C92.6652 41.6922 92.7287 41.6067 92.8094 41.5311C93.7332 40.9288 94.6648 40.2903 95.5964 39.6759C98.1094 38.0135 100.63 36.3571 103.128 34.6826C104.028 34.0802 104.881 33.4779 105.758 32.8394C105.838 32.7944 105.921 32.7542 106.009 32.7189C106.009 32.7611 106.063 32.8033 106.095 32.8635C106.126 32.9237 105.985 33.0382 105.915 33.1225Z" fill="white"/>
<path d="M252.202 36.2185C251.317 36.3872 250.448 36.5618 249.572 36.7185C248.859 36.8449 248.147 36.9654 247.434 37.0738C247.098 37.122 247.004 37.0076 247.145 36.7666C247.481 36.1643 247.787 35.5921 248.162 35.0259C248.726 34.1766 249.329 33.3454 249.94 32.5081C250.074 32.3326 250.246 32.1757 250.448 32.0443C250.683 31.8817 250.996 31.8034 250.957 31.442C250.957 31.3275 251.31 31.1408 251.537 31.0685C253.22 30.5204 254.926 30.0084 256.602 29.4422C257.299 29.2073 257.917 28.8399 258.606 28.5869C260.172 28.0207 261.737 27.4907 263.303 26.9546C265.816 26.0932 268.345 25.2439 270.858 24.3705C272.721 23.726 274.561 23.0334 276.416 22.3768C279.548 21.2806 282.617 20.1783 285.74 19.1182C287.439 18.5459 289.201 18.0882 290.907 17.534C292.207 17.1124 293.491 16.6365 294.759 16.1547C295.135 16.0101 295.432 15.7451 295.8 15.5824C296.168 15.4198 296.52 15.0403 297.194 15.2813C297.491 15.3897 298.063 15.1247 298.478 14.9741C300.865 14.1127 303.237 13.2032 305.641 12.366C307.457 11.7636 309.32 11.1974 311.121 10.6011C313.258 9.89639 315.372 9.14346 317.525 8.46282C319.889 7.71592 322.274 7.00517 324.68 6.33055C325.623 6.10911 326.579 5.92416 327.546 5.7764C327.702 5.73498 327.853 5.68465 328 5.62581L328.595 5.42102C328.438 5.55956 328.328 5.74628 328.133 5.83061C326.332 6.63172 324.516 7.42078 322.7 8.19177C322.395 8.29103 322.081 8.3716 321.76 8.43271C321.572 8.48089 321.33 8.49896 321.22 8.60136C320.437 9.36633 319.059 9.31212 318.151 9.90241C317.454 9.72171 317.266 10.312 316.765 10.4505C316.264 10.5891 315.701 10.8661 315.2 11.0107C314.125 11.3632 313.079 11.7655 312.068 12.2154C311.395 12.4925 310.659 12.6912 309.962 12.9382C309.821 12.9864 309.649 13.0948 309.633 13.1912C309.571 13.5164 309.281 13.4321 309.031 13.4321C308.8 13.4151 308.566 13.4294 308.342 13.4743C308.154 13.5285 308.021 13.6911 307.856 13.8056H308.444C308.561 13.8056 308.686 13.8056 308.811 13.8056C308.725 13.8839 308.671 13.9863 308.569 14.0224C307.739 14.3416 306.917 14.6729 306.071 14.956C305.889 15.0087 305.722 15.0891 305.581 15.1926C305.439 15.2961 305.327 15.4205 305.249 15.5584C304.985 15.9094 304.597 16.1955 304.13 16.3836C300.435 17.8733 296.714 19.337 292.966 20.7746C291.338 21.3769 289.647 21.919 288.011 22.5274C287.488 22.7429 287.011 23.0169 286.594 23.3405C285.091 24.3409 283.438 25.1984 281.669 25.8945C279.79 26.7016 277.919 27.5208 276.009 28.3038C274.717 28.8158 273.316 29.1772 272.095 29.7313C271.069 30.1831 269.926 30.406 268.901 30.8517C268.791 30.8999 268.603 30.9902 268.619 31.0264C268.854 31.6287 268.032 31.701 267.711 31.9961C267.171 32.5021 267.147 32.5623 267.812 32.8996C268.94 33.4658 270.052 34.0561 271.148 34.6585C272.244 35.2608 273.332 35.8993 274.428 36.5076C274.709 36.6704 275.051 36.7584 275.402 36.7584C275.754 36.7584 276.096 36.6704 276.377 36.5076C276.537 36.4337 276.708 36.3751 276.886 36.333C276.847 36.4906 276.792 36.6457 276.722 36.7968C276.475 37.2859 276.174 37.7575 275.821 38.2062C275.265 38.8387 274.6 39.4109 273.974 40.0132C273.385 40.6294 272.745 41.215 272.056 41.766C271.382 42.262 270.607 42.669 269.762 42.9707C268.163 43.4741 266.62 44.0785 265.151 44.7777C264.47 45.115 264.031 45.6692 263.186 45.868C262.364 46.1368 261.577 46.4656 260.837 46.8498C260.054 47.169 259.271 47.4521 258.535 47.7713C258.285 47.8798 258.066 48.0303 257.831 48.1568C258.16 48.3195 258.481 48.5002 258.825 48.6447C258.89 48.653 258.956 48.6509 259.019 48.6385C259.082 48.626 259.142 48.6035 259.193 48.5725C259.827 48.1629 260.414 48.3677 261.041 48.5725C261.667 48.7772 262.411 48.964 263.1 49.1748C263.229 49.1979 263.349 49.2432 263.452 49.3073C264.391 50.1867 265.84 50.3433 267.061 50.8011C267.601 50.9999 268.079 51.5119 268.838 51.2589C269.887 52.1744 271.562 52.0118 272.823 52.6382C274.051 53.1287 275.335 53.532 276.659 53.8429C277.107 53.956 277.543 54.0928 277.966 54.2525C278.084 54.3127 278.184 54.3908 278.261 54.482C278.338 54.5731 278.389 54.6754 278.413 54.7825C278.491 55.3849 278.984 55.5716 279.618 55.7644C281.372 56.2944 283.094 56.8787 284.84 57.4328C286.03 57.8063 287.251 58.1496 288.441 58.5351C290.007 59.0591 291.573 59.6253 293.185 60.1373C294.524 60.571 295.894 60.9384 297.241 61.342C298.587 61.7456 300.067 62.2455 301.484 62.6852C302.901 63.1249 304.169 63.5285 305.523 63.932C306.479 64.2151 307.465 64.426 308.397 64.7452C308.533 64.8264 308.644 64.9293 308.724 65.0467C308.804 65.1642 308.85 65.2935 308.858 65.4258C308.952 66.1547 308.968 66.1366 309.884 66.4197C310.25 66.4977 310.592 66.6333 310.887 66.8178C311.182 67.0023 311.424 67.2318 311.598 67.4919C311.598 67.528 311.779 67.5581 311.826 67.534C312.366 67.2871 312.46 67.3292 312.569 67.8713C312.569 67.9436 312.687 68.0038 312.742 68.0701C313.25 67.7328 313.352 68.1544 313.65 68.311C314.023 68.4711 314.424 68.5907 314.84 68.6664C315.865 68.9314 316.726 69.5037 317.83 69.6061C317.959 69.6348 318.079 69.684 318.182 69.7506C320.782 71.1119 323.803 71.8046 326.559 72.9129C328.282 73.6056 330.098 74.1597 331.844 74.8163C332.791 75.1656 333.691 75.5993 334.615 76.021C334.75 76.0912 334.891 76.1536 335.038 76.2077C335.194 76.2416 335.354 76.2658 335.515 76.28C335.28 76.3583 335.038 76.5209 334.826 76.5028C334.447 76.441 334.079 76.3439 333.73 76.2137C331.671 75.6114 329.628 74.9368 327.553 74.3284C325.988 73.8766 324.422 73.4791 322.856 73.0575L315.027 70.9372C312.24 70.1843 309.446 69.4495 306.666 68.6845C304.678 68.1364 302.705 67.54 300.717 66.9859C298.031 66.245 295.33 65.5222 292.637 64.7934C291.072 64.3718 289.506 63.9441 287.94 63.5285C287.102 63.3056 286.241 63.1249 285.411 62.8719C284.61 62.5368 283.758 62.278 282.875 62.1009C282.39 61.2336 281.223 61.3239 280.323 61.0408C279.423 60.7577 278.373 60.3843 277.379 60.0952C276.385 59.806 275.359 59.6073 274.365 59.3242C273.371 59.0411 272.244 58.6255 271.163 58.3183C269.542 57.7767 267.856 57.3571 266.129 57.0654C264.36 56.8376 262.644 56.4136 261.033 55.8065C259.467 55.2042 257.901 54.4513 256.148 54.1923C255.714 54.1044 255.264 54.0718 254.817 54.0959C254.198 54.0559 253.601 53.9054 253.071 53.6562C252.687 53.5297 252.366 53.2888 251.967 53.1803C249.399 52.3973 246.777 51.795 244.232 51.0661C242.596 50.6144 240.999 50.1024 239.402 49.5904C238.682 49.3615 238.744 49.3254 239.144 48.7893C239.418 48.4158 240.193 48.1388 239.676 47.5244C239.629 47.4702 240.193 47.0425 240.545 46.8739C241.86 46.2715 243.215 45.6692 244.553 45.0668C244.829 44.9214 245.126 44.8021 245.438 44.7115C245.53 44.7033 245.624 44.7121 245.711 44.7373C245.798 44.7624 245.876 44.8031 245.939 44.856C245.994 44.9102 245.869 45.1933 245.783 45.2054C245.164 45.2897 245.54 45.6391 245.469 45.8559C245.469 45.9041 245.469 46.0005 245.469 46.0005C245.94 46.1024 246.43 46.1411 246.918 46.1149C247.364 45.955 247.782 45.7526 248.162 45.5126C248.826 45.1786 249.522 44.8846 250.245 44.6332C253.423 43.6634 256.633 42.7418 259.819 41.7781C261.299 41.3324 262.755 40.8324 264.227 40.3566C264.412 40.3005 264.59 40.2319 264.759 40.1518C265.159 39.941 265.119 39.7422 264.681 39.6097C263.789 39.3386 262.896 39.0495 261.98 38.8206C260.117 38.3628 258.214 37.9653 256.359 37.4894C255.161 37.1823 254.01 36.7847 252.828 36.4233L252.202 36.2185Z" fill="white"/>
<path d="M207.97 28.2496C207.492 29.7133 207.124 31.3034 206.451 32.8093C205.214 35.562 203.781 38.2665 202.458 41.0011C201.676 42.5973 200.987 44.2055 200.251 45.8198C199.938 46.5125 199.632 47.2051 199.288 47.8918C199.139 48.205 198.724 48.4941 199.061 48.8555V48.9218C198.02 49.3856 198.223 50.3493 197.659 50.9697C197.117 51.667 196.736 52.4312 196.532 53.2285C196.148 54.2525 195.859 55.2945 195.538 56.3245C195.538 56.4028 195.538 56.5052 195.491 56.5474C194.551 57.3184 194.575 58.4086 193.925 59.3001C193.414 60.2215 193.006 61.1746 192.704 62.1491C192.25 63.2394 191.796 64.3296 191.287 65.4078C190.34 67.4377 189.353 69.4555 188.375 71.4733C188.296 71.6082 188.202 71.7372 188.093 71.8588C187.846 72.0912 187.634 72.3437 187.459 72.6117C186.871 73.9067 186.308 75.2018 185.76 76.5088C185.212 77.8159 184.656 79.1712 184.147 80.5084C183.818 81.3637 183.576 82.2431 183.27 83.1044C182.965 83.9658 182.66 84.7669 182.339 85.5981C181.924 86.7004 181.509 87.8027 181.07 88.8989C180.976 89.1218 181.07 89.5013 180.452 89.4169C180.374 89.4169 180.147 89.7783 180.076 90.0193C179.794 90.8806 179.544 91.748 179.293 92.6153C179.129 93.1574 178.964 93.6995 178.777 94.2416C178.777 94.3019 178.581 94.338 178.479 94.3862C178.455 94.3174 178.442 94.2466 178.44 94.1754C178.628 93.3201 178.816 92.4648 179.019 91.6094C179.137 91.0975 179.285 90.5915 179.379 90.0795C179.438 89.878 179.414 89.6673 179.309 89.4772C179.176 89.2663 178.996 89.1218 179.481 89.0917C179.481 89.0917 179.583 88.9953 179.575 88.9833C179.426 88.8628 179.129 88.7242 179.152 88.6339C179.176 88.5435 179.473 88.3809 179.583 88.2303C179.674 88.064 179.739 87.8902 179.779 87.7123C179.802 87.6657 179.817 87.6172 179.826 87.5678C179.826 87.4413 179.826 87.3148 179.826 87.1883C179.732 87.2907 179.653 87.3931 179.552 87.4834C179.464 87.5423 179.37 87.5948 179.27 87.64C179.262 87.5498 179.262 87.4592 179.27 87.369C179.325 85.8752 179.982 84.4717 180.436 83.0322C180.804 81.8697 181.117 80.6951 181.493 79.5326C181.744 78.7736 182.065 78.0328 182.331 77.2798C182.44 76.9606 182.769 76.6474 182.378 76.298C182.315 76.2378 182.378 76.0571 182.456 75.9426C182.761 75.4005 182.761 75.4066 182.456 74.5874C182.456 74.5091 182.581 74.3946 182.667 74.3043C182.84 74.1055 183.035 73.9128 183.2 73.702C183.2 73.6598 183.2 73.5514 183.114 73.5092C182.816 73.2924 182.816 73.3044 183.278 73.1237C183.372 73.0876 183.435 73.0033 183.521 72.937C183.427 72.937 183.341 72.937 183.255 72.937C182.887 72.9731 182.863 72.8045 182.934 72.6057C183.051 72.2624 183.215 71.9251 183.348 71.5817L185.251 66.6908C185.564 65.8896 185.893 65.0885 186.206 64.2814C186.269 64.1067 186.417 63.8839 185.94 63.926C185.846 63.8131 185.799 63.6806 185.807 63.5466C186.026 62.6129 186.284 61.6914 186.527 60.7577C186.705 59.5776 187.022 58.4123 187.474 57.2762C187.967 56.3065 188.257 55.2945 188.68 54.3188C189.04 53.5598 189.658 52.8189 189.408 51.9094C189.405 51.8223 189.426 51.7358 189.471 51.6557C189.516 51.5756 189.582 51.5039 189.666 51.4456C190.35 50.9088 190.742 50.1914 190.762 49.4398C190.766 49.2886 190.782 49.1378 190.809 48.9881C190.856 48.8013 190.935 48.6206 190.997 48.4399C190.699 48.5144 190.417 48.622 190.159 48.7592C189.079 49.5422 188.03 50.3554 186.973 51.1685C186.922 51.202 186.884 51.2458 186.864 51.295C186.866 51.5947 186.722 51.8842 186.462 52.1069C186.201 52.3297 185.842 52.4697 185.454 52.4997C185.36 52.4997 185.282 52.6924 185.259 52.8009C185.118 53.5237 185.071 53.4996 184.186 53.4032C183.321 53.3115 182.507 53.0338 181.838 52.6021C181.517 52.4352 181.254 52.2098 181.074 51.946C180.894 51.6823 180.801 51.3883 180.804 51.0902C180.804 50.6084 180.804 50.1265 180.804 49.6446C180.858 48.1652 181.328 46.7123 182.182 45.3861C182.954 44.0369 183.719 42.6836 184.476 41.3263C185.066 40.2678 185.944 39.3189 187.051 38.5435C187.286 38.3749 187.49 38.0978 187.834 38.3809C187.939 38.3065 188.036 38.2259 188.124 38.14C188.32 37.9231 188.523 37.7063 188.696 37.4774C189.024 37.0136 189.33 36.5438 189.658 36.08C189.705 36.0197 189.854 35.9957 189.948 35.9595C189.984 36.0267 190.005 36.0979 190.011 36.1703C190.011 36.2968 189.909 36.4173 189.893 36.5438C189.784 37.2244 189.666 37.899 189.58 38.5857C189.47 40.3984 189.14 42.1992 188.594 43.9646C188.389 44.3993 188.409 44.8778 188.649 45.3018C188.876 45.6692 189.024 45.633 189.345 45.4463C190.754 44.6392 192.109 43.7477 193.612 43.037C194.88 42.4346 195.279 41.5191 195.812 40.6276C196.344 39.7362 196.916 38.658 197.479 37.6702C197.541 37.5289 197.646 37.4009 197.785 37.2967C198.466 36.8142 199.035 36.2458 199.468 35.6162C199.538 35.5379 199.577 35.3933 199.679 35.3632C201.19 34.9355 201.378 33.767 202.028 32.8635C202.756 31.8154 203.233 30.683 204.032 29.647C204.909 28.5146 205.598 27.2979 206.381 26.0993C206.514 25.8884 206.6 25.6836 206.913 25.8041C207.038 25.8583 207.07 26.1234 207.046 26.286C206.985 26.541 206.901 26.7926 206.795 27.0389C207.014 26.8108 207.203 26.5667 207.359 26.3101C207.571 25.8824 207.688 25.4307 207.876 24.997C207.915 24.9006 208.087 24.8464 208.197 24.7681C208.257 24.8776 208.307 24.9904 208.346 25.1054C208.346 25.1717 208.275 25.2439 208.244 25.3162C207.946 26.0812 207.649 26.8401 207.367 27.6051C207.367 27.6473 207.508 27.7798 207.524 27.7738C208.541 27.334 207.751 28.0147 207.97 28.2496Z" fill="white"/>
<path d="M185.94 55.7945C185.805 55.6544 185.662 55.5197 185.509 55.3909C185.353 55.2102 185.079 54.9813 185.126 54.8307C185.243 54.5055 185.016 54.5115 184.758 54.4212C184.229 54.2848 183.734 54.0812 183.294 53.8188C182.728 53.4216 182.041 53.1399 181.297 52.9996C180.954 52.923 180.625 52.8116 180.319 52.6683C179.058 52.066 177.782 51.4637 176.569 50.7891C175.637 50.2771 174.627 49.7892 174.22 48.8917C174.181 48.8194 173.985 48.7893 173.86 48.7411C173.643 48.6807 173.432 48.6103 173.226 48.5303C171.966 47.8978 170.689 47.2774 169.445 46.6149C168.2 45.9523 167.096 45.3078 165.922 44.6452C165.831 44.579 165.752 44.5041 165.687 44.4224C165.807 44.397 165.93 44.3809 166.055 44.3742C167.315 44.3742 168.576 44.4344 169.844 44.3742C171.112 44.3139 172.427 44.32 173.719 44.2778C174.111 44.2778 174.502 44.2176 174.886 44.1814V44.2838C175.665 44.2562 176.437 44.1489 177.179 43.9646C179.184 43.2659 180.491 41.9769 181.626 40.5734C181.869 40.2722 181.728 40.212 181.407 40.0675C180.828 39.8084 179.841 40.0675 179.661 39.2904C179.606 39.2926 179.552 39.2926 179.497 39.2904C179.129 39.2454 178.765 39.181 178.409 39.0977C177.524 38.8628 176.678 38.5375 175.786 38.3628C172.138 37.6641 168.482 37.0016 164.826 36.333C161.694 35.7668 158.61 35.1945 155.494 34.6524C153.772 34.3573 152.034 34.1284 150.319 33.8393C149.067 33.5821 147.763 33.5066 146.475 33.6164C145.818 33.6887 145.152 33.6947 144.495 33.7188C143.837 33.7429 143.493 34.1043 143.782 34.5922C144.088 35.1003 144.431 35.595 144.808 36.074C145.16 36.5257 145.356 37.0919 146.084 37.2786C146.812 37.4654 147.712 37.7003 148.503 37.9533C148.941 38.0918 149.067 37.9954 149.231 37.7003C149.438 37.4523 149.723 37.2485 150.06 37.1074C150.396 36.9664 150.774 36.8927 151.157 36.8931C151.846 36.9955 152.519 37.1401 153.208 37.2184C153.662 37.2726 153.725 37.4051 153.639 37.7304C153.2 39.441 152.801 41.1577 152.362 42.8683C152.214 43.4707 151.791 44.073 151.893 44.6392C152.081 45.6933 151.893 46.7956 152.503 47.8015C152.581 47.9398 152.606 48.0924 152.574 48.2412C152.449 48.8134 152.284 49.3856 152.143 49.9578C151.822 51.2589 151.501 52.566 151.204 53.867C151.17 54.0309 151.218 54.1986 151.337 54.3368C151.603 54.5898 151.697 54.7042 151.525 54.7585C150.938 54.9572 151.055 55.2042 151.321 55.5294C151.398 55.6702 151.42 55.8251 151.384 55.9752C151.235 56.8907 151.055 57.7822 150.914 58.7158C150.891 58.9544 150.891 59.194 150.914 59.4326C151.087 59.2321 151.231 59.0181 151.345 58.7941C151.736 57.734 152.088 56.6739 152.472 55.6078C152.526 55.5281 152.592 55.4533 152.668 55.3849C152.673 55.452 152.686 55.5185 152.707 55.5837C152.754 55.6921 152.817 55.7945 152.871 55.8969C152.991 55.8116 153.091 55.7119 153.169 55.6017C153.826 54.0537 154.492 52.5057 155.11 50.9457C155.729 49.3856 156.23 47.934 156.786 46.4583C156.966 45.9764 157.146 45.9161 157.569 46.1932C159.369 47.4013 161.354 48.4369 163.479 49.2772C164.661 49.7289 165.828 50.4819 167.3 49.9639C167.333 49.9551 167.368 49.9551 167.401 49.9639C168.443 50.1141 169.47 50.3153 170.478 50.5662C171.305 50.875 172.107 51.221 172.882 51.6022C175.136 52.4816 177.375 53.3731 179.661 54.1983C181.587 54.891 183.576 55.4993 185.525 56.1378C185.677 56.1713 185.836 56.1835 185.995 56.1739C186.003 56.046 185.984 55.9179 185.94 55.7945ZM159.534 41.1517C159.103 41.1517 158.899 41.0372 159.025 40.6879C159.244 40.0855 159.487 39.4832 159.674 38.917C159.808 38.5255 160.097 38.4472 160.567 38.5315C162.086 38.8206 163.604 39.0977 165.123 39.3748C166.415 39.6097 167.707 39.8265 168.991 40.0675C169.633 40.1879 170.259 40.3385 170.893 40.4831C170.963 40.4831 171.018 40.5553 171.073 40.5915C170.885 40.6999 170.721 40.8686 170.509 40.8987C169.825 41.0082 169.132 41.0847 168.435 41.1276C167.777 41.1637 167.112 41.1276 166.446 41.1276C164.145 41.1517 161.843 41.1456 159.534 41.1517Z" fill="white"/>
<path d="M92.8955 68.5219C93.0677 68.1484 93.2556 67.781 93.42 67.4075C93.6549 66.8895 93.8898 66.3655 94.109 65.8354C94.1212 65.7928 94.1212 65.7486 94.1091 65.706C94.0969 65.6633 94.0728 65.6232 94.0385 65.5885C93.7175 65.4379 93.7019 65.3837 94.0385 65.2753C94.5944 65.1186 94.5396 65.1066 94.336 64.6187C94.3037 64.3972 94.364 64.1736 94.5082 63.9802C95.2911 62.6069 96.074 61.2276 97.0134 59.8843C98.5792 57.475 100.21 55.0998 101.906 52.7587C103.214 50.9517 104.662 49.1447 105.938 47.2895C106.435 46.681 107.194 46.2267 108.083 46.0065C109.774 45.4042 111.536 44.9524 113.274 44.4645C113.374 44.4551 113.475 44.4657 113.569 44.4952C113.662 44.5247 113.744 44.5723 113.806 44.6332C114.136 45.2391 114.378 45.8715 114.526 46.5185C114.593 47.2524 114.593 47.9891 114.526 48.723C114.479 49.0029 114.479 49.2864 114.526 49.5663C114.6 49.8078 114.783 50.0213 115.043 50.1687C115.168 50.2289 115.591 50.0542 115.748 49.9096C116.64 49.0664 117.853 48.4339 118.456 47.3979C118.586 47.2194 118.749 47.0569 118.942 46.916C119.016 46.8656 119.101 46.8249 119.192 46.7956C119.192 46.8859 119.247 46.9763 119.263 47.0666C119.278 47.157 119.263 47.1991 119.263 47.2654C119.334 47.2286 119.402 47.1884 119.466 47.1449C119.646 46.9763 119.826 46.7956 119.999 46.6209C120.077 46.5486 120.147 46.4643 120.218 46.386C120.092 46.386 119.92 46.4402 119.842 46.386C119.764 46.3318 119.678 46.1691 119.725 46.1149C120.139 45.609 120.601 45.1211 121.016 44.6151C121.862 43.5971 122.684 42.5732 123.514 41.5432C123.905 41.0432 124.242 40.5132 124.696 40.0434C124.801 39.9582 124.931 39.8936 125.076 39.8548C125.22 39.8161 125.374 39.8043 125.526 39.8205C126.308 39.947 127.091 40.1518 127.804 40.3325C128.148 40.4168 128.485 40.5373 128.829 40.6216C129.338 40.7421 129.37 41.0493 129.338 41.3625C129.269 42.1757 129.391 42.9919 129.698 43.7718C129.766 44.0404 129.722 44.3186 129.573 44.5669C129.15 45.3259 128.618 46.0547 128.211 46.8196C127.428 48.3014 126.708 49.8012 125.941 51.289C125.747 51.6389 125.525 51.9789 125.275 52.3069C124.859 52.9699 124.594 53.6831 124.492 54.4151C124.492 54.5717 124.203 54.6862 124.093 54.8428C123.983 54.9994 123.827 55.1921 124.281 55.2042C124.336 55.2042 124.445 55.4752 124.43 55.4873C123.287 55.9993 123.06 56.9449 122.582 57.7701C122.159 58.499 121.556 59.1676 121.228 59.9145C120.659 60.9385 120.247 62.0098 119.999 63.1068C119.947 63.4356 119.868 63.7615 119.764 64.0826C119.764 64.1308 119.623 64.167 119.552 64.2091C119.505 64.1489 119.411 64.0947 119.411 64.0405C119.411 63.8598 119.458 63.6851 119.466 63.5044C119.576 60.9746 119.333 58.4267 119.811 55.9089C119.87 55.3925 119.705 54.8755 119.341 54.4392C119.122 54.0959 118.895 54.0176 118.441 54.3308C117.74 54.7969 116.997 55.2237 116.217 55.6078C115.661 55.9029 115.552 55.8125 115.09 55.3548C114.676 54.9957 114.22 54.667 113.728 54.373C113.649 54.3248 113.485 54.373 113.368 54.3308C113.404 54.4175 113.448 54.5021 113.501 54.5838C113.548 54.65 113.657 54.6982 113.689 54.7645C113.717 54.8735 113.731 54.9846 113.728 55.0958C113.576 55.0974 113.425 55.0791 113.281 55.0416C112.376 54.6322 111.684 53.9933 111.324 53.2345C111.05 52.6864 110.831 52.1262 110.541 51.5721C110.46 51.4358 110.361 51.3065 110.244 51.1866C110.105 51.2806 109.979 51.3855 109.868 51.4998C108.741 52.7948 107.668 54.114 106.494 55.3849C105.57 56.3848 104.537 57.3244 103.511 58.2701C103.331 58.4387 102.971 58.4869 102.728 58.6074C102.59 58.6546 102.467 58.7245 102.368 58.8122C100.732 60.6192 99.088 62.4262 97.4675 64.2332C97.0526 64.697 96.6846 65.197 96.301 65.6547C95.9174 66.1125 95.6825 66.6245 94.7353 66.6787C94.4534 66.6787 94.2499 67.2449 93.9524 67.516C93.6549 67.787 93.5766 68.4375 92.8251 68.5158L92.8955 68.5219Z" fill="white"/>
<path d="M231.8 13.5405C231.706 13.926 231.62 14.2513 231.566 14.5826C231.561 14.6807 231.58 14.7786 231.62 14.8717C231.714 14.7874 231.855 14.7091 231.894 14.6127C232.341 13.5225 232.763 12.4262 233.225 11.336C233.359 11.1238 233.519 10.9221 233.703 10.7336L234.4 9.76989C234.439 9.71568 234.501 9.66147 234.548 9.60726C234.548 9.67352 234.65 9.73978 234.642 9.80001C234.533 10.6011 234.431 11.4083 234.282 12.2094C234.118 13.137 233.859 14.0525 233.75 14.9801C233.609 16.1185 233.593 17.263 233.484 18.4014C233.374 19.5398 233.202 20.7565 233.076 21.9311C233.022 22.425 233.03 22.9189 232.983 23.4128C232.983 23.708 232.865 24.0152 232.834 24.2922C232.77 24.6918 232.741 25.0943 232.748 25.4969C232.748 25.8523 232.286 26.0993 232.513 26.5329C232.602 26.9142 232.547 27.307 232.356 27.6653C232.074 28.4905 231.714 29.2977 231.409 30.1108C231.299 30.412 231.26 30.7132 231.19 31.0324C231.16 31.5596 231.022 32.0799 230.783 32.5744C230.164 33.3996 229.546 34.1947 229.64 35.1765C229.601 35.8078 229.382 36.4248 228.998 36.9835C228.528 38.0135 227.784 39.0013 227.581 40.0554C227.11 41.869 226.499 43.6591 225.749 45.4162C225.211 46.6566 224.554 47.8646 223.784 49.0302C223.095 50.2349 222.367 51.4396 221.662 52.6443C221.545 52.849 221.537 53.096 221.396 53.2948C221.217 53.5079 221.015 53.7093 220.793 53.8971C220.723 53.9634 220.645 54.0236 220.582 54.0899C220 54.6816 219.543 55.3402 219.227 56.0414C218.82 57.1738 218.202 58.2641 217.662 59.3663C217.586 59.4723 217.488 59.5679 217.372 59.6494C217.372 59.5229 217.372 59.3904 217.411 59.2579C217.474 58.9326 217.552 58.6074 217.615 58.2821C217.616 58.196 217.597 58.1104 217.56 58.0291C217.458 58.0894 217.309 58.1315 217.262 58.2098C216.683 59.288 216.12 60.3662 215.54 61.4444C215.313 61.86 215.023 62.2575 214.757 62.6491C214.687 62.8475 214.629 63.0485 214.585 63.2514C214.507 63.4381 214.1 63.4201 214.272 63.8537C214.444 64.2874 213.927 64.7512 213.708 65.203C213.708 65.2451 213.614 65.2632 213.567 65.2933C213.513 65.2443 213.468 65.1896 213.434 65.1307C213.121 64.2332 213.121 64.2332 213.356 63.6791C213.591 63.1249 213.763 62.7334 213.951 62.2636C214.093 61.9613 214.206 61.6512 214.288 61.336C214.444 60.6132 214.585 59.8783 214.663 59.1495C214.663 58.9266 214.483 58.6977 214.421 58.4628C214.201 57.6316 214.679 56.8727 214.883 56.0956C215.141 55.1856 215.463 54.2869 215.845 53.4032C216.198 52.5419 216.683 51.7106 217.012 50.8493C217.262 50.1686 217.333 49.4458 217.536 48.7532C217.857 47.6689 218.186 46.5908 218.586 45.5246C218.985 44.4585 219.431 43.3381 219.971 42.278C221.333 39.5976 222.069 36.7606 223.51 34.0983C223.693 33.637 223.832 33.1659 223.925 32.6888C224.061 31.8978 224.376 31.1313 224.856 30.424C225.03 30.1508 225.147 29.858 225.201 29.5567C225.835 27.7075 226.438 25.8523 227.103 24.0091C227.518 22.8406 228.043 21.6962 228.489 20.5337C228.935 19.3711 229.389 18.046 229.843 16.7992C229.89 16.6546 229.914 16.4498 230.047 16.3836C231.088 15.8535 230.83 14.9259 231.198 14.2031C231.294 13.9868 231.37 13.7654 231.425 13.5405C231.472 13.4321 231.55 13.3297 231.613 13.2213L231.8 13.5405Z" fill="white"/>
<path d="M148.307 40.8987C147.853 40.7842 147.368 40.7421 146.898 40.6577C146.851 40.6577 146.804 40.5493 146.804 40.5312C147.454 40.1879 146.734 40.1217 146.593 40.0554C145.888 39.7422 145.105 39.5253 144.432 39.176C144.233 39.0392 143.975 38.9637 143.708 38.9637C143.441 38.9637 143.183 39.0392 142.984 39.176C142.441 39.4767 141.918 39.7983 141.418 40.1397C139.226 41.7359 137.018 43.3622 134.826 44.9223C133.824 45.633 132.752 46.2836 131.82 47.0485C130.888 47.8135 130.356 48.5484 129.565 49.2591C127.927 50.5883 126.729 52.2021 126.074 53.9634C125.964 54.2947 125.987 54.4513 126.442 54.2826C126.763 54.1682 126.997 54.1862 127.052 54.4392C127.256 55.3006 128.062 55.8547 128.751 56.4751C129.192 56.9493 129.817 57.3037 130.536 57.487C132.792 57.9331 135.105 58.1836 137.433 58.2339C137.668 58.2339 138.02 58.1617 138.099 58.2339C138.205 58.4065 138.233 58.6019 138.177 58.7881C137.958 59.8422 137.723 60.8963 137.504 61.9504C137.504 62.0226 137.504 62.1552 137.574 62.1792C137.77 62.2588 137.917 62.3942 137.984 62.5564C138.051 62.7185 138.034 62.8945 137.934 63.0466C137.566 64.0164 137.151 64.962 136.713 65.9198C136.408 66.6486 136.11 67.3774 135.813 68.1123C135.793 68.1939 135.793 68.2776 135.813 68.3592C135.883 68.311 135.977 68.2749 136.016 68.2147C136.055 68.1544 136.157 67.9316 136.227 67.787C136.674 66.8895 137.096 65.98 137.574 65.0885C137.956 64.448 138.487 63.8663 139.14 63.3719C139.92 62.5916 140.599 61.7544 141.167 60.8722C141.23 60.7999 141.363 60.7638 141.457 60.7095C141.503 60.7738 141.537 60.8428 141.559 60.9143C141.559 61.0408 141.559 61.1733 141.559 61.2938C141.603 61.3818 141.667 61.4633 141.747 61.5347C141.785 61.4679 141.819 61.3996 141.848 61.33C141.982 60.9384 142.076 60.5349 142.24 60.1253C142.796 58.8182 143.414 57.5232 143.947 56.2101C144.557 54.7344 145.137 53.2586 145.653 51.7648C146.262 50.092 147.007 48.4504 147.884 46.8498C148.722 45.3182 149.22 43.6894 149.356 42.0311C149.403 41.1758 149.364 41.1577 148.307 40.8987ZM142.78 45.1692C142.678 45.6632 142.53 46.1511 142.373 46.645C142.091 47.5786 141.817 48.5122 141.488 49.4398C141.36 49.6638 141.18 49.868 140.956 50.0422C140.854 50.1445 140.674 50.2168 140.627 50.3252C140.056 51.6022 138.553 51.9757 137.159 52.4214C136.44 52.6113 135.705 52.7642 134.959 52.8792V52.7768C134.004 52.7286 133.041 52.7105 132.086 52.6141C131.82 52.6141 131.546 52.3611 131.358 52.1744C131.358 52.1383 131.585 51.8492 131.765 51.7407C134.434 50.1656 136.971 48.4616 139.359 46.639C140.311 46.0253 141.309 45.4561 142.35 44.9343C142.921 44.5669 142.827 44.9645 142.78 45.1692Z" fill="white"/>
<path d="M206.381 56.0535C206.168 56.1523 205.974 56.2718 205.801 56.4089C205.411 56.7717 205.094 57.1778 204.862 57.6135C204.588 58.3243 203.977 58.8965 203.664 59.5772C203.562 59.806 203.586 60.0952 203.132 60.1253C203.077 60.1253 202.991 60.2457 202.999 60.3C203.047 60.5744 202.999 60.8538 202.862 61.1098C202.724 61.3658 202.501 61.5892 202.216 61.7576C202.419 62.1491 202.004 62.3961 201.824 62.6973C201.644 62.9984 201.472 63.3779 201.253 63.7032C201.095 63.9137 200.917 64.115 200.72 64.3055C200.658 64.3717 200.564 64.444 200.572 64.5043C200.619 64.9861 200.713 65.468 199.914 65.6668C199.844 65.6668 199.789 65.7872 199.757 65.8535C199.374 66.7751 198.599 67.5702 198.309 68.5279C198.172 68.8661 197.991 69.193 197.769 69.5037C197.722 69.576 197.573 69.6121 197.471 69.6603C197.409 69.5579 197.276 69.4434 197.307 69.3531C197.368 69.0255 197.492 68.7067 197.675 68.4074C198.082 67.8051 197.902 67.0702 198.607 66.6004C198.654 66.6004 198.607 66.4257 198.552 66.3414C198.434 66.1185 198.505 66.0463 198.795 66.1487C198.967 66.2149 199.123 66.3053 198.959 66.0583C198.863 65.9538 198.784 65.8405 198.724 65.721C198.638 65.4319 198.333 65.1187 198.982 64.9199C199.067 64.8891 199.138 64.8414 199.19 64.7818C199.242 64.7222 199.272 64.6529 199.277 64.5813C199.282 64.5097 199.261 64.4384 199.218 64.375C199.174 64.3116 199.109 64.2584 199.029 64.2212C198.661 64.0043 198.732 63.7875 198.818 63.4863C199.147 62.4503 199.343 61.3902 199.718 60.3722C200.094 59.3543 200.65 58.3665 201.128 57.3605C202.161 55.1801 203.218 53.0056 204.22 50.8192C204.815 49.5181 205.347 48.205 205.887 46.898C206.709 44.8801 207.492 42.8563 208.33 40.8445C208.533 40.3445 208.925 39.8928 209.16 39.3989C209.457 38.7965 209.684 38.14 209.943 37.5015C210.647 35.6945 211.352 33.8393 212.017 31.9961C212.103 31.7612 212.518 31.3938 211.837 31.2312C211.837 31.2312 211.837 31.0384 211.837 30.9541C212.011 30.4348 212.309 29.9448 212.714 29.5085C213.56 28.8459 213.614 27.9665 214.076 27.2015C214.593 26.3221 214.977 25.3945 215.384 24.485C215.556 24.0874 215.587 24.485 215.65 24.485C215.786 24.4567 215.907 24.3955 215.994 24.3103C216.19 24.1055 216.347 23.8827 216.534 23.6718C216.628 23.5694 216.801 23.4008 216.871 23.4128C217.654 23.6056 217.998 23.0334 218.586 22.931C219 22.8587 219.274 22.8165 219.149 22.3768C219.087 22.1479 219.204 21.8166 219.83 21.8407C220.057 21.8407 220.339 21.3287 220.543 21.0336C220.684 20.8348 220.723 20.5999 220.848 20.3951C220.887 20.3228 221.044 20.2987 221.153 20.2506C221.2 20.353 221.318 20.4614 221.294 20.5457C221.075 21.148 220.872 21.7805 220.59 22.3527C220.433 22.672 220.237 22.9069 220.872 23.0394C221.005 23.0394 221.13 23.3707 221.114 23.5393C220.948 24.7238 220.502 25.875 219.799 26.9365C219.666 27.1882 219.625 27.4633 219.682 27.7316C219.964 28.8669 219.823 30.0406 219.274 31.1167C218.732 32.319 218.334 33.557 218.085 34.8151C217.932 35.5994 217.598 36.3563 217.098 37.0497C216.842 37.4549 216.648 37.8814 216.519 38.3207C216.08 39.3145 215.697 40.3265 215.141 41.2782C214.758 41.7 214.492 42.1776 214.358 42.6816C214.358 42.7659 214.045 42.8322 213.888 42.9165C213.825 42.9689 213.767 43.0253 213.716 43.0852C214.389 43.4044 213.716 43.5068 213.583 43.7417C213.273 44.2256 213.011 44.727 212.8 45.2415C212.088 46.7715 211.399 48.3074 210.702 49.8374C210.637 49.9826 210.587 50.1317 210.553 50.2831C210.373 51.0119 210.217 51.7468 210.037 52.4756C210.03 52.6215 209.955 52.7606 209.825 52.8671C209.442 53.09 209.003 53.2707 209.34 53.7345C209.34 53.7706 209.285 53.8911 209.215 53.9272C208.314 54.3609 208.072 55.1319 207.5 55.7342C207.236 55.9299 206.932 56.0907 206.6 56.2101L206.381 56.0535Z" fill="white"/>
<path d="M246.346 11.0348C246.174 11.6371 245.994 12.125 245.884 12.6491C245.853 12.9678 245.853 13.288 245.884 13.6068C245.884 13.7032 245.884 13.7995 245.837 13.8959L245.642 13.6911C245.595 13.7212 245.516 13.7513 245.508 13.7875C245.508 14.179 245.164 14.5404 245.43 14.9922C245.494 15.211 245.472 15.4394 245.368 15.6487C245.054 16.8233 244.585 17.9918 244.42 19.1784C244.225 20.618 244.326 22.0817 244.217 23.5333C244.092 25.2319 244.217 26.9425 243.786 28.623C243.274 30.462 242.513 32.2547 241.516 33.9718C241.438 34.1137 241.341 34.249 241.226 34.3754C241.171 34.4356 241.023 34.5139 240.944 34.5019C240.451 34.4175 240.428 34.4055 240.318 34.7669C239.903 36.1703 239.59 37.5979 239.089 38.9832C238.588 40.3686 238.424 41.8082 237.32 43.0249C237.124 43.2875 236.991 43.5752 236.928 43.8742C236.6 44.7294 236.107 45.5417 235.464 46.2836C234.384 47.6268 233.35 48.9941 232.333 50.3614C231.931 50.8618 231.571 51.3808 231.252 51.9154C230.95 52.3327 230.484 52.6658 229.922 52.8671C229.771 52.9075 229.611 52.9259 229.452 52.9213C229.412 52.8096 229.399 52.6933 229.413 52.578C229.718 51.7709 230.07 50.9758 230.352 50.1686C230.587 49.4699 230.744 48.7592 230.916 48.0484C230.916 47.952 230.822 47.8376 230.767 47.7352C230.704 47.8316 230.65 47.928 230.587 48.0303C230.36 48.4098 230.141 48.7893 229.898 49.1627C229.843 49.235 229.687 49.2651 229.585 49.3133C229.569 49.2294 229.569 49.1442 229.585 49.0603C230.086 47.8557 230.603 46.651 231.096 45.4463C231.229 45.1271 231.706 44.844 231.151 44.4464C230.939 44.3019 231.683 43.2418 231.996 43.1394C232.309 43.037 232.325 43.055 232.051 42.8201C232 42.7602 231.968 42.6923 231.956 42.6214C231.944 42.5506 231.952 42.4786 231.98 42.4105C232.395 41.3986 232.857 40.3927 233.264 39.3989C233.397 39.0676 233.358 38.7001 233.491 38.3749C234.141 36.7727 234.838 35.1885 235.488 33.5562C235.934 32.4599 236.341 31.3577 236.733 30.2494C236.804 30.0468 236.77 29.8308 236.639 29.647C236.409 29.4407 236.282 29.1779 236.282 28.9061C236.282 28.6344 236.409 28.3716 236.639 28.1653C237.835 26.668 238.742 25.0448 239.332 23.3466C239.629 22.6479 240.115 22.0275 240.373 21.3227C240.85 19.9132 241.939 18.6965 242.557 17.3352C243.019 16.3414 243.34 15.2993 243.716 14.2874C243.74 14.2338 243.779 14.185 243.83 14.1444C243.882 14.1038 243.944 14.0724 244.013 14.0525C244.686 13.9381 244.796 13.8839 244.483 13.5526C244.17 13.2213 244.295 13.1189 244.686 12.9502C245.078 12.7816 245.094 12.5286 245.289 12.3118C244.718 12.0106 245.336 11.854 245.446 11.6552C245.611 11.4203 245.803 11.1967 246.017 10.9866C246.096 10.8902 246.19 10.7999 246.276 10.7095L246.346 11.0348Z" fill="white"/>
<path d="M180.702 18.4435C181.18 18.2869 181.65 18.1183 182.127 17.9737C183.27 17.6284 184.416 17.2931 185.564 16.9678C185.712 16.9598 185.86 16.9721 186.002 17.004C185.905 17.0891 185.792 17.1623 185.666 17.2208C184.452 17.6183 183.223 17.9858 182.018 18.4255C181.816 18.5115 181.591 18.5591 181.361 18.5644C181.131 18.5696 180.902 18.5323 180.695 18.4556L180.702 18.4435Z" fill="white"/>
<path d="M196.446 72.0636C196.457 71.7987 196.509 71.5357 196.603 71.2806C196.649 71.1902 197.119 71.2806 197.229 71.1661C197.453 70.9192 197.637 70.6522 197.777 70.371C197.949 70.094 198.09 69.8109 198.262 69.5338C198.262 69.4796 198.395 69.4434 198.466 69.4013C198.484 69.4688 198.484 69.5385 198.466 69.6061C198.074 70.3289 197.683 71.0517 197.26 71.7624C197.17 71.8386 197.048 71.8877 196.916 71.901C196.422 71.401 196.603 72.0696 196.407 72.0696L196.446 72.0636Z" fill="white"/>
<path d="M92.872 68.5098C92.837 68.7606 92.7634 69.0072 92.6528 69.2447C92.2614 69.847 91.8152 70.4493 91.3767 71.0517C91.3767 71.0999 91.228 71.124 91.1497 71.1601C91.0714 71.1962 91.0401 71.0276 91.0636 70.9914C91.5855 70.1883 92.1074 69.4053 92.6293 68.6423C92.6293 68.5881 92.8016 68.5821 92.8877 68.552L92.872 68.5098Z" fill="white"/>
<path d="M196.446 72.0636C196.681 72.1178 196.892 72.1539 196.72 72.425C196.305 73.0816 195.937 73.7501 195.522 74.4067C195.475 74.485 195.342 74.5211 195.24 74.5814C195.22 74.4896 195.22 74.396 195.24 74.3043C195.64 73.5574 196.047 72.8105 196.446 72.0636Z" fill="white"/>
<path d="M213.184 65.1849C212.918 65.7872 212.667 66.3113 212.401 66.8534C212.401 66.8955 212.244 66.9076 212.166 66.9377C212.127 66.8534 212.041 66.757 212.072 66.6908C212.299 66.1607 212.542 65.6367 212.792 65.1126C212.792 65.0524 212.902 65.0102 212.957 64.962L213.184 65.1849Z" fill="white"/>
</svg>
