<svg width="129" height="163" viewBox="0 0 129 163" fill="none" xmlns="http://www.w3.org/2000/svg">
<g clip-path="url(#clip0)">
<path d="M121.538 18.4571L115.937 18.9285C113.98 19.0951 112.021 19.2654 110.059 19.4392C108.588 19.5749 107.117 19.7106 105.649 19.8678C103.815 20.0642 101.978 20.2678 100.148 20.4892C97.8274 20.7642 95.5104 21.0571 93.1898 21.3463C91.0576 21.6106 88.9254 21.8606 86.7931 22.1499C83.872 22.5463 80.9544 22.9749 78.0368 23.3821C77.3758 23.4749 76.7112 23.5285 75.9685 23.6106C75.9964 23.4544 76.043 23.3021 76.1071 23.1571C77.724 20.7928 79.3268 18.4178 80.9686 16.0678C82.6779 13.6178 84.4406 11.2071 86.1428 8.75348C86.9886 7.5392 87.7313 6.25348 88.5593 5.03205C89.0071 4.36777 89.533 3.75348 90.0163 3.11777C90.7271 2.1892 91.2815 1.13205 92.2943 0.467766C92.3796 0.410624 92.3831 0.228481 92.4542 -0.00366211C91.8039 0.157052 91.2673 0.267766 90.7484 0.424909C89.6325 0.757052 88.3959 0.910624 87.4435 1.49634C85.8336 2.51062 84.0852 3.1642 82.3901 3.95348C78.6267 5.70348 74.8135 7.34634 71.0715 9.13205C69.1027 10.0749 67.2192 11.2035 65.318 12.2856C62.372 13.9606 59.4295 15.6499 56.5154 17.3821C55.5773 17.9178 54.7043 18.5615 53.9141 19.2999C51.2666 21.8856 48.7328 24.5856 45.8507 26.9321C43.8678 28.5428 41.9985 30.2963 40.0901 31.9999C37.2892 34.5737 34.6974 37.3683 32.3395 40.3571C32.2506 40.4678 32.2613 40.6571 32.1725 41.0321L35.4597 38.2428L35.6089 38.4285C32.2364 41.3249 29.2868 44.7285 25.3031 46.9035C28.5868 46.2642 31.4546 44.7213 34.2834 42.8856C33.8005 45.0239 33.0154 47.0817 31.9521 48.9963C31.284 50.1428 30.6408 51.3071 30.0509 52.4963C29.1518 54.2821 28.3238 56.1249 27.4318 57.9285C27.2825 58.1618 27.1988 58.4314 27.1894 58.7086C27.18 58.9859 27.2453 59.2605 27.3785 59.5035L31.1419 66.1678C30.5911 66.0106 30.0758 65.8928 29.5818 65.7178C28.3096 65.2678 27.0658 64.7285 25.7793 64.3428C24.2868 63.8963 22.7587 63.5713 21.2661 63.1999C21.9768 62.3785 23.242 62.1285 23.8639 61.0571C23.0359 60.6142 22.8688 60.6463 21.7743 60.9285C20.2272 61.3285 18.6719 61.6916 17.1083 62.0178C16.1061 62.2285 15.9071 62.4713 16.1381 63.4785C16.1807 63.6571 16.2483 63.8356 16.3016 64.0106C17.0123 66.4428 17.7479 68.8678 18.4551 71.3035C18.6719 72.0499 18.9491 72.6856 20.0543 72.6071L19.2725 72.9035C19.6634 72.9713 19.8979 73.0213 20.136 73.0535C20.2568 73.0535 20.3812 73.0535 20.4914 73.0535C22.0408 73.1928 23.6649 73.0749 24.8731 74.3749C24.9478 74.4535 25.1006 74.4571 25.2285 74.4999L26.8383 75.0821C27.0488 75.2036 27.2783 75.2881 27.5171 75.332C28.7076 75.3142 29.6493 76.0249 30.7545 76.3249C31.1099 76.4142 31.4653 76.5713 31.4191 77.0392C30.4418 77.3678 29.8483 76.4392 28.967 76.3892C28.0149 76.3664 27.0775 76.1476 26.2129 75.7463C25.3671 75.3106 24.4822 75.1713 23.6151 74.9071C22.748 74.6428 21.8667 74.2928 20.9925 73.982C21.4367 74.5856 20.662 74.5392 20.6087 74.8499L21.4331 75.4356L18.48 77.632C19.0187 78.021 19.5337 78.442 20.0223 78.8928C20.4512 79.3896 20.85 79.912 21.2164 80.4571L20.5269 80.8535C21.6819 81.2106 22.6592 81.7356 23.6435 81.757C24.9478 81.7821 26.021 82.3821 27.2364 82.7142C26.9552 82.9418 26.6059 83.0677 26.2449 83.0713C24.468 82.8606 22.6911 82.6178 20.9143 82.3571C20.5249 82.2743 20.1441 82.1547 19.7771 81.9999C19.3578 81.8499 18.9491 81.6428 18.5191 81.5428C17.9683 81.4035 17.7302 81.607 17.7088 82.207C17.6875 82.8071 17.7088 83.507 17.7088 84.1571C17.7063 84.3971 17.6479 84.6331 17.5382 84.8463C17.3179 85.2035 17.0159 85.5249 16.7849 85.882C15.2781 88.2499 13.6931 90.5749 12.7443 93.2571C12.626 93.5059 12.462 93.73 12.261 93.9178C11.5502 94.7178 10.4521 95.1213 10.047 96.2178C10.015 96.3035 9.84445 96.3464 9.73073 96.3892C8.74635 96.7463 8.01073 97.4249 7.24313 98.0999C6.17701 99.0321 4.99363 99.7285 3.49751 99.6535C3.06595 99.6344 2.63358 99.6476 2.20396 99.6928C1.49321 99.7571 0.746931 99.8571 0.0219727 99.9428C0.224395 100.15 0.482423 100.294 0.7647 100.357C2.31219 100.784 3.91637 100.966 5.51958 100.896C6.19478 100.861 6.8771 100.828 7.44924 101.328C7.52212 101.384 7.60677 101.423 7.69671 101.441C7.78664 101.459 7.87948 101.456 7.96809 101.432C8.52958 101.186 8.79966 101.493 9.0342 101.946L8.1209 102.632C8.1209 102.707 8.14577 102.782 8.15644 102.857C8.62921 102.91 9.10661 102.904 9.57792 102.839C10.939 102.482 12.2752 102.043 13.6327 101.689C14.514 101.461 15.4096 101.332 16.4046 101.132C16.3229 101.489 16.2696 101.761 16.2056 102.021C15.9675 102.946 15.9817 103.021 16.7955 103.521C17.3961 103.896 18.0073 104.264 18.6364 104.593C24.7736 107.718 30.8007 111.021 36.4298 115.028C36.6469 115.162 36.8725 115.281 37.105 115.386C37.0484 115.262 36.9831 115.143 36.9096 115.028C34.8911 112.778 32.901 110.5 30.8469 108.282C28.7929 106.064 26.6962 103.928 24.635 101.764C24.2479 101.323 23.8916 100.855 23.5689 100.364C22.2149 98.4749 21.5966 96.2571 20.8432 94.1106C20.431 92.9392 19.8802 91.7678 19.9868 90.4571C19.9912 90.332 19.9604 90.2082 19.8979 90.0999C19.1374 88.6928 19.4359 87.1856 19.4537 85.6999C19.8091 86.3285 20.0863 86.9785 20.4132 87.6035C20.7402 88.2285 20.861 88.9963 21.6499 89.4071L21.4083 88.007L22.119 87.6106C22.9435 88.0749 23.6116 88.4821 24.3045 88.8392C25.5625 89.4856 26.7921 90.1749 28.1035 90.7178C29.9065 91.4249 31.6186 92.347 33.203 93.4642C35.2903 94.9975 37.3739 96.5285 39.454 98.0571C39.8094 98.3106 40.1292 98.7178 40.4775 98.3856C42.3432 101.907 44.1947 105.396 46.0355 108.889C46.4797 109.739 46.8955 110.603 47.3184 111.461C47.9297 112.703 48.516 113.961 49.145 115.193C49.3938 115.678 49.7278 116.118 50.0832 116.678L49.0668 116.575C48.8619 116.16 48.5865 115.784 48.253 115.464C47.7058 114.886 47.1869 114.275 46.5935 113.75C46.3909 113.571 46.0035 113.607 45.6979 113.546L45.6126 113.732C44.5714 112.518 43.5515 111.282 42.4782 110.096C41.5798 109.046 40.5488 108.118 39.4114 107.336C37.7127 106.228 36.1562 104.896 34.5463 103.646C34.2828 103.437 34.0443 103.197 33.8356 102.932C31.6868 100.239 29.5415 97.5416 27.3998 94.8392C27.2816 94.7113 27.1545 94.5919 27.0196 94.4821C26.992 94.5581 26.9809 94.6392 26.987 94.7198C26.9931 94.8005 27.0164 94.879 27.0551 94.9499C27.7659 96.2142 28.4091 97.5178 29.1873 98.7285C31.0174 101.51 32.6789 104.4 34.1625 107.382C34.5441 108.124 35.004 108.822 35.5343 109.464C37.8229 112.386 40.1541 115.286 42.4498 118.186C42.9864 118.864 43.5159 119.55 44.1059 120.178C45.4172 121.571 46.7534 122.939 48.0967 124.3C48.7754 124.993 49.3618 125.807 50.4386 126.278C50.4386 125.05 49.4044 124.225 49.5537 123.082C50.3995 123.639 51.2382 124.153 51.4301 125.243C51.5047 125.668 51.6397 126.086 51.7037 126.514C51.7424 126.946 51.8811 127.362 52.1089 127.73C52.3366 128.098 52.647 128.407 53.015 128.632C53.8786 129.164 54.6853 129.796 55.524 130.375C57.578 131.803 59.6356 133.232 61.7003 134.628C62.5994 135.243 63.5269 135.818 64.4616 136.414C64.593 136.125 64.6606 135.982 64.7387 135.814C65.4495 136.625 65.8688 137.636 66.9705 138.057C67.0096 137.761 67.0309 137.578 67.0487 137.443C67.5678 138.127 68.1317 138.776 68.7367 139.386C69.3936 139.915 70.0845 140.401 70.8049 140.839L71.6116 140.303C72.6529 141.928 73.8043 143.371 75.6735 144.089C75.2897 143.453 74.9095 142.814 74.4511 142.046C74.7887 142.25 75.0019 142.368 75.208 142.496C80.7163 145.911 86.2601 149.282 91.7221 152.761C96.9029 156.121 102.305 159.123 107.892 161.746C108.869 162.196 109.875 162.586 110.866 163.003C110.866 162.961 110.902 162.918 110.923 162.875L104.228 153.803L103.215 155C103.175 154.654 103.111 154.312 103.023 153.975C102.847 153.462 102.621 152.968 102.348 152.5C102.259 152.361 101.857 152.389 101.601 152.411C101.498 152.411 101.41 152.611 101.314 152.718C101.484 152.861 101.651 153.007 101.829 153.136C101.943 153.218 102.078 153.275 102.255 153.375L101.577 154.286C101.155 153.78 100.772 153.243 100.432 152.678C100.077 151.993 100.372 151.561 101.125 151.425L101.815 151.3C101.63 150.086 101.417 149.714 100.834 149.539C100.77 150.743 100.77 150.743 100.084 151.168C99.9774 150.932 99.8601 150.653 99.7287 150.378L99.4906 150.543L99.2951 151.1C98.8473 150.921 98.3285 150.643 98.4706 150.146C98.6625 149.471 98.3143 149.075 98.0584 148.568L97.4187 149.032C96.708 148.414 96.1927 147.768 96.3953 146.771L95.9511 147.321C95.8122 147.03 95.6481 146.752 95.4606 146.489C94.4656 145.314 93.4457 144.161 92.44 142.993C91.946 142.418 91.3739 141.882 91.5516 140.789C90.8408 141.275 90.6418 140.811 90.3788 140.493C88.8934 138.707 87.3653 136.964 85.9544 135.136C84.3162 132.993 82.3083 131.136 81.1498 128.636C81.0705 128.508 80.9669 128.398 80.8449 128.311C80.7229 128.224 80.585 128.162 80.4391 128.128C80.2404 128.098 80.0591 127.997 79.9286 127.844C79.798 127.69 79.7269 127.495 79.7283 127.293C79.7057 126.832 79.5292 126.393 79.2273 126.046C79.025 125.791 78.9185 125.472 78.9262 125.146C78.934 124.819 79.0557 124.506 79.2699 124.261L80.1939 124.975C80.1977 124.639 80.0998 124.31 79.9131 124.032C79.4422 123.383 79.0079 122.708 78.6125 122.011C78.0261 120.793 77.525 119.536 77.0453 118.268C76.7859 117.589 76.7254 116.839 76.4376 116.161C75.7944 114.653 75.0445 113.193 74.38 111.693C74.1419 111.161 73.7972 110.621 73.9926 109.943C74.373 110.323 74.6994 110.755 74.9628 111.225C75.2649 111.786 75.439 112.421 75.7695 112.964C76.3097 113.861 76.9244 114.718 77.525 115.582C78.8257 117.457 80.1121 119.343 81.459 121.182C82.088 122.046 82.8982 122.778 83.5415 123.636C84.7 125.193 85.7981 126.796 86.9175 128.389C87.1031 128.634 87.2549 128.903 87.3688 129.189C87.5359 129.664 87.6425 130.161 87.7242 130.514C88.0796 130.557 88.2999 130.514 88.3887 130.614C88.6655 130.947 88.923 131.295 89.1599 131.657C89.6432 132.328 90.0519 133.086 90.6382 133.646C91.0424 134.054 91.3593 134.54 91.5693 135.075C91.946 135.911 92.2125 136.861 93.1649 137.378C93.2289 137.086 93.2787 136.868 93.3604 136.478C93.8899 137.825 93.7477 139.246 94.8174 140.2C95.713 139.621 94.7499 139.225 94.6575 138.668C95.1799 138.828 95.6525 138.961 95.9475 138.246C96.4059 138.793 96.7648 139.246 97.1451 139.675C97.8239 140.432 98.5204 141.178 99.2098 141.925C99.8992 142.671 100.493 143.332 101.154 144.018C101.483 144.283 101.738 144.63 101.893 145.025C102.125 145.554 102.441 146.043 102.827 146.471C102.884 146.542 102.954 146.6 103.035 146.642C103.115 146.683 103.203 146.706 103.293 146.711C103.947 146.653 104.235 146.778 103.975 147.536C103.801 148.039 104.686 149.293 105.205 149.289C106.104 149.289 106.523 149.836 106.982 150.539C106.246 151.211 106.317 151.725 107.163 152.139C107.276 152.192 107.396 152.231 107.518 152.253L108.94 152.511C108.787 152.182 108.627 151.828 108.457 151.479C108.101 150.729 107.49 150.05 108.073 149.036C107.188 149.107 107.007 148.528 106.783 147.964C106.688 147.678 106.559 147.405 106.399 147.15C106.012 146.607 105.646 146.078 106.061 145.257C105.141 145.525 105.169 144.796 104.995 144.393C104.221 142.75 103.517 141.071 102.764 139.418C102.291 138.378 101.754 137.368 101.285 136.325C100.422 134.411 99.5865 132.486 98.7478 130.561C98.2823 129.489 97.8381 128.418 97.3725 127.346L106.74 139.511L106.968 139.286C106.093 137.214 105.217 135.142 104.338 133.068C105.134 134.3 105.806 135.586 106.47 136.868C106.801 137.493 107.181 138.096 107.469 138.732C108.24 140.346 108.919 142.011 109.761 143.593C111.065 146.043 112.465 148.443 113.833 150.861C114.189 151.511 114.597 152.139 114.981 152.775C115.102 152.625 115.123 152.528 115.091 152.457C114.736 151.675 114.324 150.911 114.004 150.114C113.855 149.736 113.681 149.325 113.972 148.871C114.075 148.707 113.972 148.332 113.851 148.114C113.514 147.5 113.069 146.943 112.76 146.328C111.504 143.809 110.27 141.283 109.057 138.75C107.792 136.103 106.538 133.446 105.319 130.775C104.544 129.075 103.52 127.511 102.746 125.811C102.667 125.705 102.566 125.619 102.449 125.557C102.333 125.495 102.205 125.46 102.074 125.453C101.008 125.382 101.008 125.4 100.798 124.382C100.752 124.143 100.72 123.896 100.663 123.668C100.336 122.289 100.24 120.811 99.6363 119.557C97.632 115.411 95.4038 111.375 93.3391 107.257C91.9744 104.528 90.4144 101.9 89.3482 99.0106C88.538 96.8142 87.7349 94.5928 86.4484 92.6035C86.3688 92.4382 86.2976 92.2689 86.2352 92.0963C86.1294 91.866 86.0107 91.6418 85.8798 91.4249C85.5422 90.8785 84.8492 90.2749 84.9345 89.8071C85.0554 89.1428 84.6609 88.8535 84.501 88.3999C84.4754 88.3437 84.4469 88.2889 84.4157 88.2356C84.0923 87.5749 83.9004 86.8071 83.1115 86.4963C83.0795 86.4963 83.1115 86.3285 83.1115 86.1928C83.8222 86.3463 84.3801 85.3428 85.162 85.9535C85.1939 85.7963 85.2153 85.6892 85.2792 85.3499C85.5778 85.9178 85.9189 86.2963 85.9509 86.6999C86.0291 87.5713 86.3987 88.1071 87.28 88.2892C87.4205 88.3419 87.5541 88.4114 87.678 88.4963L87.0703 88.8213C87.2587 89.0142 87.4612 89.3463 87.5749 89.3178C88.2501 89.1428 88.2608 89.7106 88.6197 90.0821L87.9694 89.982L88.6979 91.2142L89.199 90.957L89.9844 92.0785L91.0718 91.1285C92.408 93.5249 93.467 96.2963 95.7734 98.2463L96.1465 98.0571C96.8182 99.1285 96.8892 100.486 98.0833 101.136C98.1259 101.161 98.1366 101.239 98.1686 101.293C98.8296 102.486 99.4017 103.75 100.731 104.386C100.82 104.428 100.855 104.593 100.901 104.707C101.63 106.475 102.344 108.25 103.076 110.014C103.339 110.646 103.638 111.261 103.918 111.886L104.171 111.803C104.078 111.15 104.011 110.489 103.89 109.839C102.923 104.764 101.577 99.7856 100.198 94.8142C99.5794 92.5821 98.7443 90.3856 98.3498 88.1142C97.8381 85.1713 97.6675 82.1642 97.3548 79.1856C97.3548 79.0928 97.4258 78.9928 97.4934 78.8285C98.4351 81.2928 99.3946 83.6321 100.23 86.0178C101.065 88.4035 101.779 90.8571 102.547 93.2821L102.703 93.2142C101.637 87.0618 100.571 80.9082 99.5048 74.7535L99.6967 74.7142C99.7416 75.0027 99.8216 75.2846 99.9348 75.5535C100.386 76.3535 100.887 77.1249 101.356 77.9142C101.921 78.8678 102.334 79.9535 103.055 80.7713C105.372 83.3821 107.799 85.8928 110.187 88.4392C110.386 88.6499 110.617 88.8285 110.834 89.0213L110.99 88.9035L109.775 86.4035C111.427 88.4463 112.863 90.6142 114.75 92.6035C114.768 92.3642 114.796 92.2928 114.772 92.2463C113.318 89.8392 111.847 87.4428 110.404 85.0285C109.84 84.1431 109.342 83.2167 108.915 82.2571C108.407 80.9999 108.066 79.6713 107.625 78.382C106.559 75.2535 105.308 72.1713 104.427 68.9892C103.297 64.8856 102.447 60.7035 101.498 56.5499C101.457 56.1379 101.457 55.7227 101.498 55.3106C101.875 55.5285 102.142 55.6678 102.394 55.8356C103.99 56.8749 105.557 57.9571 107.181 58.9499C108.68 59.8713 110.205 60.7356 111.353 62.1178C111.406 62.1785 111.506 62.1999 111.669 62.2821C111.616 62.0321 111.58 61.8571 111.531 61.6321L112.728 62.1928L112.856 62.0178C112.611 61.7642 112.366 61.5071 112.117 61.2571C111.467 60.5999 110.791 59.9606 110.162 59.2856C108.123 57.0963 106.705 54.4071 104.558 52.3071C104.438 52.1658 104.332 52.0127 104.242 51.8499L101.282 47.4713C101.168 47.3035 101.076 47.1142 100.972 46.9428C102.007 47.8142 102.909 48.7892 103.887 49.6856C104.864 50.5821 105.688 51.6428 106.854 52.2999C105.077 49.7999 103.218 47.3999 101.431 44.9392C99.6434 42.4785 97.9127 39.9392 96.1252 37.3999C96.6582 37.0928 97.1202 36.8535 97.5467 36.5642C97.735 36.4392 98.0193 36.1678 97.9838 36.0392C97.8168 35.4392 98.261 35.2856 98.595 35.0392C98.9291 34.7928 99.2134 34.6428 99.5048 34.3999C102.483 31.7392 105.82 29.5678 109.132 27.3821C111.701 25.6892 114.462 24.2892 117.078 22.6713C118.766 21.6285 120.632 20.8463 122.053 19.3535C122.138 19.2571 122.334 19.2535 122.48 19.2285L129.001 17.9999C126.513 18.0392 124.025 18.2463 121.538 18.4571ZM69.8774 59.7928C71.6543 58.6606 72.2016 56.7463 72.9158 54.932C73.1468 54.3463 73.456 53.7892 73.822 53.0213C74.185 53.2832 74.5229 53.5785 74.8313 53.9035C75.9969 55.5356 77.2976 57.0749 78.154 58.9035C78.5343 59.7178 78.5449 60.0535 77.82 60.5463C76.5868 61.382 75.3324 62.0606 73.7083 61.7785C72.0843 61.4963 70.3572 61.382 68.6798 61.1749C68.3354 61.106 67.9968 61.0105 67.667 60.8892C68.4229 60.5639 69.1608 60.1979 69.8774 59.7928ZM59.1772 42.7785L59.2944 42.6285C60.6662 43.6499 62.045 44.6571 63.399 45.6999C64.0079 46.1727 64.5838 46.687 65.1225 47.2392C65.2073 47.3525 65.2688 47.4815 65.3036 47.6188C65.3383 47.7561 65.3457 47.899 65.3251 48.0392C65.087 49.5035 64.8738 50.9785 64.5006 52.4071C64.2266 53.6118 64.2266 54.8631 64.5006 56.0678C64.5156 56.3481 64.5025 56.6293 64.4616 56.9071C64.2199 56.6785 64.0493 56.5856 63.9854 56.4428C63.1893 54.632 62.308 52.8713 62.34 50.7856C62.34 50.3606 61.9846 49.8785 61.7039 49.5142C60.8474 48.4428 59.927 47.4392 59.0386 46.4106L59.2127 46.1963C60.7195 46.6463 61.9597 47.6249 63.3101 48.4321C62.2334 46.3071 60.5489 44.6428 59.1772 42.7785ZM30.8683 59.3035C31.5115 61.6035 32.2009 64.0678 32.8903 66.5428C30.4063 64.0785 29.6209 62.0321 30.8683 59.3035ZM36.3125 76.6356C35.6102 76.3668 34.957 75.9831 34.3793 75.4999C34.0231 75.2177 33.625 74.9935 33.1995 74.8356C29.7986 73.5142 26.1916 72.7463 22.9328 71.0321C22.716 70.9178 22.5063 70.7856 22.2647 70.6463L22.549 69.9642L23.8887 70.4463L25.2321 69.0392C25.5874 69.0892 26.0849 69.7213 26.5896 69.0392C26.6322 68.9785 26.9449 69.0392 27.1049 69.1428C27.741 69.4999 28.3522 69.9035 28.9954 70.2463C29.9976 70.7785 31.0033 71.3178 32.0339 71.7821C32.9792 72.2178 33.9849 72.5356 34.923 72.9856C36.0567 73.5321 37.1477 74.1642 38.2102 74.7356C38.2564 73.9321 38.2458 73.9428 37.6097 73.2642C37.3108 72.951 37.0419 72.6102 36.8065 72.2463C36.228 71.3313 35.4843 70.5331 34.6139 69.8928C34.2901 69.5896 34.0059 69.2464 33.7681 68.8713C35.5805 68.5606 36.9664 69.4928 38.4412 70.1678C39.8343 70.7999 41.2842 71.2821 42.7057 71.8535C44.5181 72.5678 46.1848 73.5285 47.5316 75.0071C47.919 75.4321 48.5587 75.6249 49.0775 75.9321C49.4049 76.0865 49.7108 76.2834 49.9873 76.5178C51.9027 78.4856 53.8004 80.4749 55.7692 82.5321C54.4286 84.703 52.8916 86.745 51.1777 88.632C50.7868 88.007 50.435 87.5142 50.1543 86.9856C49.703 86.1428 49.3049 85.2713 48.8749 84.4178C48.313 83.2826 47.5228 82.2769 46.5544 81.4642C45.0192 80.1821 43.5124 78.8606 41.9914 77.5571C41.9077 77.4656 41.8148 77.383 41.7142 77.3106C40.0333 76.3071 38.4412 75.1213 36.4938 74.6535C36.3853 74.6342 36.2738 74.6421 36.1691 74.6763C36.0644 74.7106 35.9696 74.7702 35.8932 74.8499C35.834 75.0916 35.8683 75.3469 35.9892 75.5642C36.1645 75.8526 36.363 76.1261 36.5826 76.382L36.3125 76.6356ZM38.7646 83.8535C39.9089 83.8213 41.0674 83.7499 42.0127 84.7999C41.238 84.7213 40.5379 84.7035 39.8592 84.5749C39.1587 84.4268 38.4768 84.2004 37.8264 83.8999C38.1392 83.882 38.4519 83.8606 38.7646 83.8535ZM65.6378 127.978C63.7224 124.189 61.878 120.364 59.8737 116.621C57.8694 112.878 55.7087 109.211 53.6156 105.507L53.4237 105.582L54.6 109.325L53.6618 108.928C54.337 111.121 55.5026 112.936 56.2773 114.964C56.1992 114.878 56.1174 114.796 56.0463 114.707C55.9701 114.61 55.8989 114.508 55.8331 114.403C54.1487 111.968 52.4606 109.536 50.7939 107.089C50.6275 106.836 50.5419 106.539 50.5487 106.236C50.5772 105.464 50.7051 104.696 50.7513 103.925C50.7868 103.342 50.7868 102.758 50.7513 102.175C50.7158 101.657 50.5594 101.157 51.0036 100.693C51.1493 100.543 51.1067 100.164 51.0676 99.8999C50.9943 99.5033 50.8994 99.1111 50.7833 98.7249L50.0299 99.3963C49.859 99.0102 49.7395 98.6032 49.6745 98.1856C49.6745 97.3071 49.2054 96.7571 48.6297 96.2071C48.36 95.9037 48.1219 95.5734 47.919 95.2213L48.1287 95.0321L49.1948 96.1035L49.3334 95.9999C49.2509 95.7871 49.1486 95.5826 49.0278 95.3892C47.9616 93.9892 46.9915 92.4928 45.769 91.2428C45.0796 90.5285 43.9921 90.1713 43.0433 89.7821C41.5294 89.1749 39.9729 88.6785 38.4235 88.1356C38.2224 88.0738 38.0283 87.9912 37.8442 87.8892C38.8357 87.8428 39.813 87.8356 40.6872 88.3892C40.8116 88.4814 40.9626 88.5303 41.1172 88.5285C42.8372 88.2285 44.3155 89.2428 45.9787 89.3642C46.1272 89.4029 46.2671 89.4695 46.3909 89.5606C47.2402 90.0035 47.8977 90.6999 48.9034 90.9892C49.6141 91.1999 50.2005 92.0821 50.7549 92.7392C51.0665 93.1784 51.3343 93.6473 51.5545 94.1392C51.641 93.6793 51.6956 93.2139 51.7179 92.7463C51.701 92.3263 51.6095 91.9126 51.4478 91.5249C51.3416 91.3378 51.2939 91.1229 51.311 90.9082C51.3282 90.6936 51.4093 90.489 51.5438 90.3213C52.0022 89.7463 52.4322 89.1499 52.8729 88.5606C52.8729 88.5606 52.8729 88.5606 52.8729 88.5392H52.9049C53.214 88.1821 53.5268 87.8249 53.8395 87.4928L56.6505 84.357L56.8282 84.4713C56.8097 84.6179 56.7639 84.7597 56.6931 84.8892C55.8296 85.9249 54.9802 86.9785 54.0563 87.9606C54.0215 87.9998 53.9821 88.0346 53.939 88.0642C53.9028 88.0956 53.8635 88.1231 53.8217 88.1463C53.7684 88.1785 53.708 88.2106 53.6476 88.2392L53.4024 88.3428L53.2105 88.4142L53.0577 88.4749L52.9084 88.5392L52.8871 88.5642C52.891 88.5955 52.8969 88.6265 52.9049 88.6571C52.9049 88.6785 52.9049 88.6999 52.9049 88.7178C52.9154 88.7492 52.9298 88.7791 52.9475 88.8071C52.9505 88.8191 52.9567 88.8302 52.9653 88.8392C52.9799 88.8641 52.9979 88.8869 53.0186 88.9071C53.0371 88.9311 53.0586 88.9527 53.0825 88.9713C53.1072 88.9901 53.1334 89.0068 53.1607 89.0213C53.3138 89.0984 53.4782 89.1502 53.6476 89.1749C54.5076 89.3499 55.3569 89.5642 56.1849 89.7571C56.423 91.2071 55.5773 92.2142 55.3285 93.3713C55.0797 94.5285 54.9376 95.7178 54.3192 96.7071C54.2517 97.1392 54.2162 97.5821 54.1167 98.0071C53.8573 99.1142 53.5623 100.214 53.2993 101.318C53.1323 102.032 53.8288 102.032 54.0385 102.246C54.3192 103.361 54.5005 104.357 54.831 105.303C54.9838 105.736 55.5097 106.018 55.723 106.443C56.3662 107.714 56.9241 109.021 57.5389 110.303C57.9796 111.221 58.4735 112.111 58.9178 113.025C59.9519 115.168 60.9967 117.311 61.9846 119.453C62.4644 120.525 62.7629 121.643 63.2568 122.689C63.8361 123.925 64.5468 125.096 65.183 126.307C65.4424 126.8 65.652 127.321 65.8937 127.832L65.6378 127.978ZM65.6378 99.4856C65.5206 99.6249 65.4175 99.7785 65.2825 99.9106C65.1851 99.9731 65.08 100.022 64.9697 100.057C64.745 99.4744 64.6764 98.8426 64.7707 98.2249C64.8951 97.6321 64.6748 96.9535 64.5717 96.3214C64.4687 95.6892 64.1559 94.9678 64.9271 94.3928C65.1297 94.2428 65.0835 93.6392 65.0124 93.2678C64.6961 91.5463 64.3336 89.8321 63.9854 88.1178C63.9249 87.8213 63.8681 87.5213 63.8077 87.2249L64.0422 87.1749C64.3976 88.8856 64.753 90.5999 65.1083 92.3142C65.1723 92.6142 65.2434 92.9142 65.3322 93.2106C65.5774 94.0321 66.0714 94.8606 66.043 95.6642C65.9861 96.9356 66.6258 98.3106 65.6521 99.4856H65.6378ZM71.0857 89.7499C71.338 87.9999 70.1475 86.8035 69.9201 85.1463C70.9151 86.2178 71.203 87.5106 71.7431 88.6499L71.9883 88.5606L71.2776 84.632L71.505 84.5606C72.0985 85.8678 72.6955 87.1713 73.3494 88.6035L71.0857 89.7499ZM77.8839 72.8571C76.1462 72.6463 74.412 72.3892 72.6777 72.1642C71.8817 72.0642 71.075 72.0428 70.2932 71.8821C70.0404 71.8219 69.7779 71.8149 69.5222 71.8616C69.2666 71.9083 69.0233 72.0077 68.8077 72.1535C66.9954 73.3213 65.1687 74.4678 63.3457 75.6249C63.2282 75.7251 63.0932 75.8026 62.9477 75.8535C61.8389 76.0321 61.6115 76.7428 61.7572 77.7356C61.7884 78.2185 61.7884 78.7028 61.7572 79.1856L60.3535 75.8428C60.7301 75.632 61.1282 75.4249 61.5084 75.1892C63.8325 73.7428 66.1602 72.3035 68.4701 70.8321C68.7211 70.659 69.0067 70.5431 69.3068 70.4925C69.607 70.442 69.9145 70.4579 70.2079 70.5392C72.5771 71.0963 74.9462 71.6297 77.3154 72.1392C78.5663 72.4106 79.8349 72.6106 81.0396 72.832C80.0304 73.5321 78.9501 72.9821 77.8839 72.8571ZM87.7313 70.8892C87.8237 70.7463 87.8415 70.6963 87.8735 70.6749C89.6752 69.5392 89.4016 69.9285 88.9609 67.9463C88.8649 67.5142 88.7477 67.0892 88.6411 66.6606L88.8223 66.607C89.2345 67.6428 89.6432 68.6785 90.0661 69.7499C89.5011 70.5249 88.5344 70.4035 87.7313 70.8856V70.8892ZM98.1437 98.7463C99.3235 100.103 99.853 101.736 100.255 103.432C99.7997 102.468 99.3591 101.496 98.8758 100.543C98.6483 100.096 98.3214 99.6964 98.0726 99.2571C98.0441 99.1734 98.0357 99.0842 98.0481 98.9967C98.0604 98.9092 98.0932 98.8259 98.1437 98.7535V98.7463Z" fill="white"/>
<path d="M91.1778 136.721C91.1161 136.78 91.0411 136.822 90.9593 136.845C90.8774 136.867 90.7914 136.869 90.7087 136.85C90.4919 136.729 90.2147 136.518 90.1792 136.307C90.1662 135.954 90.202 135.601 90.2858 135.257L90.5274 135.221C90.7758 135.438 90.9934 135.688 91.1742 135.964C91.259 136.209 91.2603 136.476 91.1778 136.721Z" fill="white"/>
<path d="M52.8936 88.5428H52.9255L52.9042 88.5679L52.8936 88.5428Z" fill="white"/>
</g>
<defs>
<clipPath id="clip0">
<rect width="129" height="163" fill="white"/>
</clipPath>
</defs>
</svg>
