<svg width="239" height="114" viewBox="0 0 239 114" fill="none" xmlns="http://www.w3.org/2000/svg">
<path d="M39.8647 30.3073C39.8647 30.2593 39.8407 30.2353 39.7927 30.2353C39.7207 30.2353 39.6847 30.2593 39.6847 30.3073C39.6847 30.3793 39.7207 30.4153 39.7927 30.4153C39.8407 30.4153 39.8647 30.3793 39.8647 30.3073ZM39.9007 29.1193C39.9007 29.2873 39.9127 29.3713 39.9367 29.3713L40.0087 29.0113C40.0087 28.9633 40.0087 28.9153 40.0087 28.8673C39.9607 28.9153 39.9247 28.9993 39.9007 29.1193ZM40.2607 26.7073C40.2607 26.8753 40.2967 26.9113 40.3687 26.8153C40.4407 26.7193 40.4407 26.6353 40.3687 26.5633C40.3207 26.5633 40.2847 26.6113 40.2607 26.7073ZM34.3927 10.6873C34.6567 10.6153 34.8487 10.5793 34.9687 10.5793C35.1367 10.5793 35.3167 10.6633 35.5087 10.8313C35.7967 11.0713 36.2047 11.3113 36.7327 11.5513L37.5607 11.9473L37.5247 13.0273C37.4767 13.7473 37.4047 14.1793 37.3087 14.3233C37.1647 14.4673 37.0927 15.6433 37.0927 17.8513C37.0927 20.4913 37.1767 21.8473 37.3447 21.9193C37.3927 21.9433 37.7767 21.9793 38.4967 22.0273C39.2647 22.0753 40.4407 22.1833 42.0247 22.3513C43.6327 22.4953 44.4367 22.5913 44.4367 22.6393C44.4367 22.6873 44.1847 23.2633 43.6807 24.3673C43.1287 25.4713 42.8527 26.1313 42.8527 26.3473C42.8527 26.5393 42.3127 27.6793 41.2327 29.7673C40.1767 31.8553 39.5647 32.9593 39.3967 33.0793C39.3007 33.1513 39.1447 33.4873 38.9287 34.0873C38.7367 34.7113 38.6047 35.0593 38.5327 35.1313L38.4607 35.1673C38.4367 35.1673 38.4247 35.1193 38.4247 35.0233C38.4247 34.7593 38.6647 33.3793 39.1447 30.8833C39.4807 29.2273 39.7087 27.9073 39.8287 26.9233L39.9367 25.8073L39.1087 25.6993C38.4607 25.6273 37.9687 25.5913 37.6327 25.5913C37.1767 25.5913 36.9127 25.6873 36.8407 25.8793C36.7207 26.1913 36.5767 27.2593 36.4087 29.0833C36.2167 30.9793 36.0247 32.2873 35.8327 33.0073C35.6647 33.7513 35.3767 34.3513 34.9687 34.8073L34.3207 35.4913L34.2847 34.3033C34.2847 34.2793 34.2847 34.2313 34.2847 34.1593L34.2127 33.4753C34.1887 33.4753 34.1647 33.5353 34.1407 33.6553C34.0927 33.8233 34.0447 33.9553 33.9967 34.0513C33.9487 34.1473 33.9007 34.1833 33.8527 34.1593C33.5647 34.0873 33.3727 32.5033 33.2767 29.4073C33.2287 27.5353 33.1447 26.4073 33.0247 26.0233C32.9047 25.6153 32.5687 25.4113 32.0167 25.4113H31.4767H31.0447C30.6127 25.4113 30.3007 25.3873 30.1087 25.3393C30.0607 25.3153 29.9887 25.3033 29.8927 25.3033C29.7487 25.3033 29.6767 25.3873 29.6767 25.5553C29.6767 25.8193 29.8327 26.2273 30.1447 26.7793C30.4807 27.3313 30.6247 27.6313 30.5767 27.6793L30.0727 27.9673C29.8807 28.0633 29.7367 28.1113 29.6407 28.1113C29.3047 28.1113 28.7887 27.6433 28.0927 26.7073C27.5167 25.9633 27.1807 25.5913 27.0847 25.5913C27.0367 25.5913 26.8207 25.4473 26.4367 25.1593C26.0767 24.8713 25.8247 24.7273 25.6807 24.7273C25.6567 24.7273 25.6207 24.7393 25.5727 24.7633C25.4767 24.8353 25.2247 24.7753 24.8167 24.5833C24.4327 24.4153 24.0367 24.3073 23.6287 24.2593C23.2687 24.2353 23.0887 24.0913 23.0887 23.8273C23.0887 23.6113 22.8367 23.3473 22.3327 23.0353C21.8287 22.6993 21.5527 22.4473 21.5047 22.2793C21.5047 22.1113 21.3367 21.9673 21.0007 21.8473C20.7607 21.7513 20.6407 21.6553 20.6407 21.5593C20.6407 21.2473 21.3127 21.0913 22.6567 21.0913C22.8487 21.0913 23.1847 21.1153 23.6647 21.1633C24.5527 21.2593 26.1487 21.3673 28.4527 21.4873C30.7567 21.6073 32.3167 21.6673 33.1327 21.6673C33.1807 21.6673 33.3127 21.6553 33.5287 21.6313C33.5767 21.5833 33.6487 20.5993 33.7447 18.6793L33.8527 15.8353L33.2407 15.2593C32.9527 14.9713 32.7007 14.8033 32.4847 14.7553C32.2687 14.6833 31.7167 14.6473 30.8287 14.6473H28.9567L29.1367 15.2233C29.2087 15.6073 29.3407 15.9073 29.5327 16.1233C29.5567 16.1713 29.7007 16.3753 29.9647 16.7353C30.2287 17.0953 30.4567 17.3953 30.6487 17.6353C31.2247 18.3793 31.5127 18.9073 31.5127 19.2193C31.5127 19.3873 31.4287 19.4713 31.2607 19.4713C30.5167 19.4713 29.1967 18.3073 27.3007 15.9793C26.5327 15.0913 25.8487 14.3833 25.2487 13.8553C24.6007 13.3513 24.2767 13.0273 24.2767 12.8833C24.2767 12.6913 24.4927 12.5353 24.9247 12.4153C25.2127 12.3673 25.3927 12.3433 25.4647 12.3433C25.7287 12.3433 26.0407 12.4273 26.4007 12.5953C26.9047 12.8353 27.6487 12.9553 28.6327 12.9553C28.7527 12.9553 28.9567 12.9553 29.2447 12.9553C29.5567 12.9313 29.8207 12.9193 30.0367 12.9193C31.9087 12.8953 32.9287 12.7633 33.0967 12.5233C33.2407 12.3313 33.3967 12.2353 33.5647 12.2353C33.7327 12.2353 33.7807 12.0433 33.7087 11.6593C33.6847 11.5873 33.6727 11.4913 33.6727 11.3713C33.6727 11.0113 33.9127 10.7833 34.3927 10.6873ZM61.6956 17.8873C61.6956 17.8153 61.6596 17.7793 61.5876 17.7793C61.5156 17.7793 61.4796 17.8153 61.4796 17.8873C61.4796 17.9353 61.5156 17.9593 61.5876 17.9593C61.6596 17.9593 61.6956 17.9353 61.6956 17.8873ZM48.5916 1.29126C48.5676 1.19526 48.5556 1.08726 48.5556 0.967257C48.5556 0.775257 48.6036 0.679257 48.6996 0.679257C48.9396 0.679257 49.2996 1.19526 49.7796 2.22726C50.0436 2.82726 50.2236 3.12726 50.3196 3.12726C50.5596 3.12726 50.9676 4.26726 51.5436 6.54726C52.1436 8.80326 52.7076 11.3713 53.2356 14.2513C53.5956 16.0993 53.8476 17.0953 53.9916 17.2393C54.0636 17.3113 54.1236 17.3473 54.1716 17.3473C54.3156 17.3473 54.8196 16.9033 55.6836 16.0153C56.5956 15.0073 57.1836 14.2273 57.4476 13.6753C57.6156 13.3153 57.7596 13.0753 57.8796 12.9553C58.0236 12.8113 58.2276 12.7153 58.4916 12.6673C58.5876 12.6433 58.7076 12.6313 58.8516 12.6313C59.1156 12.6313 59.4636 12.8593 59.8956 13.3153C60.3036 13.7233 60.5076 14.0713 60.5076 14.3593C60.5076 14.5753 60.4596 14.9233 60.3636 15.4033C60.2916 15.8833 60.2556 16.2073 60.2556 16.3753C60.2556 16.6873 60.2916 16.8433 60.3636 16.8433C60.5076 16.8433 60.5796 16.9393 60.5796 17.1313C60.5796 17.3713 60.6276 17.4913 60.7236 17.4913C60.9156 17.4913 61.1796 17.1193 61.5156 16.3753C61.6116 16.1833 61.7796 15.8233 62.0196 15.2953C62.2596 14.7433 62.4276 14.3713 62.5236 14.1793C62.8116 13.6033 63.0276 13.1233 63.1716 12.7393C63.3156 12.3793 63.4956 12.1633 63.7116 12.0913C63.9756 11.9953 64.1076 11.8273 64.1076 11.5873C64.1076 11.2993 64.1556 11.1073 64.2516 11.0113C64.3716 10.8673 64.5276 10.4593 64.7196 9.78726C64.9356 9.11526 65.0916 8.50326 65.1876 7.95126C65.5476 5.35926 65.8356 4.02726 66.0516 3.95526C66.0996 3.93126 66.1716 3.91926 66.2676 3.91926C66.7716 3.91926 67.2276 4.24326 67.6356 4.89126L68.1036 5.64726L67.9596 8.95926C67.8636 11.2873 67.7796 12.7753 67.7076 13.4233C67.4436 16.3033 66.8796 20.4793 66.0156 25.9513C65.1516 31.3993 64.5876 34.3993 64.3236 34.9513C64.1316 35.3833 63.9756 35.5993 63.8556 35.5993C63.7596 35.5993 63.7116 35.4313 63.7116 35.0953C63.7116 34.8073 63.6156 34.3753 63.4236 33.7993C63.3036 33.4393 63.2436 33.1033 63.2436 32.7913C63.2436 32.5273 63.2796 32.1553 63.3516 31.6753C63.9996 26.8273 64.3956 24.1753 64.5396 23.7193C64.5876 23.5513 64.7076 22.3633 64.8996 20.1553C65.0916 17.9233 65.2236 16.1473 65.2956 14.8273C65.3196 14.4913 65.3316 14.0953 65.3316 13.6393C65.3316 13.0393 65.2596 12.5953 65.1156 12.3073C64.9236 11.9713 64.8276 11.7073 64.8276 11.5153C64.8276 11.4433 64.8156 11.3953 64.7916 11.3713C64.7676 11.3473 64.7316 11.3473 64.6836 11.3713C64.5636 11.4433 64.2636 12.5593 63.7836 14.7193C63.5916 15.7513 62.9316 17.5393 61.8036 20.0833C61.6116 20.5873 61.3716 20.8393 61.0836 20.8393C60.8436 20.8393 60.5436 20.7553 60.1836 20.5873C59.2716 20.1793 58.6836 19.5553 58.4196 18.7153C58.3236 18.4033 58.1676 18.1393 57.9516 17.9233C57.7596 17.7073 57.5556 17.5993 57.3396 17.5993C57.0996 17.5993 56.4756 18.1033 55.4676 19.1113C54.7716 19.7833 54.3156 20.2633 54.0996 20.5513C53.9076 20.8393 53.7396 21.2233 53.5956 21.7033C53.3796 22.5193 53.1396 22.9273 52.8756 22.9273C52.7076 22.9273 52.5156 22.7833 52.2996 22.4953C52.1076 22.2793 51.9876 22.0273 51.9396 21.7393C51.8916 21.4273 51.8436 20.6713 51.7956 19.4713C51.7716 18.2233 51.5916 16.6873 51.2556 14.8633C50.9436 13.0393 50.2236 9.30726 49.0956 3.66726C48.9996 3.28326 48.8916 2.80326 48.7716 2.22726C48.6516 1.65126 48.5916 1.33926 48.5916 1.29126ZM79.0909 30.8833C79.0909 30.8113 79.0549 30.7753 78.9829 30.7753C78.9349 30.7753 78.9109 30.8113 78.9109 30.8833C78.9109 30.9313 78.9349 30.9553 78.9829 30.9553C79.0549 30.9553 79.0909 30.9313 79.0909 30.8833ZM77.5429 11.2633C77.4229 10.8553 77.1589 10.7953 76.7509 11.0833C76.6309 11.1553 76.5709 11.2993 76.5709 11.5153C76.5709 11.8033 76.6429 12.1153 76.7869 12.4513C76.9549 12.7633 77.1229 12.9193 77.2909 12.9193C77.3389 12.9193 77.3749 12.9073 77.3989 12.8833C77.5429 12.8113 77.6749 12.8473 77.7949 12.9913C77.8669 13.0873 77.9269 13.1353 77.9749 13.1353C78.0469 13.1353 78.1309 12.8353 78.2269 12.2353C78.2509 12.0433 78.2629 11.8993 78.2629 11.8033C78.2869 11.7073 78.2869 11.6353 78.2629 11.5873C78.2389 11.5393 78.2029 11.5153 78.1549 11.5153C78.1309 11.5153 78.0709 11.5273 77.9749 11.5513C77.7589 11.6233 77.6149 11.5273 77.5429 11.2633ZM78.6949 6.54726C78.6949 6.42726 78.8869 6.10326 79.2709 5.57526C79.6549 5.04726 80.0389 4.78326 80.4229 4.78326C80.5669 4.78326 80.7829 4.84326 81.0709 4.96326C81.1909 5.03526 81.3949 5.13126 81.6829 5.25126C81.9709 5.37126 82.2109 5.49126 82.4029 5.61126C82.6189 5.73126 82.7749 5.88726 82.8709 6.07926C82.9909 6.31926 83.0509 6.52326 83.0509 6.69126C83.0509 6.90726 82.8109 8.25126 82.3309 10.7233C82.2349 11.2033 81.9589 13.3153 81.5029 17.0593C81.3829 18.1153 81.2269 20.6473 81.0349 24.6553C80.9389 26.2393 80.8069 27.9313 80.6389 29.7313C80.5429 30.5953 80.3269 31.2433 79.9909 31.6753C79.6309 32.1073 79.4509 32.5153 79.4509 32.8993C79.4269 33.1633 79.4029 33.2953 79.3789 33.2953C79.3549 33.3193 79.3069 33.2713 79.2349 33.1513C79.0909 32.9113 79.0429 32.7313 79.0909 32.6113C79.1149 32.4673 79.1269 32.2753 79.1269 32.0353C79.1269 31.5073 79.0429 31.2433 78.8749 31.2433H78.8389C78.8149 31.2673 78.7669 31.2793 78.6949 31.2793C78.5509 31.2793 78.4309 31.0993 78.3349 30.7393C78.2629 30.4033 78.1669 29.6833 78.0469 28.5793C77.9029 27.1873 77.7829 26.3233 77.6869 25.9873C77.6389 25.8913 77.6149 24.4873 77.6149 21.7753C77.6149 18.9673 77.6389 17.4193 77.6869 17.1313C77.7829 16.2193 77.8309 15.6673 77.8309 15.4753C77.8309 14.8753 77.7349 14.5033 77.5429 14.3593C77.3269 14.1913 77.2189 14.0713 77.2189 13.9993C77.2189 13.8793 76.7869 13.4233 75.9229 12.6313C75.0589 11.8153 74.2789 11.1433 73.5829 10.6153C72.6709 9.96726 72.2149 9.53526 72.2149 9.31926C72.2149 9.19926 72.3229 9.07926 72.5389 8.95926C72.7549 8.83926 72.9589 8.77926 73.1509 8.77926C73.2229 8.77926 73.3069 8.80326 73.4029 8.85126C73.5229 8.97126 73.8229 9.10326 74.3029 9.24726C74.5189 9.31926 74.7109 9.35526 74.8789 9.35526C75.2389 9.35526 75.8749 9.00726 76.7869 8.31126C77.3629 7.87926 77.7469 7.66326 77.9389 7.66326C78.0109 7.66326 78.0589 7.67526 78.0829 7.69926C78.2749 7.77126 78.3589 7.78326 78.3349 7.73526L78.1909 7.51926C78.1189 7.44726 78.0829 7.37526 78.0829 7.30326C78.0829 7.20726 78.1789 7.08726 78.3709 6.94326C78.5869 6.79926 78.6949 6.66726 78.6949 6.54726ZM95.8675 3.45126C96.0355 2.99526 96.2755 2.76726 96.5875 2.76726C96.7795 2.76726 96.9475 2.87526 97.0915 3.09126C97.2355 3.30726 97.3075 3.59526 97.3075 3.95526C97.3075 4.33926 97.2115 4.92726 97.0195 5.71926C96.8275 6.48726 96.6715 6.95526 96.5515 7.12326C96.4795 7.24326 96.3955 7.43526 96.2995 7.69926C96.2035 8.01126 95.9035 8.59926 95.3995 9.46326C94.9195 10.2793 94.6795 10.8673 94.6795 11.2273C94.6795 11.4433 94.7635 11.5993 94.9315 11.6953C95.0515 11.7673 95.5915 11.8513 96.5515 11.9473C98.4955 12.0913 99.4675 12.3193 99.4675 12.6313C99.4675 12.7033 99.3835 12.7753 99.2155 12.8473C99.0475 12.9193 99.0475 13.0513 99.2155 13.2433C99.5755 13.5793 99.6115 13.8313 99.3235 13.9993C99.1795 14.0713 99.1435 14.3593 99.2155 14.8633C99.2395 14.9353 99.2515 15.0553 99.2515 15.2233C99.2515 15.5353 99.2035 15.7873 99.1075 15.9793C98.9875 16.2193 98.9995 16.4113 99.1435 16.5553C99.2635 16.6753 99.2155 16.8793 98.9995 17.1673C98.7835 17.4313 98.6275 18.2953 98.5315 19.7593C98.3395 23.4553 98.0755 26.6593 97.7395 29.3713C97.6915 29.7553 97.6315 30.2233 97.5595 30.7753C97.4875 31.3513 97.4395 31.7593 97.4155 31.9993C97.3915 32.2633 97.3435 32.5873 97.2715 32.9713C97.1995 33.3553 97.1035 33.7153 96.9835 34.0513C96.8875 34.4113 96.7675 34.8073 96.6235 35.2393L96.5875 35.2753C96.4915 35.2753 96.3475 34.9153 96.1555 34.1953C95.8195 32.9473 95.6515 31.0153 95.6515 28.3993C95.6515 26.5753 95.7355 24.2473 95.9035 21.4153C96.0715 18.5833 96.1555 17.0713 96.1555 16.8793C96.1555 16.6633 96.1435 16.5553 96.1195 16.5553C96.0235 16.4593 95.4475 16.3393 94.3915 16.1953C93.3355 16.0513 92.4955 15.9793 91.8715 15.9793H91.6195C91.0195 16.0273 90.4315 16.1713 89.8555 16.4113C89.2795 16.6513 88.9915 16.8673 88.9915 17.0593C88.9915 17.2033 88.9195 17.2753 88.7755 17.2753C88.5355 17.2753 88.2715 17.1553 87.9835 16.9153C87.7675 16.6993 87.6595 16.4953 87.6595 16.3033C87.6595 16.1113 87.5515 15.9673 87.3355 15.8713C87.1915 15.7993 87.1195 15.6193 87.1195 15.3313C87.1195 15.2593 87.1435 14.9113 87.1915 14.2873C87.3115 12.9193 87.4915 12.2353 87.7315 12.2353H87.8035H87.8395C87.9835 12.2353 88.2955 12.1153 88.7755 11.8753C89.2795 11.6113 89.5915 11.4793 89.7115 11.4793C89.9995 11.4793 90.4435 11.2993 91.0435 10.9393C91.6675 10.5793 92.0995 10.2433 92.3395 9.93126C92.6755 9.45126 92.8435 9.19926 92.8435 9.17526C92.8435 9.05526 93.0715 8.65926 93.5275 7.98726C94.4155 6.66726 95.1955 5.15526 95.8675 3.45126ZM119.45 30.8833C119.45 30.8113 119.414 30.7753 119.342 30.7753C119.294 30.7753 119.27 30.8113 119.27 30.8833C119.27 30.9313 119.294 30.9553 119.342 30.9553C119.414 30.9553 119.45 30.9313 119.45 30.8833ZM117.902 11.2633C117.782 10.8553 117.518 10.7953 117.11 11.0833C116.99 11.1553 116.93 11.2993 116.93 11.5153C116.93 11.8033 117.002 12.1153 117.146 12.4513C117.314 12.7633 117.482 12.9193 117.65 12.9193C117.698 12.9193 117.734 12.9073 117.758 12.8833C117.902 12.8113 118.034 12.8473 118.154 12.9913C118.226 13.0873 118.286 13.1353 118.334 13.1353C118.406 13.1353 118.49 12.8353 118.586 12.2353C118.61 12.0433 118.622 11.8993 118.622 11.8033C118.646 11.7073 118.646 11.6353 118.622 11.5873C118.598 11.5393 118.562 11.5153 118.514 11.5153C118.49 11.5153 118.43 11.5273 118.334 11.5513C118.118 11.6233 117.974 11.5273 117.902 11.2633ZM119.054 6.54726C119.054 6.42726 119.246 6.10326 119.63 5.57526C120.014 5.04726 120.398 4.78326 120.782 4.78326C120.926 4.78326 121.142 4.84326 121.43 4.96326C121.55 5.03526 121.754 5.13126 122.042 5.25126C122.33 5.37126 122.57 5.49126 122.762 5.61126C122.978 5.73126 123.134 5.88726 123.23 6.07926C123.35 6.31926 123.41 6.52326 123.41 6.69126C123.41 6.90726 123.17 8.25126 122.69 10.7233C122.594 11.2033 122.318 13.3153 121.862 17.0593C121.742 18.1153 121.586 20.6473 121.394 24.6553C121.298 26.2393 121.166 27.9313 120.998 29.7313C120.902 30.5953 120.686 31.2433 120.35 31.6753C119.99 32.1073 119.81 32.5153 119.81 32.8993C119.786 33.1633 119.762 33.2953 119.738 33.2953C119.714 33.3193 119.666 33.2713 119.594 33.1513C119.45 32.9113 119.402 32.7313 119.45 32.6113C119.474 32.4673 119.486 32.2753 119.486 32.0353C119.486 31.5073 119.402 31.2433 119.234 31.2433H119.198C119.174 31.2673 119.126 31.2793 119.054 31.2793C118.91 31.2793 118.79 31.0993 118.694 30.7393C118.622 30.4033 118.526 29.6833 118.406 28.5793C118.262 27.1873 118.142 26.3233 118.046 25.9873C117.998 25.8913 117.974 24.4873 117.974 21.7753C117.974 18.9673 117.998 17.4193 118.046 17.1313C118.142 16.2193 118.19 15.6673 118.19 15.4753C118.19 14.8753 118.094 14.5033 117.902 14.3593C117.686 14.1913 117.578 14.0713 117.578 13.9993C117.578 13.8793 117.146 13.4233 116.282 12.6313C115.418 11.8153 114.638 11.1433 113.942 10.6153C113.03 9.96726 112.574 9.53526 112.574 9.31926C112.574 9.19926 112.682 9.07926 112.898 8.95926C113.114 8.83926 113.318 8.77926 113.51 8.77926C113.582 8.77926 113.666 8.80326 113.762 8.85126C113.882 8.97126 114.182 9.10326 114.662 9.24726C114.878 9.31926 115.07 9.35526 115.238 9.35526C115.598 9.35526 116.234 9.00726 117.146 8.31126C117.722 7.87926 118.106 7.66326 118.298 7.66326C118.37 7.66326 118.418 7.67526 118.442 7.69926C118.634 7.77126 118.718 7.78326 118.694 7.73526L118.55 7.51926C118.478 7.44726 118.442 7.37526 118.442 7.30326C118.442 7.20726 118.538 7.08726 118.73 6.94326C118.946 6.79926 119.054 6.66726 119.054 6.54726ZM136.227 3.45126C136.395 2.99526 136.635 2.76726 136.947 2.76726C137.139 2.76726 137.307 2.87526 137.451 3.09126C137.595 3.30726 137.667 3.59526 137.667 3.95526C137.667 4.33926 137.571 4.92726 137.379 5.71926C137.187 6.48726 137.031 6.95526 136.911 7.12326C136.839 7.24326 136.755 7.43526 136.659 7.69926C136.563 8.01126 136.263 8.59926 135.759 9.46326C135.279 10.2793 135.039 10.8673 135.039 11.2273C135.039 11.4433 135.123 11.5993 135.291 11.6953C135.411 11.7673 135.951 11.8513 136.911 11.9473C138.855 12.0913 139.827 12.3193 139.827 12.6313C139.827 12.7033 139.743 12.7753 139.575 12.8473C139.407 12.9193 139.407 13.0513 139.575 13.2433C139.935 13.5793 139.971 13.8313 139.683 13.9993C139.539 14.0713 139.503 14.3593 139.575 14.8633C139.599 14.9353 139.611 15.0553 139.611 15.2233C139.611 15.5353 139.563 15.7873 139.467 15.9793C139.347 16.2193 139.359 16.4113 139.503 16.5553C139.623 16.6753 139.575 16.8793 139.359 17.1673C139.143 17.4313 138.987 18.2953 138.891 19.7593C138.699 23.4553 138.435 26.6593 138.099 29.3713C138.051 29.7553 137.991 30.2233 137.919 30.7753C137.847 31.3513 137.799 31.7593 137.775 31.9993C137.751 32.2633 137.703 32.5873 137.631 32.9713C137.559 33.3553 137.463 33.7153 137.343 34.0513C137.247 34.4113 137.127 34.8073 136.983 35.2393L136.947 35.2753C136.851 35.2753 136.707 34.9153 136.515 34.1953C136.179 32.9473 136.011 31.0153 136.011 28.3993C136.011 26.5753 136.095 24.2473 136.263 21.4153C136.431 18.5833 136.515 17.0713 136.515 16.8793C136.515 16.6633 136.503 16.5553 136.479 16.5553C136.383 16.4593 135.807 16.3393 134.751 16.1953C133.695 16.0513 132.855 15.9793 132.231 15.9793H131.979C131.379 16.0273 130.791 16.1713 130.215 16.4113C129.639 16.6513 129.351 16.8673 129.351 17.0593C129.351 17.2033 129.279 17.2753 129.135 17.2753C128.895 17.2753 128.631 17.1553 128.343 16.9153C128.127 16.6993 128.019 16.4953 128.019 16.3033C128.019 16.1113 127.911 15.9673 127.695 15.8713C127.551 15.7993 127.479 15.6193 127.479 15.3313C127.479 15.2593 127.503 14.9113 127.551 14.2873C127.671 12.9193 127.851 12.2353 128.091 12.2353H128.163H128.199C128.343 12.2353 128.655 12.1153 129.135 11.8753C129.639 11.6113 129.951 11.4793 130.071 11.4793C130.359 11.4793 130.803 11.2993 131.403 10.9393C132.027 10.5793 132.459 10.2433 132.699 9.93126C133.035 9.45126 133.203 9.19926 133.203 9.17526C133.203 9.05526 133.431 8.65926 133.887 7.98726C134.775 6.66726 135.555 5.15526 136.227 3.45126ZM172.158 30.3073C172.158 30.2593 172.134 30.2353 172.086 30.2353C172.014 30.2353 171.978 30.2593 171.978 30.3073C171.978 30.3793 172.014 30.4153 172.086 30.4153C172.134 30.4153 172.158 30.3793 172.158 30.3073ZM172.194 29.1193C172.194 29.2873 172.206 29.3713 172.23 29.3713L172.302 29.0113C172.302 28.9633 172.302 28.9153 172.302 28.8673C172.254 28.9153 172.218 28.9993 172.194 29.1193ZM172.554 26.7073C172.554 26.8753 172.59 26.9113 172.662 26.8153C172.734 26.7193 172.734 26.6353 172.662 26.5633C172.614 26.5633 172.578 26.6113 172.554 26.7073ZM166.686 10.6873C166.95 10.6153 167.142 10.5793 167.262 10.5793C167.43 10.5793 167.61 10.6633 167.802 10.8313C168.09 11.0713 168.498 11.3113 169.026 11.5513L169.854 11.9473L169.818 13.0273C169.77 13.7473 169.698 14.1793 169.602 14.3233C169.458 14.4673 169.386 15.6433 169.386 17.8513C169.386 20.4913 169.47 21.8473 169.638 21.9193C169.686 21.9433 170.07 21.9793 170.79 22.0273C171.558 22.0753 172.734 22.1833 174.318 22.3513C175.926 22.4953 176.73 22.5913 176.73 22.6393C176.73 22.6873 176.478 23.2633 175.974 24.3673C175.422 25.4713 175.146 26.1313 175.146 26.3473C175.146 26.5393 174.606 27.6793 173.526 29.7673C172.47 31.8553 171.858 32.9593 171.69 33.0793C171.594 33.1513 171.438 33.4873 171.222 34.0873C171.03 34.7113 170.898 35.0593 170.826 35.1313L170.754 35.1673C170.73 35.1673 170.718 35.1193 170.718 35.0233C170.718 34.7593 170.958 33.3793 171.438 30.8833C171.774 29.2273 172.002 27.9073 172.122 26.9233L172.23 25.8073L171.402 25.6993C170.754 25.6273 170.262 25.5913 169.926 25.5913C169.47 25.5913 169.206 25.6873 169.134 25.8793C169.014 26.1913 168.87 27.2593 168.702 29.0833C168.51 30.9793 168.318 32.2873 168.126 33.0073C167.958 33.7513 167.67 34.3513 167.262 34.8073L166.614 35.4913L166.578 34.3033C166.578 34.2793 166.578 34.2313 166.578 34.1593L166.506 33.4753C166.482 33.4753 166.458 33.5353 166.434 33.6553C166.386 33.8233 166.338 33.9553 166.29 34.0513C166.242 34.1473 166.194 34.1833 166.146 34.1593C165.858 34.0873 165.666 32.5033 165.57 29.4073C165.522 27.5353 165.438 26.4073 165.318 26.0233C165.198 25.6153 164.862 25.4113 164.31 25.4113H163.77H163.338C162.906 25.4113 162.594 25.3873 162.402 25.3393C162.354 25.3153 162.282 25.3033 162.186 25.3033C162.042 25.3033 161.97 25.3873 161.97 25.5553C161.97 25.8193 162.126 26.2273 162.438 26.7793C162.774 27.3313 162.918 27.6313 162.87 27.6793L162.366 27.9673C162.174 28.0633 162.03 28.1113 161.934 28.1113C161.598 28.1113 161.082 27.6433 160.386 26.7073C159.81 25.9633 159.474 25.5913 159.378 25.5913C159.33 25.5913 159.114 25.4473 158.73 25.1593C158.37 24.8713 158.118 24.7273 157.974 24.7273C157.95 24.7273 157.914 24.7393 157.866 24.7633C157.77 24.8353 157.518 24.7753 157.11 24.5833C156.726 24.4153 156.33 24.3073 155.922 24.2593C155.562 24.2353 155.382 24.0913 155.382 23.8273C155.382 23.6113 155.13 23.3473 154.626 23.0353C154.122 22.6993 153.846 22.4473 153.798 22.2793C153.798 22.1113 153.63 21.9673 153.294 21.8473C153.054 21.7513 152.934 21.6553 152.934 21.5593C152.934 21.2473 153.606 21.0913 154.95 21.0913C155.142 21.0913 155.478 21.1153 155.958 21.1633C156.846 21.2593 158.442 21.3673 160.746 21.4873C163.05 21.6073 164.61 21.6673 165.426 21.6673C165.474 21.6673 165.606 21.6553 165.822 21.6313C165.87 21.5833 165.942 20.5993 166.038 18.6793L166.146 15.8353L165.534 15.2593C165.246 14.9713 164.994 14.8033 164.778 14.7553C164.562 14.6833 164.01 14.6473 163.122 14.6473H161.25L161.43 15.2233C161.502 15.6073 161.634 15.9073 161.826 16.1233C161.85 16.1713 161.994 16.3753 162.258 16.7353C162.522 17.0953 162.75 17.3953 162.942 17.6353C163.518 18.3793 163.806 18.9073 163.806 19.2193C163.806 19.3873 163.722 19.4713 163.554 19.4713C162.81 19.4713 161.49 18.3073 159.594 15.9793C158.826 15.0913 158.142 14.3833 157.542 13.8553C156.894 13.3513 156.57 13.0273 156.57 12.8833C156.57 12.6913 156.786 12.5353 157.218 12.4153C157.506 12.3673 157.686 12.3433 157.758 12.3433C158.022 12.3433 158.334 12.4273 158.694 12.5953C159.198 12.8353 159.942 12.9553 160.926 12.9553C161.046 12.9553 161.25 12.9553 161.538 12.9553C161.85 12.9313 162.114 12.9193 162.33 12.9193C164.202 12.8953 165.222 12.7633 165.39 12.5233C165.534 12.3313 165.69 12.2353 165.858 12.2353C166.026 12.2353 166.074 12.0433 166.002 11.6593C165.978 11.5873 165.966 11.4913 165.966 11.3713C165.966 11.0113 166.206 10.7833 166.686 10.6873ZM193.989 17.8873C193.989 17.8153 193.953 17.7793 193.881 17.7793C193.809 17.7793 193.773 17.8153 193.773 17.8873C193.773 17.9353 193.809 17.9593 193.881 17.9593C193.953 17.9593 193.989 17.9353 193.989 17.8873ZM180.885 1.29126C180.861 1.19526 180.849 1.08726 180.849 0.967257C180.849 0.775257 180.897 0.679257 180.993 0.679257C181.233 0.679257 181.593 1.19526 182.073 2.22726C182.337 2.82726 182.517 3.12726 182.613 3.12726C182.853 3.12726 183.261 4.26726 183.837 6.54726C184.437 8.80326 185.001 11.3713 185.529 14.2513C185.889 16.0993 186.141 17.0953 186.285 17.2393C186.357 17.3113 186.417 17.3473 186.465 17.3473C186.609 17.3473 187.113 16.9033 187.977 16.0153C188.889 15.0073 189.477 14.2273 189.741 13.6753C189.909 13.3153 190.053 13.0753 190.173 12.9553C190.317 12.8113 190.521 12.7153 190.785 12.6673C190.881 12.6433 191.001 12.6313 191.145 12.6313C191.409 12.6313 191.757 12.8593 192.189 13.3153C192.597 13.7233 192.801 14.0713 192.801 14.3593C192.801 14.5753 192.753 14.9233 192.657 15.4033C192.585 15.8833 192.549 16.2073 192.549 16.3753C192.549 16.6873 192.585 16.8433 192.657 16.8433C192.801 16.8433 192.873 16.9393 192.873 17.1313C192.873 17.3713 192.921 17.4913 193.017 17.4913C193.209 17.4913 193.473 17.1193 193.809 16.3753C193.905 16.1833 194.073 15.8233 194.313 15.2953C194.553 14.7433 194.721 14.3713 194.817 14.1793C195.105 13.6033 195.321 13.1233 195.465 12.7393C195.609 12.3793 195.789 12.1633 196.005 12.0913C196.269 11.9953 196.401 11.8273 196.401 11.5873C196.401 11.2993 196.449 11.1073 196.545 11.0113C196.665 10.8673 196.821 10.4593 197.013 9.78726C197.229 9.11526 197.385 8.50326 197.481 7.95126C197.841 5.35926 198.129 4.02726 198.345 3.95526C198.393 3.93126 198.465 3.91926 198.561 3.91926C199.065 3.91926 199.521 4.24326 199.929 4.89126L200.397 5.64726L200.253 8.95926C200.157 11.2873 200.073 12.7753 200.001 13.4233C199.737 16.3033 199.173 20.4793 198.309 25.9513C197.445 31.3993 196.881 34.3993 196.617 34.9513C196.425 35.3833 196.269 35.5993 196.149 35.5993C196.053 35.5993 196.005 35.4313 196.005 35.0953C196.005 34.8073 195.909 34.3753 195.717 33.7993C195.597 33.4393 195.537 33.1033 195.537 32.7913C195.537 32.5273 195.573 32.1553 195.645 31.6753C196.293 26.8273 196.689 24.1753 196.833 23.7193C196.881 23.5513 197.001 22.3633 197.193 20.1553C197.385 17.9233 197.517 16.1473 197.589 14.8273C197.613 14.4913 197.625 14.0953 197.625 13.6393C197.625 13.0393 197.553 12.5953 197.409 12.3073C197.217 11.9713 197.121 11.7073 197.121 11.5153C197.121 11.4433 197.109 11.3953 197.085 11.3713C197.061 11.3473 197.025 11.3473 196.977 11.3713C196.857 11.4433 196.557 12.5593 196.077 14.7193C195.885 15.7513 195.225 17.5393 194.097 20.0833C193.905 20.5873 193.665 20.8393 193.377 20.8393C193.137 20.8393 192.837 20.7553 192.477 20.5873C191.565 20.1793 190.977 19.5553 190.713 18.7153C190.617 18.4033 190.461 18.1393 190.245 17.9233C190.053 17.7073 189.849 17.5993 189.633 17.5993C189.393 17.5993 188.769 18.1033 187.761 19.1113C187.065 19.7833 186.609 20.2633 186.393 20.5513C186.201 20.8393 186.033 21.2233 185.889 21.7033C185.673 22.5193 185.433 22.9273 185.169 22.9273C185.001 22.9273 184.809 22.7833 184.593 22.4953C184.401 22.2793 184.281 22.0273 184.233 21.7393C184.185 21.4273 184.137 20.6713 184.089 19.4713C184.065 18.2233 183.885 16.6873 183.549 14.8633C183.237 13.0393 182.517 9.30726 181.389 3.66726C181.293 3.28326 181.185 2.80326 181.065 2.22726C180.945 1.65126 180.885 1.33926 180.885 1.29126ZM207.208 24.8713C207.208 24.4873 207.148 24.2953 207.028 24.2953C206.908 24.2953 206.848 24.4393 206.848 24.7273C206.848 25.1113 206.92 25.3033 207.064 25.3033C207.16 25.3033 207.208 25.1593 207.208 24.8713ZM207.064 22.0993C207.016 20.8753 206.968 20.2633 206.92 20.2633C206.872 20.2633 206.848 20.8873 206.848 22.1353C206.848 23.4073 206.884 24.0433 206.956 24.0433C207.028 24.0433 207.064 23.5753 207.064 22.6393V22.0993ZM206.848 19.9393C206.848 19.8673 206.824 19.8313 206.776 19.8313C206.704 19.8313 206.668 19.8673 206.668 19.9393C206.668 19.9873 206.704 20.0113 206.776 20.0113C206.824 20.0113 206.848 19.9873 206.848 19.9393ZM206.668 18.0313C206.668 17.9833 206.572 17.9593 206.38 17.9593C206.164 17.9593 206.104 18.0313 206.2 18.1753C206.248 18.2713 206.332 18.2953 206.452 18.2473C206.596 18.1993 206.668 18.1273 206.668 18.0313ZM216.784 3.88326C217.768 3.52326 218.356 3.34326 218.548 3.34326C218.668 3.34326 218.74 3.36726 218.764 3.41526C218.788 3.43926 218.8 3.49926 218.8 3.59526C218.8 3.81126 218.704 4.09926 218.512 4.45926C218.344 4.79526 218.164 5.02326 217.972 5.14326C216.844 5.83926 216.148 6.28326 215.884 6.47526C215.644 6.64326 214.888 7.24326 213.616 8.27526C212.104 9.45126 211.324 10.0513 211.276 10.0753C211.06 10.1953 210.952 10.3513 210.952 10.5433C210.952 10.6633 211.072 10.7233 211.312 10.7233C211.36 10.7233 211.624 10.6993 212.104 10.6513C212.824 10.5793 213.544 10.5433 214.264 10.5433C215.08 10.5433 215.716 10.5793 216.172 10.6513C216.508 10.7233 216.712 10.8073 216.784 10.9033C216.856 10.9753 216.892 11.1913 216.892 11.5513C216.892 12.0313 216.556 12.6913 215.884 13.5313C214.612 15.0913 213.148 16.3153 211.492 17.2033L210.088 17.9593L210.304 19.9753C210.424 21.2233 210.484 22.3513 210.484 23.3593C210.484 25.9273 210.172 28.4353 209.548 30.8833C209.38 31.5553 209.116 32.3113 208.756 33.1513C208.42 33.9913 208.18 34.4713 208.036 34.5913C207.892 34.7113 207.748 34.9273 207.604 35.2393C207.532 35.4313 207.484 35.5273 207.46 35.5273L207.424 35.0953C207.376 34.6873 207.304 34.4833 207.208 34.4833C207.088 34.4833 207.028 33.8353 207.028 32.5393C207.028 31.5553 207.04 30.7153 207.064 30.0193C207.064 29.6593 207.064 29.1793 207.064 28.5793C207.088 27.9793 207.1 27.5713 207.1 27.3553C207.1 26.3233 207.076 25.8073 207.028 25.8073C206.956 25.8073 206.896 26.9233 206.848 29.1553C206.824 31.2673 206.776 32.3233 206.704 32.3233C206.584 32.3233 206.5 30.2473 206.452 26.0953C206.38 21.7273 206.284 19.4233 206.164 19.1833C205.924 18.4633 205.804 18.0313 205.804 17.8873C205.804 17.6953 205.9 17.5993 206.092 17.5993C206.308 17.5993 206.416 17.4913 206.416 17.2753C206.416 17.1073 206.776 16.8793 207.496 16.5913C209.608 15.7993 211.06 15.0193 211.852 14.2513C212.332 13.7953 212.572 13.5313 212.572 13.4593C212.572 13.4113 212.476 13.3513 212.284 13.2793C212.14 13.2313 211.876 13.2073 211.492 13.2073C209.812 13.2073 208.012 13.3993 206.092 13.7833C205.492 13.9033 205.084 13.9633 204.868 13.9633C204.628 13.9633 204.508 13.9153 204.508 13.8193C204.508 13.7233 204.58 13.6273 204.724 13.5313C204.892 13.3873 204.976 13.2553 204.976 13.1353C204.976 13.0153 204.88 12.9553 204.688 12.9553C204.448 12.9553 204.388 12.8233 204.508 12.5593C204.58 12.3913 204.712 12.2593 204.904 12.1633C205.144 12.0433 205.828 11.5873 206.956 10.7953C208.084 10.0033 208.732 9.55926 208.9 9.46326C209.716 8.95926 210.124 8.58726 210.124 8.34726C210.124 8.32326 210.1 8.31126 210.052 8.31126C209.98 8.31126 209.344 8.56326 208.144 9.06726C206.944 9.57126 206.152 9.85926 205.768 9.93126C205.432 9.97926 205.228 9.97926 205.156 9.93126C205.084 9.85926 205.048 9.69126 205.048 9.42726C205.048 9.16326 205.336 8.89926 205.912 8.63526C207.232 7.96326 209.248 7.05126 211.96 5.89926C212.44 5.70726 213.184 5.39526 214.192 4.96326C215.2 4.50726 216.064 4.14726 216.784 3.88326ZM11.9885 54.5473C11.8205 54.5473 11.7845 54.5953 11.8805 54.6913C11.9765 54.7873 12.0605 54.7873 12.1325 54.6913C12.1085 54.6193 12.0605 54.5713 11.9885 54.5473ZM18.8645 49.7953C18.8645 49.6513 18.7685 49.6633 18.5765 49.8313L18.4325 50.0473C18.3845 50.1673 18.3605 50.2393 18.3605 50.2633C18.3845 50.2633 18.4565 50.2153 18.5765 50.1193C18.7685 49.9273 18.8645 49.8193 18.8645 49.7953ZM20.8085 47.7433C20.8805 47.5993 20.9165 47.5153 20.9165 47.4913C20.9165 47.4193 20.7845 47.5273 20.5205 47.8153C20.2565 48.0793 19.9925 48.3793 19.7285 48.7153C19.4645 49.0513 19.3325 49.2553 19.3325 49.3273C19.3325 49.3513 19.3445 49.3633 19.3685 49.3633C19.4645 49.3633 19.6805 49.1713 20.0165 48.7873C20.3525 48.3793 20.6165 48.0313 20.8085 47.7433ZM20.9165 45.1873C21.2525 44.8273 21.4325 44.6953 21.4565 44.7913C21.4565 44.8393 21.4325 44.9353 21.3845 45.0793C21.2885 45.3433 21.3125 45.5833 21.4565 45.7993C21.5525 46.0153 21.5165 46.2913 21.3485 46.6273C21.2045 46.8913 21.1565 47.0353 21.2045 47.0593C21.2525 47.0833 21.3365 47.0713 21.4565 47.0233C21.5765 46.9513 21.6365 46.9633 21.6365 47.0593C21.6365 47.2513 21.3845 47.6833 20.8805 48.3553C20.4005 49.0033 19.9205 49.5433 19.4405 49.9753C18.6005 50.7673 17.1365 51.8233 15.0485 53.1433C12.9845 54.4633 11.7485 55.1233 11.3405 55.1233C11.1965 55.1233 11.0405 55.2073 10.8725 55.3753C10.7285 55.5673 10.5845 55.6273 10.4405 55.5553C10.2965 55.4833 10.0685 55.5193 9.75648 55.6633L9.46848 55.8073L9.64848 55.8433C9.86448 55.8913 9.97248 55.9873 9.97248 56.1313C9.97248 56.2993 10.1645 56.4673 10.5485 56.6353C10.9325 56.8033 11.5685 57.2233 12.4565 57.8953C13.3685 58.5673 14.1725 59.2393 14.8685 59.9113C15.7085 60.6793 16.1765 61.0633 16.2725 61.0633C16.3685 61.0633 16.4165 60.9313 16.4165 60.6673C16.4165 60.5953 16.3925 60.1993 16.3445 59.4793L16.2365 57.7153H17.1005C17.6525 57.7153 17.9285 57.7873 17.9285 57.9313C17.9285 58.0753 17.9885 58.0753 18.1085 57.9313L18.1445 57.8593C18.3125 57.5713 18.4565 57.4753 18.5765 57.5713C18.6485 57.6433 18.6605 57.7633 18.6125 57.9313L18.5045 58.2913L18.9365 57.9313C19.2005 57.6673 19.3805 57.5353 19.4765 57.5353C19.5725 57.5353 19.6205 57.8593 19.6205 58.5073C19.5965 59.1793 19.3085 59.9353 18.7565 60.7753C17.8445 62.2153 17.3285 63.1873 17.2085 63.6913C17.0885 64.1713 17.0165 65.5393 16.9925 67.7953C16.9445 70.6753 16.8845 72.2473 16.8125 72.5113C16.3565 74.4073 16.0565 75.3553 15.9125 75.3553C15.8165 75.3553 15.7685 74.7553 15.7685 73.5553V73.0513C15.7685 71.7793 15.7205 69.7993 15.6245 67.1113C15.5285 65.2633 15.4445 64.1353 15.3725 63.7273C15.3245 63.3193 15.1685 62.8993 14.9045 62.4673C14.5685 61.9153 13.8125 61.1113 12.6365 60.0553C11.4845 58.9993 10.4645 58.2073 9.57648 57.6793C8.78448 57.1753 8.02848 56.9233 7.30848 56.9233C6.97248 56.9233 6.70848 56.9353 6.51648 56.9593C5.60448 57.0073 5.01648 57.0313 4.75248 57.0313C3.84048 57.0313 3.36048 56.9593 3.31248 56.8153C3.26448 56.6713 3.13248 56.5993 2.91648 56.5993C2.72448 56.5993 2.56848 56.5393 2.44848 56.4193C2.35248 56.3233 2.11248 56.2513 1.72848 56.2033C1.51248 56.1793 1.32048 56.0953 1.15248 55.9513C0.98448 55.8073 0.90048 55.6753 0.90048 55.5553C0.90048 55.4593 0.93648 55.3873 1.00848 55.3393C1.15248 55.2193 1.66848 55.0513 2.55648 54.8353C4.93248 54.2113 9.66048 51.4633 16.7405 46.5913C18.2045 45.5593 19.2485 45.0433 19.8725 45.0433C20.1125 45.0433 20.2685 45.1273 20.3405 45.2953C20.3645 45.3913 20.3885 45.4633 20.4125 45.5113C20.4365 45.5353 20.4725 45.5473 20.5205 45.5473C20.5685 45.5473 20.6165 45.5233 20.6645 45.4753C20.7125 45.4033 20.7965 45.3073 20.9165 45.1873ZM33.4231 70.6393C33.4231 70.7593 33.4351 70.8193 33.4591 70.8193C33.5311 70.7953 33.5551 70.6873 33.5311 70.4953C33.5311 70.4473 33.5191 70.4113 33.4951 70.3873C33.4471 70.3393 33.4231 70.3513 33.4231 70.4233C33.3991 70.4713 33.3991 70.5433 33.4231 70.6393ZM33.5671 70.0633C33.5671 69.9913 33.5431 69.9553 33.4951 69.9553C33.4231 69.9553 33.3871 69.9913 33.3871 70.0633C33.3871 70.1113 33.4231 70.1353 33.4951 70.1353C33.5431 70.1353 33.5671 70.1113 33.5671 70.0633ZM31.6951 42.3793C32.6071 41.4673 33.1831 41.0113 33.4231 41.0113C33.4951 41.0113 33.5671 41.0473 33.6391 41.1193C33.6631 41.1433 33.6751 41.1793 33.6751 41.2273C33.6751 41.5153 32.9911 42.4633 31.6231 44.0713C30.2071 45.8233 29.4991 46.8193 29.4991 47.0593C29.4991 47.1553 29.7391 47.1553 30.2191 47.0593C30.9871 46.9393 31.5631 46.7953 31.9471 46.6273C32.3551 46.4353 32.7511 46.1353 33.1351 45.7273C33.5911 45.2713 33.9151 45.0433 34.1071 45.0433C34.2511 45.0433 34.3231 45.1633 34.3231 45.4033C34.3231 45.5713 34.4191 45.6553 34.6111 45.6553C34.7551 45.6553 34.8271 45.7153 34.8271 45.8353C34.8271 45.9553 34.8631 46.0393 34.9351 46.0873C35.0071 46.1113 35.0431 46.1713 35.0431 46.2673C35.0431 46.4113 34.8631 46.7713 34.5031 47.3473C34.1431 47.9233 33.9631 48.3433 33.9631 48.6073C33.9631 48.8233 33.8911 48.9793 33.7471 49.0753C33.5071 49.2433 33.1951 50.0833 32.8111 51.5953C32.6191 52.4113 32.4391 53.0953 32.2711 53.6473C32.2231 53.7913 32.1991 53.9593 32.1991 54.1513C32.1991 54.3913 32.3191 54.5113 32.5591 54.5113C32.7751 54.5113 33.0991 54.4393 33.5311 54.2953C33.7231 54.2473 34.0591 54.1393 34.5391 53.9713C35.0191 53.8033 35.4151 53.6833 35.7271 53.6113C36.0631 53.5153 36.3751 53.4673 36.6631 53.4673C36.7111 53.4433 36.7471 53.4793 36.7711 53.5753C36.8191 53.6473 36.8431 53.7433 36.8431 53.8633C36.8431 54.1513 36.9271 54.2953 37.0951 54.2953C37.3111 54.2953 37.4191 54.4273 37.4191 54.6913C37.4191 55.1473 37.0471 56.2033 36.3031 57.8593C35.3671 59.9713 34.8271 61.3633 34.6831 62.0353C34.5631 62.7073 34.4191 64.7353 34.2511 68.1193C34.0351 71.3833 33.7711 73.0153 33.4591 73.0153L33.3871 72.9433C33.3391 72.8953 33.2791 72.9433 33.2071 73.0873C33.1351 73.2553 33.0511 73.4953 32.9551 73.8073C32.7151 74.7673 32.4511 75.2473 32.1631 75.2473C32.0671 75.2473 31.9591 75.1873 31.8391 75.0673C31.6711 74.8993 31.5631 74.6593 31.5151 74.3473C31.5151 73.9873 31.4911 73.7353 31.4431 73.5913C31.3951 73.4473 31.3711 72.0313 31.3711 69.3433C31.3711 66.6553 31.3951 65.2273 31.4431 65.0593C31.4431 64.9873 31.4551 64.8913 31.4791 64.7713C31.5031 64.6273 31.5271 64.4593 31.5511 64.2673C31.5751 64.0753 31.5991 63.9073 31.6231 63.7633C31.7911 62.5393 32.2951 61.0273 33.1351 59.2273C33.6871 58.1233 33.9631 57.3793 33.9631 56.9953C33.9631 56.8513 33.9151 56.7793 33.8191 56.7793C33.6991 56.7793 33.3991 56.9353 32.9191 57.2473C32.5591 57.4633 32.1751 57.6793 31.7671 57.8953C31.5511 57.9913 31.0471 58.6273 30.2551 59.8033C29.4631 60.9793 29.0071 61.7593 28.8871 62.1433C28.8391 62.3113 28.7191 62.4793 28.5271 62.6473C28.3351 62.7913 28.1671 62.8633 28.0231 62.8633C27.9511 62.8633 27.8911 62.8393 27.8431 62.7913C27.7231 62.6713 27.6031 62.3353 27.4831 61.7833C27.4111 61.5433 27.3751 61.3393 27.3751 61.1713C27.3751 60.9313 27.6391 60.2113 28.1671 59.0113C28.8631 57.4993 29.5111 55.7953 30.1111 53.8993C30.7111 52.0033 31.0111 50.7193 31.0111 50.0473C31.0111 49.9033 30.9991 49.8073 30.9751 49.7593C30.8551 49.4953 30.7831 49.3633 30.7591 49.3633C30.7111 49.3633 30.4831 49.4233 30.0751 49.5433C29.6191 49.6873 28.8751 49.8193 27.8431 49.9393C27.2191 49.9873 26.8591 50.0113 26.7631 50.0113C26.3791 50.0113 26.1151 49.9633 25.9711 49.8673C25.8511 49.7713 25.7911 49.5913 25.7911 49.3273C25.7911 49.0633 25.9471 48.6313 26.2591 48.0313C26.5951 47.4313 26.8591 47.0833 27.0511 46.9873C27.3391 46.8193 27.9511 46.2433 28.8871 45.2593C29.9431 44.1553 30.8791 43.1953 31.6951 42.3793ZM54.4659 65.7073C54.5139 65.7073 54.538 65.6713 54.538 65.5993C54.538 65.5273 54.5139 65.4913 54.4659 65.4913C54.394 65.4913 54.358 65.5273 54.358 65.5993C54.358 65.6713 54.394 65.7073 54.4659 65.7073ZM57.3459 64.6633C57.3459 64.6153 57.3099 64.5913 57.2379 64.5913C57.1659 64.5913 57.1299 64.6153 57.1299 64.6633C57.1299 64.7353 57.1659 64.7713 57.2379 64.7713C57.3099 64.7713 57.3459 64.7353 57.3459 64.6633ZM53.7099 65.0593C53.3499 64.7473 53.0979 64.5913 52.954 64.5913L52.9179 64.6273C52.9179 64.7473 53.2419 64.9873 53.8899 65.3473C53.9619 65.3953 53.9979 65.4073 53.9979 65.3833C54.0219 65.3353 53.926 65.2273 53.7099 65.0593ZM52.5939 64.1953C52.5219 64.0753 52.4259 64.0153 52.3059 64.0153C52.0899 64.0153 52.1139 64.1233 52.3779 64.3393L52.5219 64.4113C52.6659 64.4113 52.6899 64.3393 52.5939 64.1953ZM56.95 63.8353C56.95 64.0273 56.9979 64.0753 57.0939 63.9793C57.1899 63.8833 57.1899 63.7873 57.0939 63.6913C57.0459 63.6433 57.01 63.6433 56.9859 63.6913C56.9619 63.7153 56.95 63.7633 56.95 63.8353ZM51.5859 63.5833C51.4419 63.3913 51.2979 63.2953 51.1539 63.2953C51.0819 63.3193 51.0459 63.3313 51.0459 63.3313C51.1179 63.4033 51.2619 63.5113 51.4779 63.6553L51.7659 63.7993C51.7419 63.7753 51.6819 63.7033 51.5859 63.5833ZM50.2539 62.6473C50.0619 62.5273 49.8459 62.3713 49.6059 62.1793C49.3899 61.9633 49.1859 61.8073 48.9939 61.7113C48.8739 61.6393 48.8019 61.6033 48.7779 61.6033C48.7299 61.6033 48.7539 61.6513 48.8499 61.7473C48.9459 61.8433 49.0779 61.9753 49.2459 62.1433C49.4379 62.2873 49.6299 62.4193 49.8219 62.5393C50.3979 62.9233 50.7099 63.1153 50.7579 63.1153C50.8299 63.1153 50.6859 62.9833 50.3259 62.7193L50.2539 62.6473ZM48.4539 61.3873C48.2859 61.1713 48.1419 61.0633 48.0219 61.0633C47.7339 61.0633 47.7939 61.1713 48.2019 61.3873C48.2259 61.4113 48.2619 61.4353 48.3099 61.4593C48.5019 61.5793 48.5979 61.6393 48.5979 61.6393C48.6219 61.6153 48.5739 61.5313 48.4539 61.3873ZM53.6019 59.2633C52.9059 56.9353 52.5099 55.7713 52.4139 55.7713C52.2459 55.7713 51.4419 56.4793 50.0019 57.8953C48.5859 59.3113 47.8779 60.1033 47.8779 60.2713C47.8779 60.4153 48.6699 61.0273 50.2539 62.1073C53.2539 64.1953 54.8619 65.2393 55.0779 65.2393H55.114C55.1379 65.2153 55.1499 65.1553 55.1499 65.0593C55.1499 64.8673 55.0659 64.4713 54.8979 63.8713C54.6579 63.0793 54.2259 61.5433 53.6019 59.2633ZM51.6939 43.6753C51.7659 43.4593 51.8379 43.3513 51.9099 43.3513L52.2339 44.1073C52.3299 44.6113 52.4499 44.9353 52.5939 45.0793C52.7379 45.2713 53.1459 46.9513 53.8179 50.1193C53.9619 50.6713 54.0819 50.9953 54.1779 51.0913C54.2979 51.2113 54.358 51.4393 54.358 51.7753C54.358 52.1113 54.442 52.5553 54.61 53.1073C54.6819 53.2993 54.8739 53.9593 55.1859 55.0873C55.5219 56.1913 55.75 56.8873 55.87 57.1753C56.3979 58.7113 56.9259 60.5593 57.4539 62.7193C57.5979 63.2233 57.718 64.0993 57.814 65.3473C57.838 65.6113 57.85 65.9233 57.85 66.2833C57.85 66.7633 57.742 67.2673 57.526 67.7953C57.262 68.3713 57.1299 68.7673 57.1299 68.9833C57.1299 69.1993 56.9739 69.4753 56.6619 69.8113C56.3739 70.1713 56.1339 70.3513 55.942 70.3513C55.51 70.3513 52.8579 68.6473 47.9859 65.2393C46.4259 64.1353 45.3219 63.5833 44.6739 63.5833C44.4339 63.5833 44.0139 63.6673 43.4139 63.8353C42.6939 64.0753 42.2619 64.1953 42.1179 64.1953C42.0459 64.1953 41.9019 64.0153 41.6859 63.6553C41.5419 63.3913 41.4699 63.1513 41.4699 62.9353C41.4699 62.7193 41.5059 62.4193 41.5779 62.0353C41.7219 61.2673 41.8899 60.7993 42.0819 60.6313C42.2499 60.4873 42.7899 60.2713 43.7019 59.9833C44.6139 59.6953 45.1419 59.5153 45.2859 59.4433C45.5739 59.2753 45.8019 59.1913 45.9699 59.1913C46.1619 59.1913 46.8339 58.6873 47.9859 57.6793C49.1619 56.6473 50.0379 55.7953 50.6139 55.1233C51.3819 54.2353 51.8019 53.6113 51.874 53.2513C51.874 53.2273 51.874 53.1793 51.874 53.1073C51.8979 53.0353 51.9099 52.9753 51.9099 52.9273C51.9099 52.3993 51.8259 51.5713 51.6579 50.4433C51.5139 49.3633 51.4419 48.1273 51.4419 46.7353C51.4419 45.1993 51.5259 44.1793 51.6939 43.6753ZM74.8917 65.7073C74.9397 65.7073 74.9637 65.6713 74.9637 65.5993C74.9637 65.5273 74.9397 65.4913 74.8917 65.4913C74.8197 65.4913 74.7837 65.5273 74.7837 65.5993C74.7837 65.6713 74.8197 65.7073 74.8917 65.7073ZM77.7717 64.6633C77.7717 64.6153 77.7357 64.5913 77.6637 64.5913C77.5917 64.5913 77.5557 64.6153 77.5557 64.6633C77.5557 64.7353 77.5917 64.7713 77.6637 64.7713C77.7357 64.7713 77.7717 64.7353 77.7717 64.6633ZM74.1357 65.0593C73.7757 64.7473 73.5237 64.5913 73.3797 64.5913L73.3437 64.6273C73.3437 64.7473 73.6677 64.9873 74.3157 65.3473C74.3877 65.3953 74.4237 65.4073 74.4237 65.3833C74.4477 65.3353 74.3517 65.2273 74.1357 65.0593ZM73.0197 64.1953C72.9477 64.0753 72.8517 64.0153 72.7317 64.0153C72.5157 64.0153 72.5397 64.1233 72.8037 64.3393L72.9477 64.4113C73.0917 64.4113 73.1157 64.3393 73.0197 64.1953ZM77.3757 63.8353C77.3757 64.0273 77.4237 64.0753 77.5197 63.9793C77.6157 63.8833 77.6157 63.7873 77.5197 63.6913C77.4717 63.6433 77.4357 63.6433 77.4117 63.6913C77.3877 63.7153 77.3757 63.7633 77.3757 63.8353ZM72.0117 63.5833C71.8677 63.3913 71.7237 63.2953 71.5797 63.2953C71.5077 63.3193 71.4717 63.3313 71.4717 63.3313C71.5437 63.4033 71.6877 63.5113 71.9037 63.6553L72.1917 63.7993C72.1677 63.7753 72.1077 63.7033 72.0117 63.5833ZM70.6797 62.6473C70.4877 62.5273 70.2717 62.3713 70.0317 62.1793C69.8157 61.9633 69.6117 61.8073 69.4197 61.7113C69.2997 61.6393 69.2277 61.6033 69.2037 61.6033C69.1557 61.6033 69.1797 61.6513 69.2757 61.7473C69.3717 61.8433 69.5037 61.9753 69.6717 62.1433C69.8637 62.2873 70.0557 62.4193 70.2477 62.5393C70.8237 62.9233 71.1357 63.1153 71.1837 63.1153C71.2557 63.1153 71.1117 62.9833 70.7517 62.7193L70.6797 62.6473ZM68.8797 61.3873C68.7117 61.1713 68.5677 61.0633 68.4477 61.0633C68.1597 61.0633 68.2197 61.1713 68.6277 61.3873C68.6517 61.4113 68.6877 61.4353 68.7357 61.4593C68.9277 61.5793 69.0237 61.6393 69.0237 61.6393C69.0477 61.6153 68.9997 61.5313 68.8797 61.3873ZM74.0277 59.2633C73.3317 56.9353 72.9357 55.7713 72.8397 55.7713C72.6717 55.7713 71.8677 56.4793 70.4277 57.8953C69.0117 59.3113 68.3037 60.1033 68.3037 60.2713C68.3037 60.4153 69.0957 61.0273 70.6797 62.1073C73.6797 64.1953 75.2877 65.2393 75.5037 65.2393H75.5397C75.5637 65.2153 75.5757 65.1553 75.5757 65.0593C75.5757 64.8673 75.4917 64.4713 75.3237 63.8713C75.0837 63.0793 74.6517 61.5433 74.0277 59.2633ZM72.1197 43.6753C72.1917 43.4593 72.2637 43.3513 72.3357 43.3513L72.6597 44.1073C72.7557 44.6113 72.8757 44.9353 73.0197 45.0793C73.1637 45.2713 73.5717 46.9513 74.2437 50.1193C74.3877 50.6713 74.5077 50.9953 74.6037 51.0913C74.7237 51.2113 74.7837 51.4393 74.7837 51.7753C74.7837 52.1113 74.8677 52.5553 75.0357 53.1073C75.1077 53.2993 75.2997 53.9593 75.6117 55.0873C75.9477 56.1913 76.1757 56.8873 76.2957 57.1753C76.8237 58.7113 77.3517 60.5593 77.8797 62.7193C78.0237 63.2233 78.1437 64.0993 78.2397 65.3473C78.2637 65.6113 78.2757 65.9233 78.2757 66.2833C78.2757 66.7633 78.1677 67.2673 77.9517 67.7953C77.6877 68.3713 77.5557 68.7673 77.5557 68.9833C77.5557 69.1993 77.3997 69.4753 77.0877 69.8113C76.7997 70.1713 76.5597 70.3513 76.3677 70.3513C75.9357 70.3513 73.2837 68.6473 68.4117 65.2393C66.8517 64.1353 65.7477 63.5833 65.0997 63.5833C64.8597 63.5833 64.4397 63.6673 63.8397 63.8353C63.1197 64.0753 62.6877 64.1953 62.5437 64.1953C62.4717 64.1953 62.3277 64.0153 62.1117 63.6553C61.9677 63.3913 61.8957 63.1513 61.8957 62.9353C61.8957 62.7193 61.9317 62.4193 62.0037 62.0353C62.1477 61.2673 62.3157 60.7993 62.5077 60.6313C62.6757 60.4873 63.2157 60.2713 64.1277 59.9833C65.0397 59.6953 65.5677 59.5153 65.7117 59.4433C65.9997 59.2753 66.2277 59.1913 66.3957 59.1913C66.5877 59.1913 67.2597 58.6873 68.4117 57.6793C69.5877 56.6473 70.4637 55.7953 71.0397 55.1233C71.8077 54.2353 72.2277 53.6113 72.2997 53.2513C72.2997 53.2273 72.2997 53.1793 72.2997 53.1073C72.3237 53.0353 72.3357 52.9753 72.3357 52.9273C72.3357 52.3993 72.2517 51.5713 72.0837 50.4433C71.9397 49.3633 71.8677 48.1273 71.8677 46.7353C71.8677 45.1993 71.9517 44.1793 72.1197 43.6753ZM97.5495 62.1073C97.7175 62.0353 97.8615 61.9993 97.9815 61.9993C98.2455 61.9993 98.3775 62.2393 98.3775 62.7193C98.3775 62.9833 98.3415 63.3313 98.2695 63.7633C98.1975 64.3393 98.0895 65.4433 97.9455 67.0753C97.7295 69.5953 97.4055 71.2153 96.9735 71.9353C96.7575 72.3193 96.6495 72.6313 96.6495 72.8713C96.6015 73.1113 96.4815 73.4353 96.2895 73.8433L95.9655 74.4553L95.6055 73.7353C95.3895 73.2793 95.2455 72.1513 95.1735 70.3513C95.1255 68.5273 95.0535 67.5673 94.9575 67.4713C94.8375 67.3513 94.7775 67.1833 94.7775 66.9673C94.7775 66.7513 94.6695 66.5113 94.4535 66.2473C94.2855 66.0793 94.1655 65.9953 94.0935 65.9953C94.0215 65.9953 93.8295 66.0793 93.5175 66.2473C93.1335 66.4873 92.7975 66.6073 92.5095 66.6073C92.2935 66.6073 92.1495 66.5233 92.0775 66.3553C92.0775 66.3313 92.0655 66.2833 92.0415 66.2113C92.0415 65.6833 92.4135 65.1313 93.1575 64.5553C93.5655 64.2673 94.1415 63.9073 94.8855 63.4753C95.6535 63.0433 96.0975 62.8273 96.2175 62.8273H96.2535C96.2535 62.8513 96.3615 62.8153 96.5775 62.7193C96.7935 62.5993 96.9975 62.4793 97.1895 62.3593C97.4055 62.2153 97.5255 62.1313 97.5495 62.1073ZM96.2895 52.7473C96.1215 52.4833 95.9535 52.2793 95.7855 52.1353C95.6895 52.0633 95.6415 52.0393 95.6415 52.0633C95.6415 52.1353 95.7255 52.2673 95.8935 52.4593C96.1815 52.8673 96.3495 53.0713 96.3975 53.0713C96.4215 53.0713 96.3855 52.9633 96.2895 52.7473ZM94.8855 51.0193C94.9815 51.0193 94.9455 50.9233 94.7775 50.7313L94.6695 50.6593C94.5735 50.6593 94.6095 50.7553 94.7775 50.9473L94.8855 51.0193ZM92.2935 50.5153C91.7175 49.6273 91.4055 49.1833 91.3575 49.1833C91.1895 49.1833 91.1055 49.4233 91.1055 49.9033C91.1055 50.0473 91.1295 50.3593 91.1775 50.8393C91.2735 51.9433 91.4535 52.4953 91.7175 52.4953C91.7895 52.4953 91.8495 52.4833 91.8975 52.4593C91.9215 52.4353 91.9575 52.4233 92.0055 52.4233C92.2215 52.4233 92.3775 52.7113 92.4735 53.2873C92.5695 53.8633 92.6295 54.5593 92.6535 55.3753C92.7015 56.1673 92.7615 56.6833 92.8335 56.9233L92.9415 57.3553L93.7335 56.8873C94.2375 56.5993 94.6935 56.4073 95.1015 56.3113C95.5815 56.1913 95.8215 55.9753 95.8215 55.6633C95.8215 55.4473 95.7375 55.2433 95.5695 55.0513C94.3455 53.4673 93.2535 51.9553 92.2935 50.5153ZM94.1655 50.1193C94.2135 50.1193 94.1655 50.0353 94.0215 49.8673C93.9015 49.6753 93.7695 49.4833 93.6255 49.2913C93.4815 49.0993 93.3975 49.0033 93.3735 49.0033C93.3255 49.0033 93.3615 49.0993 93.4815 49.2913C93.6255 49.4833 93.7695 49.6753 93.9135 49.8673C94.0575 50.0353 94.1415 50.1193 94.1655 50.1193ZM93.1935 48.8233C93.2655 48.8233 93.3015 48.7873 93.3015 48.7153C93.3015 48.6433 93.2655 48.6073 93.1935 48.6073C93.1455 48.6073 93.1215 48.6433 93.1215 48.7153C93.1215 48.7873 93.1455 48.8233 93.1935 48.8233ZM92.9415 48.3553C92.9415 48.2833 92.9055 48.2473 92.8335 48.2473C92.7615 48.2473 92.7255 48.2833 92.7255 48.3553C92.7255 48.4033 92.7615 48.4273 92.8335 48.4273C92.9055 48.4273 92.9415 48.4033 92.9415 48.3553ZM86.5695 61.0993C86.8575 61.0033 87.0015 60.9073 87.0015 60.8113C87.0015 60.7153 87.2175 60.5593 87.6495 60.3433C88.0815 60.1273 88.2975 59.9833 88.2975 59.9113C88.2975 59.8393 88.4415 59.7193 88.7295 59.5513C89.0415 59.3593 89.3415 59.2033 89.6295 59.0833C89.8455 58.9873 89.9535 58.8913 89.9535 58.7953C89.9535 58.6993 90.0375 58.6753 90.2055 58.7233C90.3495 58.7713 90.5655 58.6753 90.8535 58.4353L91.3215 58.0753L90.9975 56.9233C90.8295 56.1793 90.7455 55.4233 90.7455 54.6553C90.7455 54.5593 90.7455 54.3913 90.7455 54.1513C90.7695 53.8873 90.7815 53.6833 90.7815 53.5393C90.7815 53.3713 90.7815 53.1433 90.7815 52.8553C90.8055 52.5433 90.8175 52.3153 90.8175 52.1713C90.8175 50.1313 90.5655 48.3553 90.0615 46.8433C89.6295 45.6193 89.4135 44.6113 89.4135 43.8193C89.4135 43.4353 89.4855 43.2433 89.6295 43.2433C89.8455 43.2433 89.9895 43.1233 90.0615 42.8833C90.1335 42.6913 90.2175 42.5953 90.3135 42.5953C90.5295 42.5953 90.7935 42.8833 91.1055 43.4593C91.4175 44.0353 91.6215 44.6473 91.7175 45.2953C91.7655 45.6793 91.9455 46.1233 92.2575 46.6273C92.5695 47.1073 93.2775 48.0913 94.3815 49.5793C96.1335 51.8593 97.2495 53.2393 97.7295 53.7193C98.1135 54.0793 98.3895 54.2953 98.5575 54.3673C98.7495 54.4153 99.1695 54.4393 99.8175 54.4393C100.682 54.4393 101.174 54.3433 101.294 54.1513C101.39 53.9593 101.546 53.8633 101.762 53.8633C101.978 53.8633 102.314 53.9833 102.77 54.2233C103.154 54.4393 103.394 54.6913 103.49 54.9793C103.61 55.2673 103.718 55.9033 103.814 56.8873C103.838 57.0553 103.85 57.2593 103.85 57.4993C103.85 57.9073 103.742 58.2313 103.526 58.4713C103.31 58.7593 103.178 58.8193 103.13 58.6513C103.13 58.5073 103.058 58.4833 102.914 58.5793C102.626 58.7953 102.11 58.9033 101.366 58.9033C100.91 58.9033 100.574 58.8793 100.358 58.8313C100.046 58.7593 99.7815 58.7233 99.5655 58.7233C99.3015 58.7233 98.8215 58.8313 98.1255 59.0473C96.5415 59.5753 94.7295 60.3553 92.6895 61.3873C90.6735 62.4193 89.1495 63.3433 88.1175 64.1593C87.5655 64.5913 86.9415 65.1793 86.2455 65.9233C85.5495 66.6433 85.1415 67.1473 85.0215 67.4353C84.8535 67.7473 84.7695 67.9993 84.7695 68.1913C84.7695 68.3833 84.8175 68.5753 84.9135 68.7673C85.0095 68.9833 85.0575 69.3553 85.0575 69.8833C85.0575 70.5553 84.9855 70.9513 84.8415 71.0713C84.7935 71.1193 84.5775 71.0833 84.1935 70.9633C83.7855 70.8433 83.5095 70.5433 83.3655 70.0633C83.2695 69.7033 83.1975 69.5113 83.1495 69.4873C83.1255 69.4633 83.0775 69.4993 83.0055 69.5953C83.0055 69.6193 82.9935 69.6433 82.9695 69.6673C82.8975 69.7873 82.8375 69.8593 82.7895 69.8833C82.7655 69.9313 82.7295 69.9193 82.6815 69.8473C82.6575 69.7993 82.6095 69.6913 82.5375 69.5233C82.4175 69.2593 82.3575 68.9233 82.3575 68.5153C82.3575 68.0593 82.4415 67.4833 82.6095 66.7873C82.9935 65.1553 83.4495 64.0633 83.9775 63.5113C84.3855 63.0553 84.5895 62.8153 84.5895 62.7913C84.5895 62.6953 84.8655 62.4073 85.4175 61.9273C85.9935 61.4233 86.3775 61.1473 86.5695 61.0993ZM115.548 70.6393C115.548 70.7593 115.56 70.8193 115.584 70.8193C115.656 70.7953 115.68 70.6873 115.656 70.4953C115.656 70.4473 115.644 70.4113 115.62 70.3873C115.572 70.3393 115.548 70.3513 115.548 70.4233C115.524 70.4713 115.524 70.5433 115.548 70.6393ZM115.692 70.0633C115.692 69.9913 115.668 69.9553 115.62 69.9553C115.548 69.9553 115.512 69.9913 115.512 70.0633C115.512 70.1113 115.548 70.1353 115.62 70.1353C115.668 70.1353 115.692 70.1113 115.692 70.0633ZM113.82 42.3793C114.732 41.4673 115.308 41.0113 115.548 41.0113C115.62 41.0113 115.692 41.0473 115.764 41.1193C115.788 41.1433 115.8 41.1793 115.8 41.2273C115.8 41.5153 115.116 42.4633 113.748 44.0713C112.332 45.8233 111.624 46.8193 111.624 47.0593C111.624 47.1553 111.864 47.1553 112.344 47.0593C113.112 46.9393 113.688 46.7953 114.072 46.6273C114.48 46.4353 114.876 46.1353 115.26 45.7273C115.716 45.2713 116.04 45.0433 116.232 45.0433C116.376 45.0433 116.448 45.1633 116.448 45.4033C116.448 45.5713 116.544 45.6553 116.736 45.6553C116.88 45.6553 116.952 45.7153 116.952 45.8353C116.952 45.9553 116.988 46.0393 117.06 46.0873C117.132 46.1113 117.168 46.1713 117.168 46.2673C117.168 46.4113 116.988 46.7713 116.628 47.3473C116.268 47.9233 116.088 48.3433 116.088 48.6073C116.088 48.8233 116.016 48.9793 115.872 49.0753C115.632 49.2433 115.32 50.0833 114.936 51.5953C114.744 52.4113 114.564 53.0953 114.396 53.6473C114.348 53.7913 114.324 53.9593 114.324 54.1513C114.324 54.3913 114.444 54.5113 114.684 54.5113C114.9 54.5113 115.224 54.4393 115.656 54.2953C115.848 54.2473 116.184 54.1393 116.664 53.9713C117.144 53.8033 117.54 53.6833 117.852 53.6113C118.188 53.5153 118.5 53.4673 118.788 53.4673C118.836 53.4433 118.872 53.4793 118.896 53.5753C118.944 53.6473 118.968 53.7433 118.968 53.8633C118.968 54.1513 119.052 54.2953 119.22 54.2953C119.436 54.2953 119.544 54.4273 119.544 54.6913C119.544 55.1473 119.172 56.2033 118.428 57.8593C117.492 59.9713 116.952 61.3633 116.808 62.0353C116.688 62.7073 116.544 64.7353 116.376 68.1193C116.16 71.3833 115.896 73.0153 115.584 73.0153L115.512 72.9433C115.464 72.8953 115.404 72.9433 115.332 73.0873C115.26 73.2553 115.176 73.4953 115.08 73.8073C114.84 74.7673 114.576 75.2473 114.288 75.2473C114.192 75.2473 114.084 75.1873 113.964 75.0673C113.796 74.8993 113.688 74.6593 113.64 74.3473C113.64 73.9873 113.616 73.7353 113.568 73.5913C113.52 73.4473 113.496 72.0313 113.496 69.3433C113.496 66.6553 113.52 65.2273 113.568 65.0593C113.568 64.9873 113.58 64.8913 113.604 64.7713C113.628 64.6273 113.652 64.4593 113.676 64.2673C113.7 64.0753 113.724 63.9073 113.748 63.7633C113.916 62.5393 114.42 61.0273 115.26 59.2273C115.812 58.1233 116.088 57.3793 116.088 56.9953C116.088 56.8513 116.04 56.7793 115.944 56.7793C115.824 56.7793 115.524 56.9353 115.044 57.2473C114.684 57.4633 114.3 57.6793 113.892 57.8953C113.676 57.9913 113.172 58.6273 112.38 59.8033C111.588 60.9793 111.132 61.7593 111.012 62.1433C110.964 62.3113 110.844 62.4793 110.652 62.6473C110.46 62.7913 110.292 62.8633 110.148 62.8633C110.076 62.8633 110.016 62.8393 109.968 62.7913C109.848 62.6713 109.728 62.3353 109.608 61.7833C109.536 61.5433 109.5 61.3393 109.5 61.1713C109.5 60.9313 109.764 60.2113 110.292 59.0113C110.988 57.4993 111.636 55.7953 112.236 53.8993C112.836 52.0033 113.136 50.7193 113.136 50.0473C113.136 49.9033 113.124 49.8073 113.1 49.7593C112.98 49.4953 112.908 49.3633 112.884 49.3633C112.836 49.3633 112.608 49.4233 112.2 49.5433C111.744 49.6873 111 49.8193 109.968 49.9393C109.344 49.9873 108.984 50.0113 108.888 50.0113C108.504 50.0113 108.24 49.9633 108.096 49.8673C107.976 49.7713 107.916 49.5913 107.916 49.3273C107.916 49.0633 108.072 48.6313 108.384 48.0313C108.72 47.4313 108.984 47.0833 109.176 46.9873C109.464 46.8193 110.076 46.2433 111.012 45.2593C112.068 44.1553 113.004 43.1953 113.82 42.3793ZM126.331 63.8713C126.331 63.4873 126.271 63.2953 126.151 63.2953C126.031 63.2953 125.971 63.4393 125.971 63.7273C125.971 64.1113 126.043 64.3033 126.187 64.3033C126.283 64.3033 126.331 64.1593 126.331 63.8713ZM126.187 61.0993C126.139 59.8753 126.091 59.2633 126.043 59.2633C125.995 59.2633 125.971 59.8873 125.971 61.1353C125.971 62.4073 126.007 63.0433 126.079 63.0433C126.151 63.0433 126.187 62.5753 126.187 61.6393V61.0993ZM125.971 58.9393C125.971 58.8673 125.947 58.8313 125.899 58.8313C125.827 58.8313 125.791 58.8673 125.791 58.9393C125.791 58.9873 125.827 59.0113 125.899 59.0113C125.947 59.0113 125.971 58.9873 125.971 58.9393ZM125.791 57.0313C125.791 56.9833 125.695 56.9593 125.503 56.9593C125.287 56.9593 125.227 57.0313 125.323 57.1753C125.371 57.2713 125.455 57.2953 125.575 57.2473C125.719 57.1993 125.791 57.1273 125.791 57.0313ZM135.907 42.8833C136.891 42.5233 137.479 42.3433 137.671 42.3433C137.791 42.3433 137.863 42.3673 137.887 42.4153C137.911 42.4393 137.923 42.4993 137.923 42.5953C137.923 42.8113 137.827 43.0993 137.635 43.4593C137.467 43.7953 137.287 44.0233 137.095 44.1433C135.967 44.8393 135.271 45.2833 135.007 45.4753C134.767 45.6433 134.011 46.2433 132.739 47.2753C131.227 48.4513 130.447 49.0513 130.399 49.0753C130.183 49.1953 130.075 49.3513 130.075 49.5433C130.075 49.6633 130.195 49.7233 130.435 49.7233C130.483 49.7233 130.747 49.6993 131.227 49.6513C131.947 49.5793 132.667 49.5433 133.387 49.5433C134.203 49.5433 134.839 49.5793 135.295 49.6513C135.631 49.7233 135.835 49.8073 135.907 49.9033C135.979 49.9753 136.015 50.1913 136.015 50.5513C136.015 51.0313 135.679 51.6913 135.007 52.5313C133.735 54.0913 132.271 55.3153 130.615 56.2033L129.211 56.9593L129.427 58.9753C129.547 60.2233 129.607 61.3513 129.607 62.3593C129.607 64.9273 129.295 67.4353 128.671 69.8833C128.503 70.5553 128.239 71.3113 127.879 72.1513C127.543 72.9913 127.303 73.4713 127.159 73.5913C127.015 73.7113 126.871 73.9273 126.727 74.2393C126.655 74.4313 126.607 74.5273 126.583 74.5273L126.547 74.0953C126.499 73.6873 126.427 73.4833 126.331 73.4833C126.211 73.4833 126.151 72.8353 126.151 71.5393C126.151 70.5553 126.163 69.7153 126.187 69.0193C126.187 68.6593 126.187 68.1793 126.187 67.5793C126.211 66.9793 126.223 66.5713 126.223 66.3553C126.223 65.3233 126.199 64.8073 126.151 64.8073C126.079 64.8073 126.019 65.9233 125.971 68.1553C125.947 70.2673 125.899 71.3233 125.827 71.3233C125.707 71.3233 125.623 69.2473 125.575 65.0953C125.503 60.7273 125.407 58.4233 125.287 58.1833C125.047 57.4633 124.927 57.0313 124.927 56.8873C124.927 56.6953 125.023 56.5993 125.215 56.5993C125.431 56.5993 125.539 56.4913 125.539 56.2753C125.539 56.1073 125.899 55.8793 126.619 55.5913C128.731 54.7993 130.183 54.0193 130.975 53.2513C131.455 52.7953 131.695 52.5313 131.695 52.4593C131.695 52.4113 131.599 52.3513 131.407 52.2793C131.263 52.2313 130.999 52.2073 130.615 52.2073C128.935 52.2073 127.135 52.3993 125.215 52.7833C124.615 52.9033 124.207 52.9633 123.991 52.9633C123.751 52.9633 123.631 52.9153 123.631 52.8193C123.631 52.7233 123.703 52.6273 123.847 52.5313C124.015 52.3873 124.099 52.2553 124.099 52.1353C124.099 52.0153 124.003 51.9553 123.811 51.9553C123.571 51.9553 123.511 51.8233 123.631 51.5593C123.703 51.3913 123.835 51.2593 124.027 51.1633C124.267 51.0433 124.951 50.5873 126.079 49.7953C127.207 49.0033 127.855 48.5593 128.023 48.4633C128.839 47.9593 129.247 47.5873 129.247 47.3473C129.247 47.3233 129.223 47.3113 129.175 47.3113C129.103 47.3113 128.467 47.5633 127.267 48.0673C126.067 48.5713 125.275 48.8593 124.891 48.9313C124.555 48.9793 124.351 48.9793 124.279 48.9313C124.207 48.8593 124.171 48.6913 124.171 48.4273C124.171 48.1633 124.459 47.8993 125.035 47.6353C126.355 46.9633 128.371 46.0513 131.083 44.8993C131.563 44.7073 132.307 44.3953 133.315 43.9633C134.323 43.5073 135.187 43.1473 135.907 42.8833ZM161.312 69.3073C161.312 69.2593 161.288 69.2353 161.24 69.2353C161.168 69.2353 161.132 69.2593 161.132 69.3073C161.132 69.3793 161.168 69.4153 161.24 69.4153C161.288 69.4153 161.312 69.3793 161.312 69.3073ZM161.348 68.1193C161.348 68.2873 161.36 68.3713 161.384 68.3713L161.456 68.0113C161.456 67.9633 161.456 67.9153 161.456 67.8673C161.408 67.9153 161.372 67.9993 161.348 68.1193ZM161.708 65.7073C161.708 65.8753 161.744 65.9113 161.816 65.8153C161.888 65.7193 161.888 65.6353 161.816 65.5633C161.768 65.5633 161.732 65.6113 161.708 65.7073ZM155.84 49.6873C156.104 49.6153 156.296 49.5793 156.416 49.5793C156.584 49.5793 156.764 49.6633 156.956 49.8313C157.244 50.0713 157.652 50.3113 158.18 50.5513L159.008 50.9473L158.972 52.0273C158.924 52.7473 158.852 53.1793 158.756 53.3233C158.612 53.4673 158.54 54.6433 158.54 56.8513C158.54 59.4913 158.624 60.8473 158.792 60.9193C158.84 60.9433 159.224 60.9793 159.944 61.0273C160.712 61.0753 161.888 61.1833 163.472 61.3513C165.08 61.4953 165.884 61.5913 165.884 61.6393C165.884 61.6873 165.632 62.2633 165.128 63.3673C164.576 64.4713 164.3 65.1313 164.3 65.3473C164.3 65.5393 163.76 66.6793 162.68 68.7673C161.624 70.8553 161.012 71.9593 160.844 72.0793C160.748 72.1513 160.592 72.4873 160.376 73.0873C160.184 73.7113 160.052 74.0593 159.98 74.1313L159.908 74.1673C159.884 74.1673 159.872 74.1193 159.872 74.0233C159.872 73.7593 160.112 72.3793 160.592 69.8833C160.928 68.2273 161.156 66.9073 161.276 65.9233L161.384 64.8073L160.556 64.6993C159.908 64.6273 159.416 64.5913 159.08 64.5913C158.624 64.5913 158.36 64.6873 158.288 64.8793C158.168 65.1913 158.024 66.2593 157.856 68.0833C157.664 69.9793 157.472 71.2873 157.28 72.0073C157.112 72.7513 156.824 73.3513 156.416 73.8073L155.768 74.4913L155.732 73.3033C155.732 73.2793 155.732 73.2313 155.732 73.1593L155.66 72.4753C155.636 72.4753 155.612 72.5353 155.588 72.6553C155.54 72.8233 155.492 72.9553 155.444 73.0513C155.396 73.1473 155.348 73.1833 155.3 73.1593C155.012 73.0873 154.82 71.5033 154.724 68.4073C154.676 66.5353 154.592 65.4073 154.472 65.0233C154.352 64.6153 154.016 64.4113 153.464 64.4113H152.924H152.492C152.06 64.4113 151.748 64.3873 151.556 64.3393C151.508 64.3153 151.436 64.3033 151.34 64.3033C151.196 64.3033 151.124 64.3873 151.124 64.5553C151.124 64.8193 151.28 65.2273 151.592 65.7793C151.928 66.3313 152.072 66.6313 152.024 66.6793L151.52 66.9673C151.328 67.0633 151.184 67.1113 151.088 67.1113C150.752 67.1113 150.236 66.6433 149.54 65.7073C148.964 64.9633 148.628 64.5913 148.532 64.5913C148.484 64.5913 148.268 64.4473 147.884 64.1593C147.524 63.8713 147.272 63.7273 147.128 63.7273C147.104 63.7273 147.068 63.7393 147.02 63.7633C146.924 63.8353 146.672 63.7753 146.264 63.5833C145.88 63.4153 145.484 63.3073 145.076 63.2593C144.716 63.2353 144.536 63.0913 144.536 62.8273C144.536 62.6113 144.284 62.3473 143.78 62.0353C143.276 61.6993 143 61.4473 142.952 61.2793C142.952 61.1113 142.784 60.9673 142.448 60.8473C142.208 60.7513 142.088 60.6553 142.088 60.5593C142.088 60.2473 142.76 60.0913 144.104 60.0913C144.296 60.0913 144.632 60.1153 145.112 60.1633C146 60.2593 147.596 60.3673 149.9 60.4873C152.204 60.6073 153.764 60.6673 154.58 60.6673C154.628 60.6673 154.76 60.6553 154.976 60.6313C155.024 60.5833 155.096 59.5993 155.192 57.6793L155.3 54.8353L154.688 54.2593C154.4 53.9713 154.148 53.8033 153.932 53.7553C153.716 53.6833 153.164 53.6473 152.276 53.6473H150.404L150.584 54.2233C150.656 54.6073 150.788 54.9073 150.98 55.1233C151.004 55.1713 151.148 55.3753 151.412 55.7353C151.676 56.0953 151.904 56.3953 152.096 56.6353C152.672 57.3793 152.96 57.9073 152.96 58.2193C152.96 58.3873 152.876 58.4713 152.708 58.4713C151.964 58.4713 150.644 57.3073 148.748 54.9793C147.98 54.0913 147.296 53.3833 146.696 52.8553C146.048 52.3513 145.724 52.0273 145.724 51.8833C145.724 51.6913 145.94 51.5353 146.372 51.4153C146.66 51.3673 146.84 51.3433 146.912 51.3433C147.176 51.3433 147.488 51.4273 147.848 51.5953C148.352 51.8353 149.096 51.9553 150.08 51.9553C150.2 51.9553 150.404 51.9553 150.692 51.9553C151.004 51.9313 151.268 51.9193 151.484 51.9193C153.356 51.8953 154.376 51.7633 154.544 51.5233C154.688 51.3313 154.844 51.2353 155.012 51.2353C155.18 51.2353 155.228 51.0433 155.156 50.6593C155.132 50.5873 155.12 50.4913 155.12 50.3713C155.12 50.0113 155.36 49.7833 155.84 49.6873ZM189.191 69.3073C189.191 69.2593 189.167 69.2353 189.119 69.2353C189.047 69.2353 189.011 69.2593 189.011 69.3073C189.011 69.3793 189.047 69.4153 189.119 69.4153C189.167 69.4153 189.191 69.3793 189.191 69.3073ZM189.227 68.1193C189.227 68.2873 189.239 68.3713 189.263 68.3713L189.335 68.0113C189.335 67.9633 189.335 67.9153 189.335 67.8673C189.287 67.9153 189.251 67.9993 189.227 68.1193ZM189.587 65.7073C189.587 65.8753 189.623 65.9113 189.695 65.8153C189.767 65.7193 189.767 65.6353 189.695 65.5633C189.647 65.5633 189.611 65.6113 189.587 65.7073ZM183.719 49.6873C183.983 49.6153 184.175 49.5793 184.295 49.5793C184.463 49.5793 184.643 49.6633 184.835 49.8313C185.123 50.0713 185.531 50.3113 186.059 50.5513L186.887 50.9473L186.851 52.0273C186.803 52.7473 186.731 53.1793 186.635 53.3233C186.491 53.4673 186.419 54.6433 186.419 56.8513C186.419 59.4913 186.503 60.8473 186.671 60.9193C186.719 60.9433 187.103 60.9793 187.823 61.0273C188.591 61.0753 189.767 61.1833 191.351 61.3513C192.959 61.4953 193.763 61.5913 193.763 61.6393C193.763 61.6873 193.511 62.2633 193.007 63.3673C192.455 64.4713 192.179 65.1313 192.179 65.3473C192.179 65.5393 191.639 66.6793 190.559 68.7673C189.503 70.8553 188.891 71.9593 188.723 72.0793C188.627 72.1513 188.471 72.4873 188.255 73.0873C188.063 73.7113 187.931 74.0593 187.859 74.1313L187.787 74.1673C187.763 74.1673 187.751 74.1193 187.751 74.0233C187.751 73.7593 187.991 72.3793 188.471 69.8833C188.807 68.2273 189.035 66.9073 189.155 65.9233L189.263 64.8073L188.435 64.6993C187.787 64.6273 187.295 64.5913 186.959 64.5913C186.503 64.5913 186.239 64.6873 186.167 64.8793C186.047 65.1913 185.903 66.2593 185.735 68.0833C185.543 69.9793 185.351 71.2873 185.159 72.0073C184.991 72.7513 184.703 73.3513 184.295 73.8073L183.647 74.4913L183.611 73.3033C183.611 73.2793 183.611 73.2313 183.611 73.1593L183.539 72.4753C183.515 72.4753 183.491 72.5353 183.467 72.6553C183.419 72.8233 183.371 72.9553 183.323 73.0513C183.275 73.1473 183.227 73.1833 183.179 73.1593C182.891 73.0873 182.699 71.5033 182.603 68.4073C182.555 66.5353 182.471 65.4073 182.351 65.0233C182.231 64.6153 181.895 64.4113 181.343 64.4113H180.803H180.371C179.939 64.4113 179.627 64.3873 179.435 64.3393C179.387 64.3153 179.315 64.3033 179.219 64.3033C179.075 64.3033 179.003 64.3873 179.003 64.5553C179.003 64.8193 179.159 65.2273 179.471 65.7793C179.807 66.3313 179.951 66.6313 179.903 66.6793L179.399 66.9673C179.207 67.0633 179.063 67.1113 178.967 67.1113C178.631 67.1113 178.115 66.6433 177.419 65.7073C176.843 64.9633 176.507 64.5913 176.411 64.5913C176.363 64.5913 176.147 64.4473 175.763 64.1593C175.403 63.8713 175.151 63.7273 175.007 63.7273C174.983 63.7273 174.947 63.7393 174.899 63.7633C174.803 63.8353 174.551 63.7753 174.143 63.5833C173.759 63.4153 173.363 63.3073 172.955 63.2593C172.595 63.2353 172.415 63.0913 172.415 62.8273C172.415 62.6113 172.163 62.3473 171.659 62.0353C171.155 61.6993 170.879 61.4473 170.831 61.2793C170.831 61.1113 170.663 60.9673 170.327 60.8473C170.087 60.7513 169.967 60.6553 169.967 60.5593C169.967 60.2473 170.639 60.0913 171.983 60.0913C172.175 60.0913 172.511 60.1153 172.991 60.1633C173.879 60.2593 175.475 60.3673 177.779 60.4873C180.083 60.6073 181.643 60.6673 182.459 60.6673C182.507 60.6673 182.639 60.6553 182.855 60.6313C182.903 60.5833 182.975 59.5993 183.071 57.6793L183.179 54.8353L182.567 54.2593C182.279 53.9713 182.027 53.8033 181.811 53.7553C181.595 53.6833 181.043 53.6473 180.155 53.6473H178.283L178.463 54.2233C178.535 54.6073 178.667 54.9073 178.859 55.1233C178.883 55.1713 179.027 55.3753 179.291 55.7353C179.555 56.0953 179.783 56.3953 179.975 56.6353C180.551 57.3793 180.839 57.9073 180.839 58.2193C180.839 58.3873 180.755 58.4713 180.587 58.4713C179.843 58.4713 178.523 57.3073 176.627 54.9793C175.859 54.0913 175.175 53.3833 174.575 52.8553C173.927 52.3513 173.603 52.0273 173.603 51.8833C173.603 51.6913 173.819 51.5353 174.251 51.4153C174.539 51.3673 174.719 51.3433 174.791 51.3433C175.055 51.3433 175.367 51.4273 175.727 51.5953C176.231 51.8353 176.975 51.9553 177.959 51.9553C178.079 51.9553 178.283 51.9553 178.571 51.9553C178.883 51.9313 179.147 51.9193 179.363 51.9193C181.235 51.8953 182.255 51.7633 182.423 51.5233C182.567 51.3313 182.723 51.2353 182.891 51.2353C183.059 51.2353 183.107 51.0433 183.035 50.6593C183.011 50.5873 182.999 50.4913 182.999 50.3713C182.999 50.0113 183.239 49.7833 183.719 49.6873ZM200.546 63.8713C200.546 63.4873 200.486 63.2953 200.366 63.2953C200.246 63.2953 200.186 63.4393 200.186 63.7273C200.186 64.1113 200.258 64.3033 200.402 64.3033C200.498 64.3033 200.546 64.1593 200.546 63.8713ZM200.402 61.0993C200.354 59.8753 200.306 59.2633 200.258 59.2633C200.21 59.2633 200.186 59.8873 200.186 61.1353C200.186 62.4073 200.222 63.0433 200.294 63.0433C200.366 63.0433 200.402 62.5753 200.402 61.6393V61.0993ZM200.186 58.9393C200.186 58.8673 200.162 58.8313 200.114 58.8313C200.042 58.8313 200.006 58.8673 200.006 58.9393C200.006 58.9873 200.042 59.0113 200.114 59.0113C200.162 59.0113 200.186 58.9873 200.186 58.9393ZM200.006 57.0313C200.006 56.9833 199.91 56.9593 199.718 56.9593C199.502 56.9593 199.442 57.0313 199.538 57.1753C199.586 57.2713 199.67 57.2953 199.79 57.2473C199.934 57.1993 200.006 57.1273 200.006 57.0313ZM210.122 42.8833C211.106 42.5233 211.694 42.3433 211.886 42.3433C212.006 42.3433 212.078 42.3673 212.102 42.4153C212.126 42.4393 212.138 42.4993 212.138 42.5953C212.138 42.8113 212.042 43.0993 211.85 43.4593C211.682 43.7953 211.502 44.0233 211.31 44.1433C210.182 44.8393 209.486 45.2833 209.222 45.4753C208.982 45.6433 208.226 46.2433 206.954 47.2753C205.442 48.4513 204.662 49.0513 204.614 49.0753C204.398 49.1953 204.29 49.3513 204.29 49.5433C204.29 49.6633 204.41 49.7233 204.65 49.7233C204.698 49.7233 204.962 49.6993 205.442 49.6513C206.162 49.5793 206.882 49.5433 207.602 49.5433C208.418 49.5433 209.054 49.5793 209.51 49.6513C209.846 49.7233 210.05 49.8073 210.122 49.9033C210.194 49.9753 210.23 50.1913 210.23 50.5513C210.23 51.0313 209.894 51.6913 209.222 52.5313C207.95 54.0913 206.486 55.3153 204.83 56.2033L203.426 56.9593L203.642 58.9753C203.762 60.2233 203.822 61.3513 203.822 62.3593C203.822 64.9273 203.51 67.4353 202.886 69.8833C202.718 70.5553 202.454 71.3113 202.094 72.1513C201.758 72.9913 201.518 73.4713 201.374 73.5913C201.23 73.7113 201.086 73.9273 200.942 74.2393C200.87 74.4313 200.822 74.5273 200.798 74.5273L200.762 74.0953C200.714 73.6873 200.642 73.4833 200.546 73.4833C200.426 73.4833 200.366 72.8353 200.366 71.5393C200.366 70.5553 200.378 69.7153 200.402 69.0193C200.402 68.6593 200.402 68.1793 200.402 67.5793C200.426 66.9793 200.438 66.5713 200.438 66.3553C200.438 65.3233 200.414 64.8073 200.366 64.8073C200.294 64.8073 200.234 65.9233 200.186 68.1553C200.162 70.2673 200.114 71.3233 200.042 71.3233C199.922 71.3233 199.838 69.2473 199.79 65.0953C199.718 60.7273 199.622 58.4233 199.502 58.1833C199.262 57.4633 199.142 57.0313 199.142 56.8873C199.142 56.6953 199.238 56.5993 199.43 56.5993C199.646 56.5993 199.754 56.4913 199.754 56.2753C199.754 56.1073 200.114 55.8793 200.834 55.5913C202.946 54.7993 204.398 54.0193 205.19 53.2513C205.67 52.7953 205.91 52.5313 205.91 52.4593C205.91 52.4113 205.814 52.3513 205.622 52.2793C205.478 52.2313 205.214 52.2073 204.83 52.2073C203.15 52.2073 201.35 52.3993 199.43 52.7833C198.83 52.9033 198.422 52.9633 198.206 52.9633C197.966 52.9633 197.846 52.9153 197.846 52.8193C197.846 52.7233 197.918 52.6273 198.062 52.5313C198.23 52.3873 198.314 52.2553 198.314 52.1353C198.314 52.0153 198.218 51.9553 198.026 51.9553C197.786 51.9553 197.726 51.8233 197.846 51.5593C197.918 51.3913 198.05 51.2593 198.242 51.1633C198.482 51.0433 199.166 50.5873 200.294 49.7953C201.422 49.0033 202.07 48.5593 202.238 48.4633C203.054 47.9593 203.462 47.5873 203.462 47.3473C203.462 47.3233 203.438 47.3113 203.39 47.3113C203.318 47.3113 202.682 47.5633 201.482 48.0673C200.282 48.5713 199.49 48.8593 199.106 48.9313C198.77 48.9793 198.566 48.9793 198.494 48.9313C198.422 48.8593 198.386 48.6913 198.386 48.4273C198.386 48.1633 198.674 47.8993 199.25 47.6353C200.57 46.9633 202.586 46.0513 205.298 44.8993C205.778 44.7073 206.522 44.3953 207.53 43.9633C208.538 43.5073 209.402 43.1473 210.122 42.8833ZM222.063 55.7713C222.063 55.5553 222.015 55.4233 221.919 55.3753C221.847 55.3273 221.607 55.3033 221.199 55.3033C220.383 55.3033 219.975 55.4233 219.975 55.6633C219.975 55.8073 220.107 56.0713 220.371 56.4553C220.683 56.9593 220.959 57.2113 221.199 57.2113H221.307C221.499 57.1393 221.583 57.0073 221.559 56.8153C221.535 56.6233 221.595 56.4793 221.739 56.3833C221.955 56.2633 222.063 56.0593 222.063 55.7713ZM231.351 53.8633C231.375 53.8393 231.315 53.8033 231.171 53.7553C230.979 53.7313 230.703 53.7073 230.343 53.6833H230.127C229.215 53.6833 227.823 53.9353 225.951 54.4393C225.471 54.6073 224.943 54.7513 224.367 54.8713C223.719 54.9913 223.395 55.2073 223.395 55.5193C223.395 55.7353 223.611 55.8433 224.043 55.8433C224.379 55.8433 224.955 55.7713 225.771 55.6273C226.587 55.4833 227.019 55.3753 227.067 55.3033C227.091 55.2793 227.799 55.0393 229.191 54.5833C230.607 54.1273 231.327 53.8873 231.351 53.8633ZM222.639 49.0033C222.759 48.8113 222.867 48.7153 222.963 48.7153C223.227 48.7153 223.359 49.2673 223.359 50.3713C223.359 51.1153 223.383 51.5953 223.431 51.8113C223.503 52.0033 223.695 52.0993 224.007 52.0993C224.103 52.0993 224.319 52.0753 224.655 52.0273C225.327 51.9313 225.735 51.8353 225.879 51.7393C225.999 51.6193 226.743 51.4513 228.111 51.2353C230.415 50.8513 231.867 50.6593 232.467 50.6593H232.863C233.319 50.7073 233.547 50.6473 233.547 50.4793C233.547 50.3353 233.667 50.3353 233.907 50.4793C234.147 50.5993 234.423 50.6593 234.735 50.6593C235.095 50.6593 235.599 50.5633 236.247 50.3713C236.871 50.1793 237.219 50.0833 237.291 50.0833C237.411 50.0833 237.471 50.1793 237.471 50.3713C237.471 50.5633 237.555 50.6593 237.723 50.6593C237.867 50.6593 238.011 50.7673 238.155 50.9833C238.323 51.1993 238.359 51.3553 238.263 51.4513C238.191 51.5233 238.215 51.6433 238.335 51.8113C238.479 52.0273 238.575 52.2793 238.623 52.5673C238.671 52.8793 238.575 53.0833 238.335 53.1793C238.143 53.2513 237.795 53.4433 237.291 53.7553C236.667 54.1633 235.683 54.6913 234.339 55.3393C233.019 55.9633 231.855 56.4433 230.847 56.7793C229.431 57.2593 228.723 57.6553 228.723 57.9673C228.723 58.1593 228.891 58.3633 229.227 58.5793C229.707 58.9393 230.055 59.1193 230.271 59.1193C230.367 59.1193 230.415 59.0833 230.415 59.0113C230.415 58.9633 230.463 58.9393 230.559 58.9393C230.871 58.9393 231.243 59.0473 231.675 59.2633C231.819 59.3833 231.891 59.3593 231.891 59.1913C231.891 59.0473 232.155 59.2633 232.683 59.8393C233.187 60.4153 233.451 60.9433 233.475 61.4233C233.475 61.8313 233.547 62.2993 233.691 62.8273L233.907 63.6193C233.907 63.7633 233.823 63.8353 233.655 63.8353C233.631 63.8353 233.475 63.8113 233.187 63.7633C232.827 63.7153 232.611 63.7153 232.539 63.7633C232.491 63.7873 232.455 63.9193 232.431 64.1593C232.431 64.4953 232.407 64.7593 232.359 64.9513C232.335 65.0713 232.275 65.6593 232.179 66.7153C232.059 68.2513 231.711 70.1353 231.135 72.3673C230.727 73.9753 230.463 74.9233 230.343 75.2113C230.247 75.4993 230.091 75.6553 229.875 75.6793C229.851 75.6793 229.827 75.6793 229.803 75.6793C229.611 75.7033 229.479 75.6793 229.407 75.6073C229.335 75.5593 229.275 75.4033 229.227 75.1393C229.179 74.7553 229.155 74.3833 229.155 74.0233C229.155 72.9673 229.335 71.1433 229.695 68.5513C230.079 65.9833 230.295 64.4353 230.343 63.9073L230.451 62.2513L229.731 61.8193C229.371 61.5793 229.071 61.4233 228.831 61.3513C228.711 61.3033 228.279 61.0633 227.535 60.6313C225.951 59.6713 224.811 59.1793 224.115 59.1553L223.431 59.1193L223.395 60.9913C223.371 62.2633 223.263 62.8993 223.071 62.8993C222.591 62.8993 222.159 62.3713 221.775 61.3153C220.551 57.8833 219.207 55.8313 217.743 55.1593C217.023 54.8473 216.663 54.4513 216.663 53.9713C216.663 53.7553 216.603 53.6113 216.483 53.5393C216.363 53.4913 216.303 53.3713 216.303 53.1793C216.303 52.9153 216.423 52.7113 216.663 52.5673C216.951 52.3993 217.215 52.4113 217.455 52.6033C217.767 52.7953 218.283 52.8913 219.003 52.8913C219.651 52.8913 220.287 52.8193 220.911 52.6753C221.559 52.5313 221.943 52.3513 222.063 52.1353C222.111 52.0393 222.183 51.5353 222.279 50.6233C222.375 49.7593 222.495 49.2193 222.639 49.0033ZM87.625 94.4473C87.721 94.3033 87.829 94.2313 87.949 94.2313C88.093 94.2313 88.285 94.4593 88.525 94.9153C88.765 95.3713 88.885 96.3553 88.885 97.8673C88.885 100.051 88.681 102.139 88.273 104.131C88.201 104.467 88.117 104.923 88.021 105.499C87.925 106.051 87.829 106.507 87.733 106.867C87.637 107.227 87.493 107.575 87.301 107.911C87.133 108.271 87.013 108.451 86.941 108.451C86.917 108.475 86.881 108.427 86.833 108.307C86.665 107.947 86.581 106.783 86.581 104.815C86.581 103.039 86.653 101.611 86.797 100.531C86.965 98.9953 87.097 97.6633 87.193 96.5353C87.265 95.4073 87.409 94.7113 87.625 94.4473ZM80.245 111.079C80.245 111.031 80.209 111.007 80.137 111.007C80.065 111.007 80.029 111.031 80.029 111.079C80.029 111.151 80.065 111.187 80.137 111.187C80.209 111.187 80.245 111.151 80.245 111.079ZM80.425 92.8273C80.425 92.7553 80.377 92.7193 80.281 92.7193C80.185 92.6953 80.053 92.7073 79.885 92.7553C79.741 92.7793 79.585 92.8393 79.417 92.9353C78.721 93.2713 77.377 93.6553 75.385 94.0873C74.401 94.3033 73.909 94.4473 73.909 94.5193C73.909 94.5673 74.017 94.5913 74.233 94.5913C75.241 94.5913 76.225 94.4233 77.185 94.0873C79.345 93.3673 80.425 92.9473 80.425 92.8273ZM80.245 89.1913C80.245 89.1433 80.209 89.1193 80.137 89.1193C80.065 89.1193 80.029 89.1433 80.029 89.1913C80.029 89.2633 80.065 89.2993 80.137 89.2993C80.209 89.2993 80.245 89.2633 80.245 89.1913ZM78.481 88.4713C78.649 88.3513 78.733 88.2793 78.733 88.2553C78.733 88.2313 78.721 88.2193 78.697 88.2193L77.473 88.5073C76.753 88.7233 76.393 88.8433 76.393 88.8673C76.393 88.8913 76.465 88.9033 76.609 88.9033C77.473 88.9033 78.097 88.7593 78.481 88.4713ZM76.141 91.3513C76.045 91.3513 75.457 91.0993 74.377 90.5953C73.321 90.0913 72.769 89.8393 72.721 89.8393C72.649 89.8393 72.613 90.2473 72.613 91.0633C72.613 91.8793 72.649 92.5393 72.721 93.0433C72.769 93.4513 72.829 93.7153 72.901 93.8353C72.997 93.9313 73.189 94.0033 73.477 94.0513C73.549 94.0753 73.669 94.0873 73.837 94.0873C75.061 94.0873 76.849 93.6193 79.201 92.6833C80.041 92.3473 80.605 92.1793 80.893 92.1793C81.061 92.1793 81.145 92.2393 81.145 92.3593C81.145 92.5513 81.253 92.6473 81.469 92.6473C81.637 92.6473 81.697 92.5273 81.649 92.2873C81.625 92.0233 81.709 91.8913 81.901 91.8913C82.141 91.8913 82.261 91.9513 82.261 92.0713C82.261 92.1913 82.345 92.2513 82.513 92.2513C82.633 92.2513 82.753 92.3473 82.873 92.5393C82.993 92.7313 83.065 92.9233 83.089 93.1153C83.089 93.2113 83.365 93.5353 83.917 94.0873C84.397 94.5433 84.637 94.9033 84.637 95.1673C84.637 95.3353 84.625 95.4793 84.601 95.5993C84.505 96.1033 84.517 96.3553 84.637 96.3553C84.781 96.3553 84.793 96.6073 84.673 97.1113C84.529 97.6153 84.529 97.9393 84.673 98.0833C84.793 98.2033 84.853 98.5633 84.853 99.1633C84.853 99.7393 84.697 100.183 84.385 100.495C84.049 100.831 83.857 101.383 83.809 102.151C83.785 102.775 83.737 103.327 83.665 103.807C83.593 104.287 83.497 104.875 83.377 105.571C83.257 106.243 83.161 106.795 83.089 107.227C82.993 107.779 82.897 108.091 82.801 108.163C82.705 108.235 82.693 108.319 82.765 108.415C82.837 108.535 82.789 108.703 82.621 108.919C82.429 109.159 82.249 109.579 82.081 110.179C81.913 110.731 81.625 111.427 81.217 112.267L80.641 113.419L80.533 112.735C80.437 112.183 80.305 111.775 80.137 111.511C79.585 110.359 79.309 108.379 79.309 105.571V105.175C79.309 103.183 79.405 101.359 79.597 99.7033C79.693 98.8393 79.753 98.3833 79.777 98.3353C79.849 98.2153 79.849 97.9873 79.777 97.6513C79.729 97.4113 79.657 97.2553 79.561 97.1833C79.465 97.1113 79.297 97.0753 79.057 97.0753C78.601 97.0753 78.157 97.1353 77.725 97.2553C76.765 97.4953 75.457 97.6153 73.801 97.6153C73.129 97.6153 72.601 97.5673 72.217 97.4713C71.737 97.3033 71.497 97.1593 71.497 97.0393C71.497 96.9433 71.221 96.6193 70.669 96.0673C70.117 95.4913 69.841 95.0953 69.841 94.8793C69.841 94.7353 69.901 94.6513 70.021 94.6273C70.069 94.6033 70.213 93.4153 70.453 91.0633C70.693 88.7113 70.825 87.5233 70.849 87.4993C70.897 87.4513 71.245 87.5713 71.893 87.8593C72.277 88.0513 72.637 88.1593 72.973 88.1833C73.309 88.2073 73.621 88.2913 73.909 88.4353C74.293 88.6273 74.773 88.7233 75.349 88.7233C75.757 88.7233 75.997 88.6633 76.069 88.5433C76.141 88.4233 76.357 88.3633 76.717 88.3633C77.101 88.3633 77.617 88.2073 78.265 87.8953C78.913 87.5833 79.405 87.2593 79.741 86.9233C79.981 86.6353 80.101 86.4673 80.101 86.4193C80.101 86.2753 79.489 86.0953 78.265 85.8793C77.233 85.6873 76.369 85.3633 75.673 84.9073C75.145 84.5473 74.653 84.1273 74.197 83.6473C73.741 83.1433 73.513 82.7833 73.513 82.5673C73.513 82.5433 73.537 82.5073 73.585 82.4593C73.729 82.4353 73.849 82.3393 73.945 82.1713C73.969 82.1473 73.993 82.1353 74.017 82.1353C74.209 82.1353 74.533 82.3633 74.989 82.8193C75.541 83.3713 76.141 83.7073 76.789 83.8273C77.221 83.8993 77.581 83.9353 77.869 83.9353C78.253 83.9353 78.937 83.8153 79.921 83.5753C80.593 83.4073 80.929 83.2513 80.929 83.1073C80.929 83.0353 80.821 82.9993 80.605 82.9993C80.221 82.9993 80.377 82.8433 81.073 82.5313C81.769 82.1953 82.225 81.8593 82.441 81.5233C82.681 81.1633 82.933 80.9833 83.197 80.9833C83.221 80.9833 83.257 80.9953 83.305 81.0193C83.353 81.0193 83.401 81.0193 83.449 81.0193C83.857 81.0913 84.205 81.2953 84.493 81.6313C84.781 81.9673 85.045 82.1833 85.285 82.2793C85.501 82.3753 85.609 82.5073 85.609 82.6753C85.609 82.8193 85.753 82.9993 86.041 83.2153L86.437 83.5033L86.005 83.9713C85.717 84.2593 85.453 84.4513 85.213 84.5473C85.093 84.5953 84.997 84.6673 84.925 84.7633C84.853 84.8593 84.769 85.0273 84.673 85.2673L84.565 85.5913L84.421 86.0953C84.229 86.6473 83.641 87.8353 82.657 89.6593C82.417 90.0913 82.165 90.4153 81.901 90.6313C81.637 90.8473 81.217 91.0753 80.641 91.3153C79.897 91.6033 78.961 91.7473 77.833 91.7473C77.185 91.7473 76.789 91.6753 76.645 91.5313C76.525 91.4113 76.357 91.3513 76.141 91.3513ZM105.829 104.707C105.877 104.707 105.901 104.671 105.901 104.599C105.901 104.527 105.877 104.491 105.829 104.491C105.757 104.491 105.721 104.527 105.721 104.599C105.721 104.671 105.757 104.707 105.829 104.707ZM108.709 103.663C108.709 103.615 108.673 103.591 108.601 103.591C108.529 103.591 108.493 103.615 108.493 103.663C108.493 103.735 108.529 103.771 108.601 103.771C108.673 103.771 108.709 103.735 108.709 103.663ZM105.073 104.059C104.713 103.747 104.461 103.591 104.317 103.591L104.281 103.627C104.281 103.747 104.605 103.987 105.253 104.347C105.325 104.395 105.361 104.407 105.361 104.383C105.385 104.335 105.289 104.227 105.073 104.059ZM103.957 103.195C103.885 103.075 103.789 103.015 103.669 103.015C103.453 103.015 103.477 103.123 103.741 103.339L103.885 103.411C104.029 103.411 104.053 103.339 103.957 103.195ZM108.313 102.835C108.313 103.027 108.361 103.075 108.457 102.979C108.553 102.883 108.553 102.787 108.457 102.691C108.409 102.643 108.373 102.643 108.349 102.691C108.325 102.715 108.313 102.763 108.313 102.835ZM102.949 102.583C102.805 102.391 102.661 102.295 102.517 102.295C102.445 102.319 102.409 102.331 102.409 102.331C102.481 102.403 102.625 102.511 102.841 102.655L103.129 102.799C103.105 102.775 103.045 102.703 102.949 102.583ZM101.617 101.647C101.425 101.527 101.209 101.371 100.969 101.179C100.753 100.963 100.549 100.807 100.357 100.711C100.237 100.639 100.165 100.603 100.141 100.603C100.093 100.603 100.117 100.651 100.213 100.747C100.309 100.843 100.441 100.975 100.609 101.143C100.801 101.287 100.993 101.419 101.185 101.539C101.761 101.923 102.073 102.115 102.121 102.115C102.193 102.115 102.049 101.983 101.689 101.719L101.617 101.647ZM99.8172 100.387C99.6492 100.171 99.5052 100.063 99.3852 100.063C99.0972 100.063 99.1572 100.171 99.5652 100.387C99.5892 100.411 99.6252 100.435 99.6732 100.459C99.8652 100.579 99.9612 100.639 99.9612 100.639C99.9852 100.615 99.9372 100.531 99.8172 100.387ZM104.965 98.2633C104.269 95.9353 103.873 94.7713 103.777 94.7713C103.609 94.7713 102.805 95.4793 101.365 96.8953C99.9492 98.3113 99.2412 99.1033 99.2412 99.2713C99.2412 99.4153 100.033 100.027 101.617 101.107C104.617 103.195 106.225 104.239 106.441 104.239H106.477C106.501 104.215 106.513 104.155 106.513 104.059C106.513 103.867 106.429 103.471 106.261 102.871C106.021 102.079 105.589 100.543 104.965 98.2633ZM103.057 82.6753C103.129 82.4593 103.201 82.3513 103.273 82.3513L103.597 83.1073C103.693 83.6113 103.813 83.9353 103.957 84.0793C104.101 84.2713 104.509 85.9513 105.181 89.1193C105.325 89.6713 105.445 89.9953 105.541 90.0913C105.661 90.2113 105.721 90.4393 105.721 90.7753C105.721 91.1113 105.805 91.5553 105.973 92.1073C106.045 92.2993 106.237 92.9593 106.549 94.0873C106.885 95.1913 107.113 95.8873 107.233 96.1753C107.761 97.7113 108.289 99.5593 108.817 101.719C108.961 102.223 109.081 103.099 109.177 104.347C109.201 104.611 109.213 104.923 109.213 105.283C109.213 105.763 109.105 106.267 108.889 106.795C108.625 107.371 108.493 107.767 108.493 107.983C108.493 108.199 108.337 108.475 108.025 108.811C107.737 109.171 107.497 109.351 107.305 109.351C106.873 109.351 104.221 107.647 99.3492 104.239C97.7892 103.135 96.6852 102.583 96.0372 102.583C95.7972 102.583 95.3772 102.667 94.7772 102.835C94.0572 103.075 93.6252 103.195 93.4812 103.195C93.4092 103.195 93.2652 103.015 93.0492 102.655C92.9052 102.391 92.8332 102.151 92.8332 101.935C92.8332 101.719 92.8692 101.419 92.9412 101.035C93.0852 100.267 93.2532 99.7993 93.4452 99.6313C93.6132 99.4873 94.1532 99.2713 95.0652 98.9833C95.9772 98.6953 96.5052 98.5153 96.6492 98.4433C96.9372 98.2753 97.1652 98.1913 97.3332 98.1913C97.5252 98.1913 98.1972 97.6873 99.3492 96.6793C100.525 95.6473 101.401 94.7953 101.977 94.1233C102.745 93.2353 103.165 92.6113 103.237 92.2513C103.237 92.2273 103.237 92.1793 103.237 92.1073C103.261 92.0353 103.273 91.9753 103.273 91.9273C103.273 91.3993 103.189 90.5713 103.021 89.4433C102.877 88.3633 102.805 87.1273 102.805 85.7353C102.805 84.1993 102.889 83.1793 103.057 82.6753ZM125.859 102.583C125.859 102.535 125.703 102.403 125.391 102.187C125.151 102.067 125.019 102.031 124.995 102.079C125.139 102.295 125.391 102.463 125.751 102.583C125.823 102.607 125.859 102.607 125.859 102.583ZM119.919 98.6953C119.919 98.5993 119.799 98.4913 119.559 98.3713C119.487 98.3473 119.415 98.3233 119.343 98.2993C119.295 98.2753 119.259 98.2633 119.235 98.2633H119.163C119.163 98.3353 119.295 98.4433 119.559 98.5873C119.799 98.7073 119.919 98.7433 119.919 98.6953ZM118.803 97.8313C118.635 97.8313 118.599 97.8793 118.695 97.9753C118.791 98.0713 118.875 98.0713 118.947 97.9753C118.923 97.9033 118.875 97.8553 118.803 97.8313ZM118.263 97.6513C118.431 97.6513 118.431 97.5433 118.263 97.3273L118.155 97.2553C118.083 97.2553 118.047 97.3273 118.047 97.4713C118.047 97.5913 118.119 97.6513 118.263 97.6513ZM117.687 97.0033C117.687 96.9313 117.663 96.8953 117.615 96.8953C117.543 96.8953 117.507 96.9313 117.507 97.0033C117.507 97.0513 117.543 97.0753 117.615 97.0753C117.663 97.0753 117.687 97.0513 117.687 97.0033ZM117.003 96.6433C117.075 96.7153 117.159 96.7153 117.255 96.6433C117.351 96.5713 117.315 96.5353 117.147 96.5353C117.051 96.5593 117.003 96.5953 117.003 96.6433ZM116.787 96.3553C117.003 96.3553 116.979 96.2473 116.715 96.0313L116.571 95.9593C116.427 95.9593 116.403 96.0313 116.499 96.1753C116.571 96.2953 116.667 96.3553 116.787 96.3553ZM116.211 95.7073C116.211 95.6353 116.175 95.5993 116.103 95.5993C116.055 95.5993 116.031 95.6353 116.031 95.7073C116.031 95.7553 116.055 95.7793 116.103 95.7793C116.175 95.7793 116.211 95.7553 116.211 95.7073ZM115.635 95.3113C115.635 95.2633 115.611 95.2393 115.563 95.2393C115.491 95.2393 115.455 95.2633 115.455 95.3113C115.455 95.3833 115.491 95.4193 115.563 95.4193C115.611 95.4193 115.635 95.3833 115.635 95.3113ZM114.159 94.3033C113.991 94.3033 113.955 94.3513 114.051 94.4473C114.147 94.5433 114.231 94.5433 114.303 94.4473C114.279 94.3753 114.231 94.3273 114.159 94.3033ZM126.255 94.1953C126.351 94.0753 126.399 93.9793 126.399 93.9073C126.399 93.8353 126.063 93.7993 125.391 93.7993C123.135 93.7993 121.911 93.8953 121.719 94.0873C121.695 94.1113 121.683 94.1353 121.683 94.1593C121.683 94.3513 122.091 94.6993 122.907 95.2033C123.723 95.7073 124.299 95.9593 124.635 95.9593C124.803 95.9593 125.091 95.7553 125.499 95.3473C125.931 94.9393 126.147 94.6633 126.147 94.5193C126.147 94.4233 126.183 94.3153 126.255 94.1953ZM116.751 89.9473C116.751 89.8753 116.727 89.8393 116.679 89.8393C116.607 89.8393 116.571 89.8753 116.571 89.9473C116.571 89.9953 116.607 90.0193 116.679 90.0193C116.727 90.0193 116.751 89.9953 116.751 89.9473ZM125.355 89.6233C125.451 89.7193 125.535 89.7193 125.607 89.6233C125.703 89.5273 125.667 89.4793 125.499 89.4793C125.307 89.4793 125.259 89.5273 125.355 89.6233ZM124.347 89.6233C124.515 89.6953 124.635 89.6833 124.707 89.5873C124.755 89.5153 124.731 89.4793 124.635 89.4793C124.587 89.4793 124.527 89.4793 124.455 89.4793C124.359 89.4793 124.299 89.4913 124.275 89.5153C124.251 89.5393 124.275 89.5753 124.347 89.6233ZM123.267 89.5873C123.267 89.5153 123.231 89.4793 123.159 89.4793C123.111 89.4793 123.087 89.5153 123.087 89.5873C123.087 89.6353 123.111 89.6593 123.159 89.6593C123.231 89.6593 123.267 89.6353 123.267 89.5873ZM128.811 89.1913C128.811 89.1433 128.787 89.1193 128.739 89.1193C128.667 89.1193 128.631 89.1433 128.631 89.1913C128.631 89.2633 128.667 89.2993 128.739 89.2993C128.787 89.2993 128.811 89.2633 128.811 89.1913ZM119.451 89.4793L121.971 89.3713C123.675 89.2993 125.403 89.2153 127.155 89.1193C128.907 88.9993 129.831 88.8913 129.927 88.7953C129.975 88.7473 130.035 88.7233 130.107 88.7233C130.371 88.7233 130.683 88.9393 131.043 89.3713C131.427 89.8033 131.619 90.1993 131.619 90.5593C131.619 90.7753 131.487 91.2193 131.223 91.8913C130.983 92.5393 130.755 93.0553 130.539 93.4393C130.251 93.8473 129.927 94.1473 129.567 94.3393C129.063 94.5793 128.415 95.0833 127.623 95.8513C126.855 96.5473 126.471 96.9673 126.471 97.1113C126.471 97.1353 126.543 97.2433 126.687 97.4353C126.831 97.6033 127.275 97.9873 128.019 98.5873C128.523 98.9713 128.847 99.1633 128.991 99.1633C129.207 99.1633 129.483 99.0193 129.819 98.7313C130.179 98.4433 130.863 97.8193 131.871 96.8593C132.207 96.5473 132.459 96.3073 132.627 96.1393C134.331 94.5073 135.483 93.4513 136.083 92.9713C136.707 92.4913 137.571 91.9633 138.675 91.3873C139.803 90.7873 140.571 90.4873 140.979 90.4873H141.051C141.651 90.5353 141.879 90.6313 141.735 90.7753L141.555 90.8833C141.339 90.9793 139.719 92.8393 136.695 96.4633C133.791 99.9433 131.763 102.211 130.611 103.267C128.715 104.995 127.671 105.859 127.479 105.859C127.383 105.859 127.335 105.691 127.335 105.355C127.335 104.995 127.239 104.803 127.047 104.779C126.975 104.755 126.915 104.791 126.867 104.887C126.747 105.079 126.603 105.127 126.435 105.031C126.339 104.959 126.303 104.875 126.327 104.779C126.399 104.587 126.339 104.491 126.147 104.491C126.075 104.491 126.015 104.479 125.967 104.455C125.943 104.431 125.919 104.407 125.895 104.383C125.895 104.359 125.895 104.311 125.895 104.239C125.919 104.143 125.931 104.083 125.931 104.059C125.931 103.579 125.163 102.859 123.627 101.899C122.859 101.443 122.319 101.215 122.007 101.215C121.695 101.215 121.359 101.347 120.999 101.611C120.663 101.851 120.135 102.307 119.415 102.979C118.167 104.155 117.471 104.899 117.327 105.211C117.231 105.403 117.123 105.499 117.003 105.499C116.835 105.499 116.751 105.295 116.751 104.887C116.751 104.239 117.495 103.111 118.983 101.503C119.703 100.735 120.063 100.231 120.063 99.9913C120.063 99.8473 119.727 99.5113 119.055 98.9833C118.623 98.6713 117.459 97.7593 115.563 96.2473C114.027 95.0233 113.259 94.3153 113.259 94.1233C113.259 94.0993 113.283 94.0633 113.331 94.0153C113.523 93.8473 113.583 93.6553 113.511 93.4393C113.439 93.1753 113.547 92.9473 113.835 92.7553C114.051 92.6113 114.207 92.2873 114.303 91.7833C114.399 91.2553 114.507 90.9073 114.627 90.7393C114.819 90.4033 114.879 90.1393 114.807 89.9473L114.735 89.8033C114.735 89.6833 115.719 89.5993 117.687 89.5513L119.451 89.4793ZM165.074 108.307C165.074 108.259 165.05 108.235 165.002 108.235C164.93 108.235 164.894 108.259 164.894 108.307C164.894 108.379 164.93 108.415 165.002 108.415C165.05 108.415 165.074 108.379 165.074 108.307ZM165.11 107.119C165.11 107.287 165.122 107.371 165.146 107.371L165.218 107.011C165.218 106.963 165.218 106.915 165.218 106.867C165.17 106.915 165.134 106.999 165.11 107.119ZM165.47 104.707C165.47 104.875 165.506 104.911 165.578 104.815C165.65 104.719 165.65 104.635 165.578 104.563C165.53 104.563 165.494 104.611 165.47 104.707ZM159.602 88.6873C159.866 88.6153 160.058 88.5793 160.178 88.5793C160.346 88.5793 160.526 88.6633 160.718 88.8313C161.006 89.0713 161.414 89.3113 161.942 89.5513L162.77 89.9473L162.734 91.0273C162.686 91.7473 162.614 92.1793 162.518 92.3233C162.374 92.4673 162.302 93.6433 162.302 95.8513C162.302 98.4913 162.386 99.8473 162.554 99.9193C162.602 99.9433 162.986 99.9793 163.706 100.027C164.474 100.075 165.65 100.183 167.234 100.351C168.842 100.495 169.646 100.591 169.646 100.639C169.646 100.687 169.394 101.263 168.89 102.367C168.338 103.471 168.062 104.131 168.062 104.347C168.062 104.539 167.522 105.679 166.442 107.767C165.386 109.855 164.774 110.959 164.606 111.079C164.51 111.151 164.354 111.487 164.138 112.087C163.946 112.711 163.814 113.059 163.742 113.131L163.67 113.167C163.646 113.167 163.634 113.119 163.634 113.023C163.634 112.759 163.874 111.379 164.354 108.883C164.69 107.227 164.918 105.907 165.038 104.923L165.146 103.807L164.318 103.699C163.67 103.627 163.178 103.591 162.842 103.591C162.386 103.591 162.122 103.687 162.05 103.879C161.93 104.191 161.786 105.259 161.618 107.083C161.426 108.979 161.234 110.287 161.042 111.007C160.874 111.751 160.586 112.351 160.178 112.807L159.53 113.491L159.494 112.303C159.494 112.279 159.494 112.231 159.494 112.159L159.422 111.475C159.398 111.475 159.374 111.535 159.35 111.655C159.302 111.823 159.254 111.955 159.206 112.051C159.158 112.147 159.11 112.183 159.062 112.159C158.774 112.087 158.582 110.503 158.486 107.407C158.438 105.535 158.354 104.407 158.234 104.023C158.114 103.615 157.778 103.411 157.226 103.411H156.686H156.254C155.822 103.411 155.51 103.387 155.318 103.339C155.27 103.315 155.198 103.303 155.102 103.303C154.958 103.303 154.886 103.387 154.886 103.555C154.886 103.819 155.042 104.227 155.354 104.779C155.69 105.331 155.834 105.631 155.786 105.679L155.282 105.967C155.09 106.063 154.946 106.111 154.85 106.111C154.514 106.111 153.998 105.643 153.302 104.707C152.726 103.963 152.39 103.591 152.294 103.591C152.246 103.591 152.03 103.447 151.646 103.159C151.286 102.871 151.034 102.727 150.89 102.727C150.866 102.727 150.83 102.739 150.782 102.763C150.686 102.835 150.434 102.775 150.026 102.583C149.642 102.415 149.246 102.307 148.838 102.259C148.478 102.235 148.298 102.091 148.298 101.827C148.298 101.611 148.046 101.347 147.542 101.035C147.038 100.699 146.762 100.447 146.714 100.279C146.714 100.111 146.546 99.9673 146.21 99.8473C145.97 99.7513 145.85 99.6553 145.85 99.5593C145.85 99.2473 146.522 99.0913 147.866 99.0913C148.058 99.0913 148.394 99.1153 148.874 99.1633C149.762 99.2593 151.358 99.3673 153.662 99.4873C155.966 99.6073 157.526 99.6673 158.342 99.6673C158.39 99.6673 158.522 99.6553 158.738 99.6313C158.786 99.5833 158.858 98.5993 158.954 96.6793L159.062 93.8353L158.45 93.2593C158.162 92.9713 157.91 92.8033 157.694 92.7553C157.478 92.6833 156.926 92.6473 156.038 92.6473H154.166L154.346 93.2233C154.418 93.6073 154.55 93.9073 154.742 94.1233C154.766 94.1713 154.91 94.3753 155.174 94.7353C155.438 95.0953 155.666 95.3953 155.858 95.6353C156.434 96.3793 156.722 96.9073 156.722 97.2193C156.722 97.3873 156.638 97.4713 156.47 97.4713C155.726 97.4713 154.406 96.3073 152.51 93.9793C151.742 93.0913 151.058 92.3833 150.458 91.8553C149.81 91.3513 149.486 91.0273 149.486 90.8833C149.486 90.6913 149.702 90.5353 150.134 90.4153C150.422 90.3673 150.602 90.3433 150.674 90.3433C150.938 90.3433 151.25 90.4273 151.61 90.5953C152.114 90.8353 152.858 90.9553 153.842 90.9553C153.962 90.9553 154.166 90.9553 154.454 90.9553C154.766 90.9313 155.03 90.9193 155.246 90.9193C157.118 90.8953 158.138 90.7633 158.306 90.5233C158.45 90.3313 158.606 90.2353 158.774 90.2353C158.942 90.2353 158.99 90.0433 158.918 89.6593C158.894 89.5873 158.882 89.4913 158.882 89.3713C158.882 89.0113 159.122 88.7833 159.602 88.6873Z" fill="white"/>
</svg>
