<svg width="350" height="134" viewBox="0 0 350 134" fill="none" xmlns="http://www.w3.org/2000/svg">
<g clip-path="url(#clip0)">
<path d="M113.039 25.3371H88.5598C86.3592 25.3371 85.2504 26.5903 86.8539 27.315L100.842 33.8794L114.83 27.315C116.348 26.5903 115.239 25.3371 113.039 25.3371Z" fill="#EFEFEF"/>
<path d="M129.987 33.7089H105.507C103.298 33.7089 102.198 34.9535 103.75 35.6867L117.747 42.2426L131.735 35.6867C133.287 34.9535 132.204 33.7089 129.987 33.7089Z" fill="#EFEFEF"/>
<path d="M321.461 93.5562H350C349.909 93.4967 349.815 93.4426 349.718 93.3942L337.291 87.5715H334.161L321.742 93.3942C321.644 93.4407 321.55 93.4949 321.461 93.5562Z" fill="#EFEFEF"/>
<path d="M176.156 73.2576C175.695 73.2732 175.233 73.2589 174.774 73.2149L133.663 53.9393H134.934L142.363 57.4262L151.387 61.6888L165.375 68.2532L165.81 68.4493L176.156 73.2576Z" fill="#EFEFEF"/>
<path d="M178.425 72.9336C178.152 73.0018 177.853 73.07 177.572 73.1211L136.631 53.9222H137.91L144.026 56.7953L153.05 61.0579L167.046 67.6138C167.191 67.6905 167.345 67.7502 167.481 67.8184L175.883 71.7571L178.425 72.9336Z" fill="#EFEFEF"/>
<path d="M31.3281 53.9222L37.4522 56.7953L46.4762 61.0579L60.4728 67.6223L60.9078 67.8184L69.3091 71.7571L77.4034 75.5508L78.5293 76.1646L78.7511 76.2925C79.3822 76.6335 79.2969 76.6676 78.5634 76.3778L73.8297 74.4766L30.0487 53.9222H31.3281Z" fill="#EFEFEF"/>
<path d="M180.804 52.993V55.3886L172.113 51.3136V48.918L180.804 52.993Z" fill="#EFEFEF"/>
<path d="M180.821 56.7783V69.9924L167.174 63.5899V58.5345H167.388C170.015 58.5345 172.138 57.537 172.138 56.3094V52.7799H172.181H172.232H172.343L172.275 52.8311L180.821 56.7783Z" fill="#EFEFEF"/>
<path d="M77.8214 25.3627H78.1455V25.465L92.6453 32.2852L128.963 50.0092L118.728 54.8174C114.839 56.6418 108.493 56.6418 104.62 54.8174L92.6794 49.2163L78.1796 42.3961V70.1458L52.6514 58.2105V25.3371L77.8214 25.3627Z" fill="#EFEFEF"/>
<path d="M198.52 51.3817V82.8826C198.52 83.5219 199.628 84.042 200.993 84.042H206.332V91.1435C206.332 92.4223 204.115 93.4624 201.385 93.4624H180.821L146.337 77.2644V71.9873C146.337 71.3479 145.228 70.8278 143.864 70.8278H136.042L133.867 71.4502L120.69 65.2694C116.792 63.445 116.8 60.4867 120.69 58.6623L130.925 53.8626L153.041 64.2293C153.45 64.4055 153.892 64.4927 154.338 64.485C154.783 64.4747 155.224 64.559 155.634 64.7323L172.386 72.584C173.146 72.9293 173.959 73.1426 174.791 73.2149C175.25 73.2589 175.712 73.2731 176.173 73.2575C176.642 73.2471 177.109 73.2015 177.572 73.1211C177.87 73.07 178.169 73.0018 178.425 72.9336C179.806 72.5414 180.804 71.8423 180.804 70.9472V25.823H201.624C204.226 25.823 206.332 26.8119 206.332 28.031V50.1967H200.993C199.628 50.2223 198.52 50.7423 198.52 51.3817Z" fill="#EFEFEF"/>
<path d="M153.417 87.7078V93.4624H127.88L93.3959 77.2644V70.8278H83.101C82.3267 70.786 81.5609 71.0052 80.926 71.4502L78.1455 70.1458V53.9478L100.646 64.485H102.164L119.41 72.584C122.378 73.9736 127.334 73.1041 127.803 71.2285L131.266 72.8568C131.901 72.4119 132.667 72.1927 133.441 72.2345H143.736V78.7052L145.57 79.5577V84.042C147.467 84.0037 149.351 84.3699 151.097 85.1162C152.547 85.7811 153.417 86.6933 153.417 87.7078Z" fill="#EFEFEF"/>
<path d="M78.1455 53.9308V70.1458L52.6173 58.1763V41.9613L78.1455 53.9308Z" fill="#EFEFEF"/>
<path d="M180.821 125.475V133.147C180.821 133.54 180.25 133.872 179.465 134C178.462 133.966 177.475 133.74 176.557 133.335L159.814 125.483C159.404 125.307 158.963 125.22 158.517 125.228C158.072 125.237 157.631 125.153 157.221 124.98L82.1628 90.8281C81.0113 90.2825 79.0325 90.6661 79.0325 91.4334V95.3124L75.3308 93.4539L41.3159 77.5798C40.9748 77.4264 40.7786 77.2047 40.7786 76.9745V71.6889C40.7786 71.2115 39.9257 70.8364 38.9363 70.8364H30.4837C30.0488 70.8358 29.6157 70.8932 29.1958 71.0069C28.4771 71.1957 27.7165 71.1448 27.0294 70.8619L0.537346 58.4321C0.196174 58.2701 0 58.057 0 57.8268V44.0415C0 43.2742 1.97027 42.8906 3.13025 43.4362L47.4826 64.2293C47.8917 64.4055 48.3337 64.4927 48.7791 64.485C49.2239 64.4747 49.6658 64.559 50.0755 64.7323L66.8186 72.584C69.1641 73.6838 72.7891 73.3684 74.3926 72.2601C74.8277 72.0432 75.3046 71.9233 75.7906 71.9086C76.2765 71.8938 76.7598 71.9847 77.2073 72.1748L77.3949 72.2601C78.081 72.5457 78.8418 72.5996 79.5613 72.4135C79.9799 72.2927 80.4136 72.2324 80.8493 72.2345H89.3103C90.3253 72.2345 91.1441 72.6181 91.1441 73.087V78.3471C91.1441 78.5773 91.3403 78.7989 91.6815 78.9609L92.4406 79.3105C92.7818 79.4724 92.9779 79.6856 92.9779 79.9158V83.1809C92.9779 83.6583 93.8309 84.0335 94.8117 84.0335H98.9399C99.9805 84.042 180.821 124.997 180.821 125.475Z" fill="#EFEFEF"/>
<path d="M336.055 66.7357H331.909C330.894 66.7357 330.076 66.3436 330.076 65.8832V62.6095C330.076 62.3793 329.879 62.1577 329.538 61.9957L328.779 61.6462C328.438 61.4842 328.242 61.2625 328.242 61.0409V55.7808C328.242 55.3119 327.389 54.9283 326.408 54.9283H317.947C317.512 54.9235 317.078 54.9809 316.659 55.0988C315.94 55.2907 315.177 55.2366 314.493 54.9453L314.305 54.8601C313.857 54.6732 313.374 54.5842 312.888 54.5989C312.403 54.6136 311.926 54.7317 311.49 54.9453C309.861 56.0536 306.262 56.3775 303.916 55.2693L287.173 47.426C286.764 47.2505 286.322 47.1634 285.877 47.1703C285.432 47.1806 284.99 47.0964 284.58 46.923L183.934 0.255779C182.774 -0.289838 180.821 0.0937989 180.821 0.852547V11.6114C180.821 10.8441 182.791 10.469 183.951 11.0061L275.701 53.5131H276.008C277.023 53.5131 277.851 53.9052 277.851 54.3656V54.5617L284.563 57.7075C284.973 57.8808 285.415 57.9651 285.86 57.9547C286.305 57.9478 286.747 58.035 287.156 58.2105L303.899 66.0622C306.245 67.162 309.87 66.8466 311.473 65.7383C311.908 65.5201 312.384 65.3987 312.87 65.3825C313.356 65.3663 313.84 65.4557 314.288 65.6445L314.475 65.7383C315.163 66.0211 315.923 66.072 316.642 65.8832C317.061 65.7654 317.495 65.708 317.93 65.7127H326.391C327.406 65.7127 328.225 66.0963 328.225 66.5652V71.8168C328.225 72.047 328.421 72.2601 328.762 72.4221L329.521 72.7801C329.862 72.9336 330.059 73.1553 330.059 73.3854V76.1817H336.029C337.044 76.1817 337.863 75.7981 337.863 75.3292V67.6565C337.871 67.1194 337.053 66.7357 336.055 66.7357Z" fill="#EFEFEF"/>
<path d="M242.744 82.8825V79.6174C242.744 79.3872 242.94 79.1655 243.281 79.0035L244.04 78.654C244.382 78.492 244.578 78.2704 244.578 78.0487V72.7886C244.578 72.3197 245.431 71.9361 246.412 71.9361H254.873C255.308 71.9319 255.741 71.9894 256.161 72.1066C256.877 72.2985 257.637 72.2445 258.318 71.9532L258.506 71.8679C258.956 71.6811 259.441 71.5929 259.928 71.609C260.415 71.6252 260.893 71.7455 261.329 71.9617C262.958 73.07 266.549 73.3854 268.903 72.2771L285.646 64.4339C286.055 64.2576 286.497 64.1704 286.943 64.1781C287.388 64.1877 287.829 64.1035 288.239 63.9309L332.592 43.1293C333.743 42.5922 335.722 42.9758 335.722 43.7345V57.5199C335.722 57.7501 335.526 57.9717 335.185 58.1337L308.701 70.5465C308.016 70.8378 307.254 70.8918 306.535 70.6999C306.116 70.5827 305.682 70.5253 305.247 70.5294H296.82C295.796 70.5294 294.977 70.9131 294.977 71.382V76.6421C294.977 76.8637 294.781 77.0854 294.44 77.2473L260.493 93.164H236.765C235.75 93.164 234.931 92.7804 234.931 92.3115V84.6387C234.931 84.1699 235.784 83.7862 236.765 83.7862H240.91C241.925 83.7436 242.744 83.36 242.744 82.8825Z" fill="#EFEFEF"/>
<path d="M48.2588 84.042V93.4198H22.7221L0 82.8144V65.8832L14.2866 72.584C17.2548 73.9737 22.2103 73.1041 22.6794 71.2285L26.1423 72.8568C26.7772 72.4119 27.543 72.1927 28.3173 72.2345H38.6122V78.7052L40.446 79.5577V84.042H48.2588Z" fill="#EFEFEF"/>
<path d="M287.438 84.042V93.4198H313.025L335.748 82.7717V65.8832L321.461 72.584C318.493 73.9737 313.537 73.1041 313.068 71.2285L309.614 72.8568C308.979 72.4119 308.213 72.1927 307.439 72.2345H297.118V78.7052L295.285 79.5577V84.042H287.438Z" fill="#EFEFEF"/>
<path d="M218.12 77.6736H209.497V83.0019L231.971 93.5392V84.1614L230.905 83.6669L218.12 77.6736Z" fill="#EFEFEF"/>
<path d="M218.12 66.7784H209.497V72.0981L231.971 82.6354V73.2661L230.905 72.7631L218.12 66.7784Z" fill="#EFEFEF"/>
<path d="M218.12 55.5591H209.497V60.8874L231.971 71.4247V62.0469L230.905 61.5524L218.12 55.5591Z" fill="#EFEFEF"/>
<path d="M218.12 35.2434H209.497V40.5717L231.971 51.1089V41.7397L230.905 41.2367L218.12 35.2434Z" fill="#EFEFEF"/>
<path d="M47.1415 43.4788H36.676L26.8929 38.8666L19.6174 42.2767C18.9521 42.5922 18.7645 43.0355 19.0203 43.4362H12.9645V45.9938L47.1415 62.0212V43.4788Z" fill="#EFEFEF"/>
<path d="M328.685 42.703H318.186L308.437 38.1249L301.17 41.535C300.496 41.8505 300.317 42.3023 300.573 42.703H294.525V45.2606L328.702 61.2795L328.685 42.703Z" fill="#EFEFEF"/>
<path d="M285.331 66.497C285.066 66.464 284.807 66.3922 284.563 66.2839L240.211 45.4908C239.051 44.9452 237.081 45.3288 237.081 46.0961V56.872C237.081 56.1048 239.051 55.7211 240.211 56.2667L275.71 72.908H276.017C277.032 72.908 277.859 73.2917 277.859 73.7606V73.9055L284.572 77.0513C284.816 77.1596 285.074 77.2314 285.339 77.2645L285.331 66.497Z" fill="#EFEFEF"/>
</g>
<defs>
<clipPath id="clip0">
<rect width="350" height="134" fill="white"/>
</clipPath>
</defs>
</svg>
