<svg xmlns="http://www.w3.org/2000/svg" viewBox="0 0 474.5 440.3"><g id="Layer_2" data-name="Layer 2"><g id="Layer_1-2" data-name="Layer 1"><path d="M474.5,292.5c-6,1.9-11,3.5-16,5-12,3.5-23.9,7-35.9,10.3-12.4,3.5-24.8,6.8-37.2,10.3q-29.1,8.4-58.2,16.7c-16.8,4.8-33.5,9.5-50.3,14.3-10.9,3.1-21.7,6.5-32.5,9.3-3.5.9-7,4.2-10.8.6-3.3,1.2-7.4,1.6-9.8,3.8a23,23,0,0,1-14.5,6c-9.1.7-17.4,3.9-25.8,6.8-14.7,5.3-29.3,10.8-44,16.2h-.1L118,398.5c-4.2.5-7.8,3-11.9,4.1-4.4,1.2-8.5,2.8-13,4.3s-9.1,2.7-13.6,4.2-9,3.2-13.5,4.8c-4.3,1.6-8.4,3-12.8,4.7s-8.8,3.5-13.3,5.2L26.6,431c-4.3,1.6-8.5,3.3-12.8,4.8S5.4,439.9,0,440.3a20.83,20.83,0,0,1,9.7-8.4c18.8-8,37.6-15.9,56.3-24.1,13.4-5.9,26.7-11.9,40-18.2a36.91,36.91,0,0,0,12.7-10.5c1.7.7,3.4,1.5,6.1,2.7.5-2.2.9-4.3,1.3-6.2a94.32,94.32,0,0,0,8.2-6.3c3.6-3.3,12.9-4.9,12.9-4.9l-2.2-4.8a56.54,56.54,0,0,1,5.7-2.3c17.6-6.3,35.2-12.4,52.7-18.6,9.9-3.5,19.8-6.9,29.6-10.7,12.5-5,24.6-11.1,37.3-15.4,32.1-10.6,64.6-20.6,96.8-30.8,3.9-1.3,7.8-2.4,12.6-3.8-3.9-4.6-7.1-8.6-10.5-12.3-9-9.5-18.4-18.6-27-28.4-6.5-7.4-14.1-14.1-17.6-23.7-.6-1.7-2.3-3-3.6-4.5-.9,1-1.4,1.5-2.4,2.5-3.7-4.1-7.3-8.2-11.7-13.2-1,2.9-1.5,4.2-2.2,6.1-1.1-1.2-2-2.2-3.1-3.5a10.93,10.93,0,0,0-.5,1.7c0,3.7.1,7.4.1,11.1,0,.8-.3,1.5-.3,2.3-.5,9.3-.8,18.6-1.3,27.8-.2,4.2-.7,8.3-.9,12.4-.2,3.4,0,6.8,0,10.6-3.9-.8-8-2.1-11.2-5.7-2.2-2.4-5.5-3.7-8-5.9-9.3-7.9-18.5-16-27.8-24-10.6-9.2-21.4-18.2-31.9-27.4-4-3.5-7.6-7.6-11.5-11.2-3.1-2.9-5.3-6.9-10-8-.9-.2-1.5-1.7-2.2-2.6a22.59,22.59,0,0,0-3.9-3.7,1,1,0,0,0-1.6,1v.1a1,1,0,0,1-1.6.9c-9.6-9-16.5-19.2-25.2-28.2-1.3,1.7-.7,3.4-.4,5,1.9,12.5,4.5,24.9,4.3,37.6a31,31,0,0,1-3.2,13.7c-1.3,2.8-1.2,6.5-1.2,9.8.2,7,.8,14.1,1.2,22.5-2-1.3-2.8-1.8-4.1-2.7-3.5,6.3-3.2,13.5-4.2,20.3l-1-6-1.2-.2a56.58,56.58,0,0,0-1.6,8.2c-.8,2-1.3,7.4-3.1,9.1,0,0-.9-2.3-1.2-2.8,0,0-.4-.9-.5-.9a47.6,47.6,0,0,1-1.1,6.4c-.5,2.1-1,4.2-1.3,6.1l-.2.7s-3.6,8.8-4,8.8c0,0-.3-3.2-.5-4.2-.1-1.8,0-3.6,0-5.4-.4-14.9-.5-29.8-1.3-44.5s-2.1-29.5-3.6-44.3c-1.8-16.6-3.8-33.3-6-49.9-1.1-8-2.8-16-4.4-23.9-.3-1.5-.8-3.5-1.9-4.1-7.1-4.4-9.7-11.7-12.5-18.9A185.8,185.8,0,0,0,79.9,42.1c-6.8-7.7-12.5-16.2-18.8-24.7l-.9-4.5c-.1.4-.1.9-.2,1.5C54.2,11,51.2,5.6,47.4.8l.8-.8c3.7,3,7.4,5.8,10.9,8.8l.3.3h0l5.2,4.4c12.5,10,24.6,19.9,36.7,29.7s24,19.7,36.5,29c-2.5-2.8-4.9-5.6-7.4-8.4a9.43,9.43,0,0,0,1-1,20.45,20.45,0,0,1,3.1,2c9.1,9.4,18,18.9,27.2,28.2,11,11.2,22.1,22.2,33.2,33.2a16.71,16.71,0,0,0,4.4,3.1c9.8,4.7,16.1,13.1,22.8,21.2,14.4,17.3,27.1,36.1,43.8,51.5,1.5,1.4,3.1,2.7,4.6,4.1.3-.2.7-.4,1-.6-.6-3.8-1.5-7.6-1.8-11.5a321.8,321.8,0,0,0-7.2-45.7,45.35,45.35,0,0,0-1.8-6.3c-3-8.3-5.9-16.8-9.3-25a111,111,0,0,0-7.6-14.5c-1.2-2-2-3.7-.8-6.5,4,3.4,7.8,6.6,11.4,9.8,6,5.5,11.7,11.3,17.9,16.5,4.1,3.4,9,5.7,13.5,8.6,3.5,2.2,7.3,4.1,9.5,8.2-.9.8-1.9,1.4-2.7,2.2-1.9,1.8-1.8,3.8-.1,5.8,4.2,4.7,8.1,9.6,12.5,14.2,9.9,10.5,19.9,20.8,30.5,30.8-5.3-12.6-13.9-23-22.3-33.5,4.3,2.4,7.2,6.2,10.5,9.5.3.3.4.7.7,1,10.5,11.9,20.6,24,31.5,35.5,5.9,6.3,12.8,11.7,19.6,17.2,3,2.4,7,3.9,10.3,5.9s7.1,3.7,9.8,6.4c4.3,4.3,8.4,8.6,13.4,12.3,6.3,4.7,11.7,10.7,17.5,16,2.4,2,4.9,4,7.4,5.8,4.5,3.2,9.1,6.3,13.7,9.5a106.09,106.09,0,0,0,22.9,12.5C471.5,290.7,472.4,291.4,474.5,292.5Z"/></g></g></svg>